<svg xmlns="http://www.w3.org/2000/svg" xmlns:xlink="http://www.w3.org/1999/xlink" viewBox="0 0 210.28 252.57"><defs><style>.cls-1,.cls-10,.cls-15,.cls-18{fill:none;}.cls-2{fill:#ff954d;}.cls-3,.cls-4{fill:#fff;}.cls-4{font-size:47px;font-family:CookieRun-Black, CookieRun;font-weight:800;}.cls-10,.cls-4,.cls-7{stroke:#543210;}.cls-12,.cls-18,.cls-4{stroke-miterlimit:10;}.cls-10,.cls-12,.cls-14,.cls-15,.cls-18,.cls-4,.cls-7{stroke-width:2px;}.cls-5{letter-spacing:-0.04em;}.cls-6{font-size:27px;fill:#543210;font-family:CookieRun-Bold, CookieRun;font-weight:700;}.cls-7{fill:#fffdf8;}.cls-10,.cls-14,.cls-15,.cls-7{stroke-linecap:round;stroke-linejoin:round;}.cls-8{clip-path:url(#clip-path);}.cls-9{fill:#ffb255;}.cls-11{fill:#ffe6e3;}.cls-12{fill:#fdfaf6;}.cls-12,.cls-18{stroke:#7f4236;}.cls-13{fill:#050001;}.cls-14{fill:#9d4a36;stroke:#9d4a36;}.cls-15{stroke:#050001;}.cls-16{clip-path:url(#clip-path-2);}.cls-17{fill:#ffd6bb;}</style><clipPath id="clip-path"><path class="cls-1" d="M144.73,142a56.67,56.67,0,0,0-3.58-17.48h0c2.65-23.38-11-42.77-18.83-42.95s-13.17,19.89-13.17,19.89l0,0c-1.31-.1-2.65-.17-4-.17s-2.73.07-4,.17l0,0S95.75,81.39,88,81.57s-21.48,19.57-18.83,43A56.67,56.67,0,0,0,65.55,142s-7.66,8.11-4.58,21.41c3.48,15.07,24.79,18.37,44.17,18.37s40.69-3.3,44.17-18.37C152.39,150.11,144.73,142,144.73,142Z"/></clipPath><clipPath id="clip-path-2"><path class="cls-1" d="M105.14,177.68c24.15,0,30.59-9,31.63-16.07a23.78,23.78,0,0,0-2-13c.49-6.61-1.59-17-6.37-22.6-5.53-6.49-13.77-9.67-23.25-9.67S87.42,119.53,81.89,126c-4.78,5.62-6.86,16-6.37,22.6a23.78,23.78,0,0,0-2,13C74.55,168.64,81,177.68,105.14,177.68Z"/></clipPath></defs><g id="레이어_2" data-name="레이어 2"><g id="레이어_1-2" data-name="레이어 1"><path class="cls-2" d="M210.28,105.14A105.14,105.14,0,0,0,0,105.14c0,1,0,2.06.06,3.08,0,.26,0,.51,0,.77V243a9.59,9.59,0,0,0,9.59,9.59H200.68a9.59,9.59,0,0,0,9.59-9.59V109c0-.26,0-.52-.05-.77C210.25,107.19,210.28,106.17,210.28,105.14Z"/><path class="cls-3" d="M195.65,192.15h-181A8.88,8.88,0,0,0,5.74,201v37.3a8.89,8.89,0,0,0,8.89,8.89h181a8.89,8.89,0,0,0,8.89-8.89V201A8.88,8.88,0,0,0,195.65,192.15ZM15.8,206.43a5,5,0,1,1,5-5A5,5,0,0,1,15.8,206.43Zm179.42,0a5,5,0,1,1,5-5A5,5,0,0,1,195.22,206.43Z"/><text class="cls-4" transform="translate(50.01 64.73)">EN<tspan class="cls-5" x="58.75" y="0">F</tspan><tspan x="82.72" y="0">J</tspan></text><text class="cls-6" transform="translate(26.57 231.7)">발랄한 강아지</text><path class="cls-7" d="M144.73,142a56.67,56.67,0,0,0-3.58-17.48h0c2.65-23.38-11-42.77-18.83-42.95s-13.17,19.89-13.17,19.89l0,0c-1.31-.1-2.65-.17-4-.17s-2.73.07-4,.17l0,0S95.75,81.39,88,81.57s-21.48,19.57-18.83,43A56.67,56.67,0,0,0,65.55,142s-7.66,8.11-4.58,21.41c3.48,15.07,24.79,18.37,44.17,18.37s40.69-3.3,44.17-18.37C152.39,150.11,144.73,142,144.73,142Z"/><g class="cls-8"><path class="cls-9" d="M118.67,129.51c13.68,17.16,34.22,23.54,45.88,14.25s10-30.74-3.64-47.91S126.7,72.31,115,81.6,105,112.35,118.67,129.51Z"/><path class="cls-9" d="M91.61,129.51c-13.67,17.16-34.21,23.54-45.88,14.25S35.7,113,49.37,95.85,83.59,72.31,95.25,81.6,105.28,112.35,91.61,129.51Z"/></g><path class="cls-10" d="M144.73,142a56.67,56.67,0,0,0-3.58-17.48h0c2.65-23.38-11-42.77-18.83-42.95s-13.17,19.89-13.17,19.89l0,0c-1.31-.1-2.65-.17-4-.17s-2.73.07-4,.17l0,0S95.75,81.39,88,81.57s-21.48,19.57-18.83,43A56.67,56.67,0,0,0,65.55,142s-7.66,8.11-4.58,21.41c3.48,15.07,24.79,18.37,44.17,18.37s40.69-3.3,44.17-18.37C152.39,150.11,144.73,142,144.73,142Z"/><path class="cls-11" d="M117.74,102.33s2.42-9,5.91-8.93,9.65,8.79,8.46,19.28Z"/><path class="cls-11" d="M92.54,102.33s-2.42-9-5.91-8.93-9.65,8.79-8.46,19.28Z"/><path class="cls-12" d="M105.14,177.68c24.15,0,30.59-9,31.63-16.07a23.78,23.78,0,0,0-2-13c.49-6.61-1.59-17-6.37-22.6-5.53-6.49-13.77-9.67-23.25-9.67S87.42,119.53,81.89,126c-4.78,5.62-6.86,16-6.37,22.6a23.78,23.78,0,0,0-2,13C74.55,168.64,81,177.68,105.14,177.68Z"/><path class="cls-13" d="M117.68,127.26a41.18,41.18,0,0,1,15.47,8.27s-4.85-19.18-28-19.18-28,19.18-28,19.18a41.28,41.28,0,0,1,15.48-8.27l2.79-3.93-.09,3.22a44.17,44.17,0,0,1,19.68,0l-.09-3.22Z"/><path class="cls-13" d="M98.27,145.33a2.51,2.51,0,1,1-2.5-2.51A2.5,2.5,0,0,1,98.27,145.33Z"/><path class="cls-13" d="M112,145.33a2.51,2.51,0,1,0,2.5-2.51A2.5,2.5,0,0,0,112,145.33Z"/><path class="cls-14" d="M105.14,164.19c6.82,0,5.71-9.89,5.71-9.89H99.43S98.32,164.19,105.14,164.19Z"/><line class="cls-15" x1="113.06" y1="132.92" x2="115.97" y2="132.64"/><line class="cls-15" x1="97.22" y1="132.92" x2="94.31" y2="132.64"/><g class="cls-16"><circle class="cls-17" cx="83.15" cy="161.34" r="14.32"/><circle class="cls-17" cx="127.13" cy="161.34" r="14.32"/></g><path class="cls-18" d="M105.14,177.68c24.15,0,30.59-9,31.63-16.07a23.78,23.78,0,0,0-2-13c.49-6.61-1.59-17-6.37-22.6-5.53-6.49-13.77-9.67-23.25-9.67S87.42,119.53,81.89,126c-4.78,5.62-6.86,16-6.37,22.6a23.78,23.78,0,0,0-2,13C74.55,168.64,81,177.68,105.14,177.68Z"/></g></g></svg>