<svg xmlns="http://www.w3.org/2000/svg" xmlns:xlink="http://www.w3.org/1999/xlink" viewBox="0 0 210.28 252.57"><defs><style>.cls-1,.cls-10,.cls-13,.cls-8{fill:none;}.cls-2{fill:#f2c772;}.cls-15,.cls-3{fill:#fff;}.cls-4{fill:#b7805a;stroke:#473222;}.cls-10,.cls-14,.cls-4,.cls-8,.cls-9{stroke-linecap:round;stroke-linejoin:round;}.cls-10,.cls-13,.cls-14,.cls-15,.cls-4,.cls-6,.cls-8,.cls-9{stroke-width:2px;}.cls-5{fill:#ffc5bb;}.cls-6{fill:#fdfaf6;}.cls-13,.cls-6{stroke:#7f4236;}.cls-13,.cls-15,.cls-6{stroke-miterlimit:10;}.cls-7{fill:#050001;}.cls-8{stroke:#030000;}.cls-9{fill:#9d4a36;stroke:#9d4a36;}.cls-10{stroke:#050001;}.cls-11{clip-path:url(#clip-path);}.cls-12{fill:#ffd6bb;}.cls-14{fill:#ffd05a;stroke:#422705;}.cls-15{font-size:47px;stroke:#bc861b;font-family:CookieRun-Black, CookieRun;font-weight:800;}.cls-16{font-size:27px;fill:#422705;font-family:CookieRun-Bold, CookieRun;font-weight:700;}</style><clipPath id="clip-path"><path class="cls-1" d="M102.07,175.07c25.31,0,32.06-9.47,33.16-16.84a25,25,0,0,0-2.11-13.62c.51-6.93-1.67-17.79-6.68-23.68-5.79-6.81-14.44-10.14-24.37-10.14s-18.58,3.33-24.37,10.14c-5,5.89-7.19,16.75-6.69,23.68a25,25,0,0,0-2.1,13.62C70,165.6,76.76,175.07,102.07,175.07Z"/></clipPath></defs><g id="레이어_2" data-name="레이어 2"><g id="레이어_1-2" data-name="레이어 1"><path class="cls-2" d="M210.28,105.14A105.14,105.14,0,0,0,0,105.14c0,1,0,2.06.06,3.08,0,.26,0,.51,0,.77V243a9.59,9.59,0,0,0,9.59,9.59H200.68a9.59,9.59,0,0,0,9.59-9.59V109c0-.26,0-.52-.05-.77C210.25,107.19,210.28,106.17,210.28,105.14Z"/><path class="cls-3" d="M195.65,192.15h-181A8.88,8.88,0,0,0,5.74,201v37.3a8.89,8.89,0,0,0,8.89,8.89h181a8.89,8.89,0,0,0,8.89-8.89V201A8.88,8.88,0,0,0,195.65,192.15ZM15.8,206.43a5,5,0,1,1,5-5A5,5,0,0,1,15.8,206.43Zm179.42,0a5,5,0,1,1,5-5A5,5,0,0,1,195.22,206.43Z"/><path class="cls-4" d="M161.6,158c-6-.86-1.18,4-3.47,5.51-3.09,2.05-4.65-.76-4.65-.76-3.66-6.22,1.53-11.57,8.69-10.92s11.44,13.8,1.14,20-31.06-.65-31.06-.65l2.88-5.64s17.61,5.84,24.85.82S161.6,158,161.6,158Z"/><circle class="cls-4" cx="59.44" cy="123.75" r="20.8"/><circle class="cls-5" cx="59.44" cy="123.75" r="9.62" transform="translate(-73.21 88.37) rotate(-49.41)"/><circle class="cls-4" cx="144.7" cy="123.75" r="20.8"/><circle class="cls-5" cx="144.7" cy="123.75" r="9.62" transform="translate(-24.64 36.7) rotate(-13.33)"/><path class="cls-4" d="M102.07,179.32c20.32,0,42.65-3.46,46.3-19.26,3.23-13.94-4.8-22.44-4.8-22.44s-.27-14.42-7.08-24.89C129.22,101.58,118.4,95,102.07,95s-27.15,6.61-34.42,17.76c-6.81,10.47-7.08,24.89-7.08,24.89s-8,8.5-4.81,22.44C59.42,175.86,81.75,179.32,102.07,179.32Z"/><path class="cls-6" d="M102.07,175.07c25.31,0,32.06-9.47,33.16-16.84a25,25,0,0,0-2.11-13.62c.51-6.93-1.67-17.79-6.68-23.68-5.79-6.81-14.55-11.48-24.37-6.81-9.83-4.67-18.58,0-24.37,6.81-5,5.89-7.19,16.75-6.69,23.68a25,25,0,0,0-2.1,13.62C70,165.6,76.76,175.07,102.07,175.07Z"/><path class="cls-7" d="M94.87,141.16a2.63,2.63,0,1,1-2.63-2.62A2.63,2.63,0,0,1,94.87,141.16Z"/><polyline class="cls-8" points="112.61 139.34 109.98 141.09 112.61 142.99"/><path class="cls-9" d="M102.07,160.93c7.15,0,6-10.37,6-10.37h-12S94.92,160.93,102.07,160.93Z"/><line class="cls-10" x1="110.37" y1="128.16" x2="113.42" y2="127.86"/><line class="cls-10" x1="93.77" y1="128.16" x2="90.72" y2="127.86"/><g class="cls-11"><path class="cls-12" d="M94,157.94a15,15,0,1,1-15-15A15,15,0,0,1,94,157.94Z"/><path class="cls-12" d="M110.11,157.94a15,15,0,1,0,15-15A15,15,0,0,0,110.11,157.94Z"/></g><path class="cls-7" d="M115.21,122.22a43.38,43.38,0,0,1,16.23,8.67,28.3,28.3,0,0,0-14.14-16.76c-4-2-13.85-.66-15.23-.66s-10.72-1.48-14.57.34a28.3,28.3,0,0,0-14.8,17.08,43.39,43.39,0,0,1,16.22-8.67l2.93-4.12-.09,3.38a46,46,0,0,1,20.62,0l-.09-3.38Z"/><path class="cls-13" d="M102.07,175.07c25.31,0,32.06-9.47,33.16-16.84a25,25,0,0,0-2.11-13.62c.51-6.93-1.67-17.79-6.68-23.68-5.79-6.81-14.55-11.48-24.37-6.81-9.83-4.67-18.58,0-24.37,6.81-5,5.89-7.19,16.75-6.69,23.68a25,25,0,0,0-2.1,13.62C70,165.6,76.76,175.07,102.07,175.07Z"/><path class="cls-14" d="M96.72,94.53c13.1,3.33,15.5-7.91,15.5-7.91a39,39,0,0,1-25.33-6.45S83.62,91.19,96.72,94.53Z"/><path class="cls-14" d="M101.51,100.34c13.28-2.52,10.71-13.72,10.71-13.72a39.08,39.08,0,0,1-25.68,4.86S88.23,102.85,101.51,100.34Z"/><path class="cls-14" d="M120.16,85,110,80.21a2.2,2.2,0,0,0-1.88,4l3,1.4-3,6a39.77,39.77,0,0,1-5.21,4.47A37.25,37.25,0,0,1,91,101.87s6.34,9.59,17.31,1.7c6.86-4.92,6.67-10.31,5.57-13.66l1.21-2.43L118.27,89a2.2,2.2,0,0,0,1.89-4Z"/><text class="cls-15" transform="translate(46.95 62.64)">ENFP</text><text class="cls-16" transform="translate(17.8 230.66)">재치있는 원숭이</text></g></g></svg>