<svg xmlns="http://www.w3.org/2000/svg" xmlns:xlink="http://www.w3.org/1999/xlink" viewBox="0 0 210.28 252.57"><defs><style>.cls-1,.cls-10,.cls-13,.cls-8{fill:none;}.cls-2{fill:#f2c772;}.cls-15,.cls-3{fill:#fff;}.cls-4{fill:#b7805a;stroke:#473222;}.cls-10,.cls-14,.cls-4,.cls-8,.cls-9{stroke-linecap:round;stroke-linejoin:round;}.cls-10,.cls-13,.cls-14,.cls-15,.cls-4,.cls-6,.cls-8,.cls-9{stroke-width:2px;}.cls-5{fill:#ffc5bb;}.cls-6{fill:#fdfaf6;}.cls-13,.cls-6{stroke:#7f4236;}.cls-13,.cls-15,.cls-6{stroke-miterlimit:10;}.cls-7{fill:#050001;}.cls-8{stroke:#030000;}.cls-9{fill:#9d4a36;stroke:#9d4a36;}.cls-10{stroke:#050001;}.cls-11{clip-path:url(#clip-path);}.cls-12{fill:#ffd6bb;}.cls-14{fill:#ffd05a;stroke:#422705;}.cls-15{font-size:47px;stroke:#bc861b;font-family:CookieRun-Black, CookieRun;font-weight:800;}.cls-16{fill:#422705;}</style><clipPath id="clip-path"><path class="cls-1" d="M102.07,175.07c25.31,0,32.06-9.47,33.16-16.84a25,25,0,0,0-2.11-13.62c.51-6.93-1.67-17.79-6.68-23.68-5.79-6.81-14.44-10.14-24.37-10.14s-18.58,3.33-24.37,10.14c-5,5.89-7.19,16.75-6.69,23.68a25,25,0,0,0-2.1,13.62C70,165.6,76.76,175.07,102.07,175.07Z"/></clipPath></defs><g id="레이어_2" data-name="레이어 2"><g id="레이어_1-2" data-name="레이어 1"><path class="cls-2" d="M210.28,105.14A105.14,105.14,0,0,0,0,105.14c0,1,0,2.06.06,3.08,0,.26,0,.51,0,.77V243a9.59,9.59,0,0,0,9.59,9.59H200.68a9.59,9.59,0,0,0,9.59-9.59V109c0-.26,0-.52-.05-.77C210.25,107.19,210.28,106.17,210.28,105.14Z"/><path class="cls-3" d="M195.65,192.15h-181A8.88,8.88,0,0,0,5.74,201v37.3a8.89,8.89,0,0,0,8.89,8.89h181a8.89,8.89,0,0,0,8.89-8.89V201A8.88,8.88,0,0,0,195.65,192.15ZM15.8,206.43a5,5,0,1,1,5-5A5,5,0,0,1,15.8,206.43Zm179.42,0a5,5,0,1,1,5-5A5,5,0,0,1,195.22,206.43Z"/><path class="cls-4" d="M161.6,158c-6-.86-1.18,4-3.47,5.51-3.09,2.05-4.65-.76-4.65-.76-3.66-6.22,1.53-11.57,8.69-10.92s11.44,13.8,1.14,20-31.06-.65-31.06-.65l2.88-5.64s17.61,5.84,24.85.82S161.6,158,161.6,158Z"/><circle class="cls-4" cx="59.44" cy="123.75" r="20.8"/><circle class="cls-5" cx="59.44" cy="123.75" r="9.62" transform="translate(-73.21 88.37) rotate(-49.41)"/><circle class="cls-4" cx="144.7" cy="123.75" r="20.8"/><circle class="cls-5" cx="144.7" cy="123.75" r="9.62" transform="translate(-24.64 36.7) rotate(-13.33)"/><path class="cls-4" d="M102.07,179.32c20.32,0,42.65-3.46,46.3-19.26,3.23-13.94-4.8-22.44-4.8-22.44s-.27-14.42-7.08-24.89C129.22,101.58,118.4,95,102.07,95s-27.15,6.61-34.42,17.76c-6.81,10.47-7.08,24.89-7.08,24.89s-8,8.5-4.81,22.44C59.42,175.86,81.75,179.32,102.07,179.32Z"/><path class="cls-6" d="M102.07,175.07c25.31,0,32.06-9.47,33.16-16.84a25,25,0,0,0-2.11-13.62c.51-6.93-1.67-17.79-6.68-23.68-5.79-6.81-14.55-11.48-24.37-6.81-9.83-4.67-18.58,0-24.37,6.81-5,5.89-7.19,16.75-6.69,23.68a25,25,0,0,0-2.1,13.62C70,165.6,76.76,175.07,102.07,175.07Z"/><path class="cls-7" d="M94.87,141.16a2.63,2.63,0,1,1-2.63-2.62A2.63,2.63,0,0,1,94.87,141.16Z"/><polyline class="cls-8" points="112.61 139.34 109.98 141.09 112.61 142.99"/><path class="cls-9" d="M102.07,160.93c7.15,0,6-10.37,6-10.37h-12S94.92,160.93,102.07,160.93Z"/><line class="cls-10" x1="110.37" y1="128.16" x2="113.42" y2="127.86"/><line class="cls-10" x1="93.77" y1="128.16" x2="90.72" y2="127.86"/><g class="cls-11"><path class="cls-12" d="M94,157.94a15,15,0,1,1-15-15A15,15,0,0,1,94,157.94Z"/><path class="cls-12" d="M110.11,157.94a15,15,0,1,0,15-15A15,15,0,0,0,110.11,157.94Z"/></g><path class="cls-7" d="M115.21,122.22a43.38,43.38,0,0,1,16.23,8.67,28.3,28.3,0,0,0-14.14-16.76c-4-2-13.85-.66-15.23-.66s-10.72-1.48-14.57.34a28.3,28.3,0,0,0-14.8,17.08,43.39,43.39,0,0,1,16.22-8.67l2.93-4.12-.09,3.38a46,46,0,0,1,20.62,0l-.09-3.38Z"/><path class="cls-13" d="M102.07,175.07c25.31,0,32.06-9.47,33.16-16.84a25,25,0,0,0-2.11-13.62c.51-6.93-1.67-17.79-6.68-23.68-5.79-6.81-14.55-11.48-24.37-6.81-9.83-4.67-18.58,0-24.37,6.81-5,5.89-7.19,16.75-6.69,23.68a25,25,0,0,0-2.1,13.62C70,165.6,76.76,175.07,102.07,175.07Z"/><path class="cls-14" d="M96.72,94.53c13.1,3.33,15.5-7.91,15.5-7.91a39,39,0,0,1-25.33-6.45S83.62,91.19,96.72,94.53Z"/><path class="cls-14" d="M101.51,100.34c13.28-2.52,10.71-13.72,10.71-13.72a39.08,39.08,0,0,1-25.68,4.86S88.23,102.85,101.51,100.34Z"/><path class="cls-14" d="M120.16,85,110,80.21a2.2,2.2,0,0,0-1.88,4l3,1.4-3,6a39.77,39.77,0,0,1-5.21,4.47A37.25,37.25,0,0,1,91,101.87s6.34,9.59,17.31,1.7c6.86-4.92,6.67-10.31,5.57-13.66l1.21-2.43L118.27,89a2.2,2.2,0,0,0,1.89-4Z"/><text class="cls-15" transform="translate(46.95 62.64)">ENFP</text><path class="cls-16" d="M30.87,214.08a1.59,1.59,0,0,1-.15.88c-.1.12-.35.18-.75.2l-2.75.08v5.27a3.34,3.34,0,0,0,.11.87,4,4,0,0,0,.32.8l3.43,5.89a.84.84,0,0,1,.16.66,1.14,1.14,0,0,1-.46.5l-2.24,1.56c-.25.18-.45.25-.6.19a.91.91,0,0,1-.45-.43l-2.57-4.32-2.56,4.86a.76.76,0,0,1-.43.41.93.93,0,0,1-.62-.17L19.07,230c-.27-.16-.43-.32-.46-.48a1.07,1.07,0,0,1,.16-.68l3.43-6.7a4,4,0,0,0,.32-.8,3.34,3.34,0,0,0,.11-.87v-5.16l-2.81.08c-.38,0-.62,0-.73-.17a1.75,1.75,0,0,1-.16-.91v-1.94a1.57,1.57,0,0,1,.16-.88,1.06,1.06,0,0,1,.73-.2L30,211.06c.4,0,.65,0,.75.17a1.78,1.78,0,0,1,.15.91Zm1.24-1.27a1.43,1.43,0,0,1,.23-1,1,1,0,0,1,.79-.25h2.54a1,1,0,0,1,.81.25,1.57,1.57,0,0,1,.22,1v5.91l1.56,0v-6.16a1.49,1.49,0,0,1,.23-1,1.05,1.05,0,0,1,.8-.25h2.54a1,1,0,0,1,.81.25,1.58,1.58,0,0,1,.21,1v16.63a1.58,1.58,0,0,1-.21,1,1,1,0,0,1-.81.26H39.29a1.05,1.05,0,0,1-.8-.26,1.49,1.49,0,0,1-.23-1V222.8l-1.56,0v6.61a1.57,1.57,0,0,1-.22,1,1,1,0,0,1-.81.26H33.13a1,1,0,0,1-.79-.26,1.43,1.43,0,0,1-.23-1Z"/><path class="cls-16" d="M59.62,215.16a1.59,1.59,0,0,1-.15.88,1.16,1.16,0,0,1-.74.2l-4,.08V220a5.11,5.11,0,0,0,.08.9,1.74,1.74,0,0,0,.35.77L60,228.07c.2.27.26.48.19.64a1.37,1.37,0,0,1-.49.52l-2.24,1.56c-.25.18-.45.24-.61.18a1,1,0,0,1-.44-.42l-3.92-5.13-3.91,5.67a1,1,0,0,1-.45.42q-.23.09-.6-.18l-2.25-1.56a1.29,1.29,0,0,1-.47-.52c-.06-.16,0-.37.18-.64l4.78-7a2.41,2.41,0,0,0,.33-.78,3.57,3.57,0,0,0,.1-.89v-3.54l-4,.08c-.38,0-.62,0-.73-.18a1.56,1.56,0,0,1-.17-.9v-1.94a1.46,1.46,0,0,1,.17-.88,1.06,1.06,0,0,1,.73-.2l4-.08v-1.52a1.51,1.51,0,0,1,.23-1,1,1,0,0,1,.8-.25h2.53a1,1,0,0,1,.8.25,1.51,1.51,0,0,1,.23,1v1.41l4-.08c.39,0,.64,0,.74.17a1.78,1.78,0,0,1,.15.91Zm2.11-2.35a1.5,1.5,0,0,1,.22-1,1.05,1.05,0,0,1,.8-.25h2.54a1,1,0,0,1,.81.25,1.57,1.57,0,0,1,.22,1v16.63a1.57,1.57,0,0,1-.22,1,1,1,0,0,1-.81.26H62.75a1.05,1.05,0,0,1-.8-.26,1.5,1.5,0,0,1-.22-1Z"/><path class="cls-16" d="M76.74,224.83a9.24,9.24,0,0,1-3.38-.58,7.21,7.21,0,0,1-2.44-1.56,6.32,6.32,0,0,1-1.49-2.27,7.81,7.81,0,0,1,0-5.5,6.4,6.4,0,0,1,1.49-2.27,7,7,0,0,1,2.44-1.55,10.11,10.11,0,0,1,6.75,0,7.18,7.18,0,0,1,2.45,1.55A6.38,6.38,0,0,1,84,214.92a7.81,7.81,0,0,1,0,5.5,6.29,6.29,0,0,1-1.48,2.27,7.35,7.35,0,0,1-2.45,1.56A9.22,9.22,0,0,1,76.74,224.83Zm6.75,2.26a1.42,1.42,0,0,1,.23-1,1,1,0,0,1,.79-.26h2.6a1,1,0,0,1,.8.26,1.49,1.49,0,0,1,.22,1v2.19a1.88,1.88,0,0,0,.23,1.08,2.28,2.28,0,0,0,.69.57l2.16,1.19a.71.71,0,0,1,.27,1.1l-1.24,2.22a1,1,0,0,1-.49.47,1,1,0,0,1-.76-.2l-3.18-1.87c-1.3.72-2.28,1.25-3,1.58a4.38,4.38,0,0,1-1.23.5,5.66,5.66,0,0,1-1.24-.36,23.54,23.54,0,0,1-2.94-1.45L74.25,236a.74.74,0,0,1-1.24-.27l-1.24-2.22a.71.71,0,0,1,.27-1.1l2.16-1.19a2.56,2.56,0,0,0,.69-.57,1.88,1.88,0,0,0,.23-1.08v-2.19a1.42,1.42,0,0,1,.23-1,1,1,0,0,1,.79-.26h2.6a1,1,0,0,1,.8.26,1.49,1.49,0,0,1,.22,1V229a4.14,4.14,0,0,0,.1,1,1,1,0,0,0,.55.66l1.21.62,1.22-.62a1,1,0,0,0,.55-.66,4.72,4.72,0,0,0,.1-1Zm-6.75-6.37a4.07,4.07,0,0,0,1.52-.25,2.89,2.89,0,0,0,1-.68,2.8,2.8,0,0,0,.61-1,3.43,3.43,0,0,0,.2-1.15,3.32,3.32,0,0,0-.2-1.13,2.9,2.9,0,0,0-.61-1,2.79,2.79,0,0,0-1-.69,4.6,4.6,0,0,0-3.05,0,2.85,2.85,0,0,0-1.65,1.66,3.32,3.32,0,0,0-.2,1.13,3.43,3.43,0,0,0,.2,1.15,2.8,2.8,0,0,0,.61,1,3,3,0,0,0,1,.68A4.09,4.09,0,0,0,76.74,220.72Zm9.83-8.45a1.5,1.5,0,0,1,.22-1,1.05,1.05,0,0,1,.8-.25h2.54a1,1,0,0,1,.81.25,1.57,1.57,0,0,1,.22,1v11a1.57,1.57,0,0,1-.22,1,1,1,0,0,1-.81.26H87.59a1.05,1.05,0,0,1-.8-.26,1.5,1.5,0,0,1-.22-1Z"/><path class="cls-16" d="M111.65,222.56a1.13,1.13,0,0,1,.69.16.79.79,0,0,1,.2.62v2.54a.78.78,0,0,1-.2.62,1.13,1.13,0,0,1-.69.16l-16.53.27a1.08,1.08,0,0,1-.68-.16.74.74,0,0,1-.21-.62v-2.54a.74.74,0,0,1,.21-.62,1.08,1.08,0,0,1,.68-.16Zm-12.48-5.08,12.13-.27c.37,0,.62.06.73.22a1.73,1.73,0,0,1,.16.86v1.89a1.64,1.64,0,0,1-.16.85c-.11.16-.36.23-.73.23l-15.69.27a.91.91,0,0,1-.78-.29,1.68,1.68,0,0,1-.25-.92L94.34,212a1.4,1.4,0,0,1,.2-1,1.1,1.1,0,0,1,.83-.25H98a1,1,0,0,1,.79.25,1.71,1.71,0,0,1,.23,1ZM95.72,235.9a1,1,0,0,1-.81-.26,1.5,1.5,0,0,1-.22-1v-5.26a1.49,1.49,0,0,1,.23-1,1,1,0,0,1,.8-.26h2.54a1,1,0,0,1,.81.26,1.58,1.58,0,0,1,.21,1v2.32l12-.19a.88.88,0,0,1,.66.2,1.22,1.22,0,0,1,.17.74v2.22a1.2,1.2,0,0,1-.17.74.94.94,0,0,1-.72.2Z"/><path class="cls-16" d="M137.24,222.69a1.16,1.16,0,0,1,.69.16.77.77,0,0,1,.2.63V226c0,.31-.06.52-.2.62a1.09,1.09,0,0,1-.69.17l-7.12.16v2.75a1.58,1.58,0,0,1-.21,1,1,1,0,0,1-.82.26h-2.54a1,1,0,0,1-.82-.26,1.59,1.59,0,0,1-.2-1V227l-1.62,0a1.16,1.16,0,0,1-.69-.16.77.77,0,0,1-.21-.63v-2.53a.73.73,0,0,1,.21-.62,1.09,1.09,0,0,1,.69-.17Zm-7-.83a9.49,9.49,0,0,1-2.92-.42,6.3,6.3,0,0,1-2.2-1.2,5.36,5.36,0,0,1-1.39-1.88,6.35,6.35,0,0,1,0-4.89,5.24,5.24,0,0,1,1.39-1.87,6.16,6.16,0,0,1,2.2-1.21,9.81,9.81,0,0,1,2.92-.41,8,8,0,0,1,4.56,1.2,5.27,5.27,0,0,1,2.27,3.25l2.46-.05v-2.11a1.5,1.5,0,0,1,.22-1,1.05,1.05,0,0,1,.8-.25h2.54a1,1,0,0,1,.81.25,1.58,1.58,0,0,1,.21,1v14.2a1.58,1.58,0,0,1-.21,1,1,1,0,0,1-.81.26h-2.54a1.05,1.05,0,0,1-.8-.26,1.5,1.5,0,0,1-.22-1v-8l-2.87.05a5.4,5.4,0,0,1-2.4,2.42A8.53,8.53,0,0,1,130.2,221.86Zm0-3.7a2.74,2.74,0,0,0,1.9-.61,2.36,2.36,0,0,0,0-3.27,3.28,3.28,0,0,0-3.81,0,2.36,2.36,0,0,0,0,3.27A2.75,2.75,0,0,0,130.2,218.16Zm2,17.74a1,1,0,0,1-.81-.25,1.64,1.64,0,0,1-.21-1v-5.13a1.43,1.43,0,0,1,.23-1,1,1,0,0,1,.79-.25h2.54a1,1,0,0,1,.81.25,1.57,1.57,0,0,1,.22,1v2.19l7.42-.22a.77.77,0,0,1,.66.19,1.21,1.21,0,0,1,.18.76v2.21a1.09,1.09,0,0,1-.18.73,1,1,0,0,1-.71.22Z"/><path class="cls-16" d="M156.31,217.21l-7.16,3.24a.66.66,0,0,1-.61.07,1.29,1.29,0,0,1-.39-.47l-1.21-2.3c-.26-.47-.16-.8.29-1l6.13-2.78a1.75,1.75,0,0,0,.52-.31.79.79,0,0,0,.13-.53v-1.67a1.09,1.09,0,0,1,.19-.77,1.14,1.14,0,0,1,.76-.17h2.7a1.23,1.23,0,0,1,.77.16,1.2,1.2,0,0,1,.17.78v1.67a.76.76,0,0,0,.15.54,1.26,1.26,0,0,0,.5.3l6.13,2.51c.47.2.57.53.29,1l-1.21,2.3a1.11,1.11,0,0,1-.41.46.71.71,0,0,1-.59-.06Zm8.26,4a1.13,1.13,0,0,1,.69.16.79.79,0,0,1,.2.62v2.27a.78.78,0,0,1-.2.62,1.13,1.13,0,0,1-.69.16l-6,.11v1.13a6,6,0,0,1,3.65,1.84,4.78,4.78,0,0,1,1.16,3.16,4.91,4.91,0,0,1-.42,2,4.5,4.5,0,0,1-1.28,1.65,6.36,6.36,0,0,1-2.21,1.11,12.92,12.92,0,0,1-6.38,0,6.28,6.28,0,0,1-2.21-1.11,4.43,4.43,0,0,1-1.29-1.65,4.91,4.91,0,0,1-.42-2,4.74,4.74,0,0,1,1.17-3.16,6,6,0,0,1,3.64-1.84v-1.05l-6,.08a1.08,1.08,0,0,1-.68-.16.74.74,0,0,1-.21-.62v-2.27a.76.76,0,0,1,.21-.62,1.08,1.08,0,0,1,.68-.16Zm-8.26,12a3,3,0,0,0,2-.55,1.78,1.78,0,0,0,0-2.68,4,4,0,0,0-4.07,0,1.78,1.78,0,0,0,0,2.68A3,3,0,0,0,156.31,233.17Z"/><path class="cls-16" d="M176.37,228.07a9.64,9.64,0,0,1-3.37-.56,7.46,7.46,0,0,1-2.55-1.55,6.61,6.61,0,0,1-1.6-2.42,9.25,9.25,0,0,1,0-6.34,6.65,6.65,0,0,1,1.6-2.43A7.35,7.35,0,0,1,173,213.2a10.57,10.57,0,0,1,6.73,0,7.17,7.17,0,0,1,2.55,1.57,6.82,6.82,0,0,1,1.62,2.43,9.1,9.1,0,0,1,0,6.34,6.78,6.78,0,0,1-1.62,2.42,7.27,7.27,0,0,1-2.55,1.55A9.63,9.63,0,0,1,176.37,228.07Zm0-4.11a3.57,3.57,0,0,0,2.68-1,3.51,3.51,0,0,0,1-2.59,3.57,3.57,0,0,0-1-2.62,3.61,3.61,0,0,0-2.68-1,3.54,3.54,0,0,0-2.76,1,3.82,3.82,0,0,0-.89,2.62,3.42,3.42,0,0,0,3.65,3.59Zm10.09-11.15a1.49,1.49,0,0,1,.23-1,1.05,1.05,0,0,1,.8-.25H190a1,1,0,0,1,.81.25,1.58,1.58,0,0,1,.21,1v16.63a1.58,1.58,0,0,1-.21,1,1,1,0,0,1-.81.26h-2.54a1.05,1.05,0,0,1-.8-.26,1.49,1.49,0,0,1-.23-1Z"/></g></g></svg>