<svg xmlns="http://www.w3.org/2000/svg" xmlns:xlink="http://www.w3.org/1999/xlink" viewBox="0 0 210.28 252.57"><defs><style>.cls-1,.cls-10,.cls-13{fill:none;}.cls-2{fill:#c18872;}.cls-3,.cls-4{fill:#fff;}.cls-4{font-size:47px;font-family:CookieRun-Black, CookieRun;font-weight:800;}.cls-4,.cls-6{stroke:#473222;}.cls-13,.cls-4,.cls-8{stroke-miterlimit:10;}.cls-10,.cls-13,.cls-14,.cls-4,.cls-6,.cls-7,.cls-8{stroke-width:2px;}.cls-5{font-size:25.07px;fill:#473222;font-family:CookieRun-Bold, CookieRun;font-weight:700;}.cls-6{fill:#b7805a;}.cls-10,.cls-14,.cls-6,.cls-7{stroke-linecap:round;stroke-linejoin:round;}.cls-7{fill:#eab473;stroke:#493016;}.cls-15,.cls-8{fill:#fdfaf6;}.cls-13,.cls-8{stroke:#7f4236;}.cls-9{fill:#050001;}.cls-10{stroke:#050001;}.cls-11{clip-path:url(#clip-path);}.cls-12{fill:#ffd6bb;}.cls-14{fill:#9d4a36;stroke:#9d4a36;}.cls-16{fill:#493016;}</style><clipPath id="clip-path"><path class="cls-1" d="M105.14,167.67c22,0,27.84-8.23,28.79-14.63a21.59,21.59,0,0,0-1.83-11.82c.44-6-1.45-15.46-5.8-20.57-5-5.91-12.53-8.8-21.16-8.8S89,114.74,84,120.65c-4.35,5.11-6.25,14.55-5.81,20.57A21.63,21.63,0,0,0,76.35,153C77.29,159.44,83.16,167.67,105.14,167.67Z"/></clipPath></defs><g id="레이어_2" data-name="레이어 2"><g id="레이어_1-2" data-name="레이어 1"><path class="cls-2" d="M210.28,105.14A105.14,105.14,0,0,0,0,105.14c0,1,0,2.06.06,3.08,0,.26,0,.51,0,.77V243a9.59,9.59,0,0,0,9.59,9.59H200.68a9.59,9.59,0,0,0,9.59-9.59V109c0-.26,0-.52-.05-.77C210.25,107.19,210.28,106.17,210.28,105.14Z"/><path class="cls-3" d="M195.65,192.15h-181A8.88,8.88,0,0,0,5.74,201v37.3a8.89,8.89,0,0,0,8.89,8.89h181a8.89,8.89,0,0,0,8.89-8.89V201A8.88,8.88,0,0,0,195.65,192.15ZM15.8,206.43a5,5,0,1,1,5-5A5,5,0,0,1,15.8,206.43Zm179.42,0a5,5,0,1,1,5-5A5,5,0,0,1,195.22,206.43Z"/><text class="cls-4" transform="translate(46.01 67.64)">ENTJ</text><text class="cls-5" transform="translate(34.18 230.2)">위풍당당 사자</text><path class="cls-6" d="M102.65,87.48s-1.57-3-9.09-1.83c-5.27.85-7.15-2.07-7.15-2.07s-1.11,5.6,1.24,6.58c0,0-5.3-2.22-11.5,1.75A26.26,26.26,0,0,1,81,93.7a26.84,26.84,0,0,0-6.81,1.46,6.63,6.63,0,0,1-5.94,0,5.78,5.78,0,0,0,3.71,4.51s-6.2,1-8.91,11.42c0,0-3.83,5-6.92,6a14.88,14.88,0,0,0,5.44,1.21s-5.19,4-5.69,7.93c0,0,2.72-2,4.33-1.46,0,0-1,6.22-8.23,6.82a4.42,4.42,0,0,0,4.27,3.49,7.93,7.93,0,0,0-.65,7.61c1.89,4.15-1.45,6.58-2.56,6.22a3.77,3.77,0,0,0,4.82,1,12.93,12.93,0,0,0,.7,11.22,7.82,7.82,0,0,1,1.82-2.93,18,18,0,0,0,8.57,11.55s3.39,3.25,1.49,4.71c0,0,2.88-.32,3.13-2.44,0,0,2,4.47,6.22,5.29a10.22,10.22,0,0,1-.52-3.44s7.58,5,15.09,5.15,7.27,4.61,7.27,4.61,3.76-1.25,4.29-4.37c-.33,1.87,2.72,3.57,2.72,3.57s-.16-3.65,7.34-3.81S131,173.86,131,173.86a10.22,10.22,0,0,1-.52,3.44c4.17-.82,6.22-5.29,6.22-5.29.24,2.12,3.13,2.44,3.13,2.44-1.9-1.46,1.49-4.71,1.49-4.71a18,18,0,0,0,8.57-11.55,7.82,7.82,0,0,1,1.82,2.93,12.93,12.93,0,0,0,.7-11.22,3.78,3.78,0,0,0,4.82-1c-1.11.36-4.45-2.07-2.56-6.22a7.93,7.93,0,0,0-.65-7.61,4.43,4.43,0,0,0,4.27-3.49c-7.24-.6-8.23-6.82-8.23-6.82,1.61-.49,4.33,1.46,4.33,1.46-.5-3.9-5.69-7.93-5.69-7.93a14.88,14.88,0,0,0,5.44-1.21c-3.09-1-6.92-6-6.92-6-2.71-10.39-8.92-11.42-8.92-11.42a5.78,5.78,0,0,0,3.72-4.51,6.63,6.63,0,0,1-5.94,0,26.84,26.84,0,0,0-6.81-1.46,26.26,26.26,0,0,1,4.82-1.79c-6.2-4-11.5-1.75-11.5-1.75,2.35-1,2.85-4.51,2.85-4.51s-1.73,3.18-6.68,1.22C112,84.19,107.54,86,107.54,86c.25-.79,1.11-3.23,1.11-3.23A9,9,0,0,0,102.65,87.48Z"/><path class="cls-7" d="M141.18,135.19s-.24-12.52-6.15-21.61a34.72,34.72,0,0,0-8-8.78c.47-1,3.53-7.77-3-10.48-5.88-2.45-8.63,3-9.36,4.83a45.72,45.72,0,0,0-19,0c-.73-1.82-3.48-7.28-9.36-4.83-6.51,2.71-3.45,9.51-3,10.48a34.72,34.72,0,0,0-8,8.78c-5.91,9.09-6.15,21.61-6.15,21.61s-7,7.39-4.17,19.49C68.1,168.4,87.5,171.4,105.14,171.4s37-3,40.21-16.72C148.15,142.58,141.18,135.19,141.18,135.19Z"/><path class="cls-8" d="M105.14,167.67c22,0,27.84-8.23,28.79-14.63a21.59,21.59,0,0,0-1.83-11.82c.44-6-1.45-15.46-5.8-20.57-5-5.91-12.53-8.8-21.16-8.8S89,114.74,84,120.65c-4.35,5.11-6.25,14.55-5.81,20.57A21.63,21.63,0,0,0,76.35,153C77.29,159.44,83.16,167.67,105.14,167.67Z"/><path class="cls-9" d="M116.55,121.77a37.62,37.62,0,0,1,14.09,7.53s-4.42-17.45-25.5-17.45-25.5,17.45-25.5,17.45a37.62,37.62,0,0,1,14.09-7.53l2.54-3.58-.09,2.94a39.86,39.86,0,0,1,17.92,0l-.09-2.94Z"/><path class="cls-9" d="M98.89,138.22a2.28,2.28,0,1,1-2.28-2.28A2.28,2.28,0,0,1,98.89,138.22Z"/><path class="cls-9" d="M111.39,138.22a2.28,2.28,0,1,0,2.28-2.28A2.28,2.28,0,0,0,111.39,138.22Z"/><line class="cls-10" x1="112.35" y1="126.93" x2="115" y2="126.67"/><line class="cls-10" x1="97.93" y1="126.93" x2="95.28" y2="126.67"/><g class="cls-11"><circle class="cls-12" cx="85.12" cy="152.79" r="13.03"/><circle class="cls-12" cx="125.16" cy="152.79" r="13.03"/></g><path class="cls-13" d="M105.14,167.67c22,0,27.84-8.23,28.79-14.63a21.59,21.59,0,0,0-1.83-11.82c.44-6-1.45-15.46-5.8-20.57-5-5.91-12.53-8.8-21.16-8.8S89,114.74,84,120.65c-4.35,5.11-6.25,14.55-5.81,20.57A21.63,21.63,0,0,0,76.35,153C77.29,159.44,83.16,167.67,105.14,167.67Z"/><path class="cls-14" d="M105.14,155.39c7.19,0,6-9,6-9h-12S98,155.39,105.14,155.39Z"/><polygon class="cls-15" points="108.56 147.68 109.39 146.39 108.56 146.38 107.73 146.38 108.56 147.68"/><polygon class="cls-15" points="101.72 147.68 102.54 146.39 101.72 146.38 100.89 146.38 101.72 147.68"/><path class="cls-16" d="M120.68,101.32l2.68,1.12s1.75-3.29-1.25-4.54-4.1,2.31-4.1,2.31Z"/><path class="cls-16" d="M89.6,101.32l-2.68,1.12s-1.75-3.29,1.25-4.54,4.1,2.31,4.1,2.31Z"/><path class="cls-6" d="M98.26,95.73s-1.36,3.84,1.36,6.19a14.57,14.57,0,0,1,2.31-3.09s0,4,5.32,5.56c0,0,2.43-5,4.78-7.38"/></g></g></svg>