<svg xmlns="http://www.w3.org/2000/svg" xmlns:xlink="http://www.w3.org/1999/xlink" viewBox="0 0 210.28 252.57"><defs><style>.cls-1,.cls-12,.cls-15,.cls-16{fill:none;}.cls-2{fill:#ff6e6e;}.cls-3,.cls-4{fill:#fff;}.cls-4{font-size:47px;font-family:CookieRun-Black, CookieRun;font-weight:800;}.cls-4,.cls-9{stroke:#681f1f;}.cls-10,.cls-15,.cls-4{stroke-miterlimit:10;}.cls-10,.cls-12,.cls-15,.cls-16,.cls-4,.cls-6,.cls-7,.cls-8,.cls-9{stroke-width:2px;}.cls-5{font-size:25.07px;fill:#681f1f;font-family:CookieRun-Bold, CookieRun;font-weight:700;}.cls-6{fill:#ffd252;stroke:#3f270e;}.cls-12,.cls-16,.cls-6,.cls-7,.cls-8,.cls-9{stroke-linecap:round;stroke-linejoin:round;}.cls-7{fill:#7de862;stroke:#294222;}.cls-8{fill:#79c9e8;stroke:#223942;}.cls-9{fill:#ff4343;}.cls-10{fill:#fdfaf6;stroke:#7f4236;}.cls-11{fill:#050001;}.cls-12{stroke:#050001;}.cls-13{clip-path:url(#clip-path);}.cls-14{fill:#ffd6bb;}.cls-15{stroke:#6b342d;}.cls-16{stroke:#9d4a36;}</style><clipPath id="clip-path"><path class="cls-1" d="M98.47,176c26.59,0,33.68-9.95,34.83-17.7a26.27,26.27,0,0,0-2.21-14.3c.53-7.28-1.76-18.69-7-24.88-6.09-7.15-15.17-10.64-25.6-10.64S79,111.92,72.87,119.07c-5.27,6.19-7.56,17.6-7,24.88a26.17,26.17,0,0,0-2.21,14.3C64.78,166,71.88,176,98.47,176Z"/></clipPath></defs><g id="레이어_2" data-name="레이어 2"><g id="레이어_1-2" data-name="레이어 1"><path class="cls-2" d="M210.28,105.14A105.14,105.14,0,0,0,0,105.14c0,1,0,2.06.06,3.08,0,.26,0,.51,0,.77V243a9.59,9.59,0,0,0,9.59,9.59H200.68a9.59,9.59,0,0,0,9.59-9.59V109c0-.26,0-.52-.05-.77C210.25,107.19,210.28,106.17,210.28,105.14Z"/><path class="cls-3" d="M195.65,192.15h-181A8.88,8.88,0,0,0,5.74,201v37.3a8.89,8.89,0,0,0,8.89,8.89h181a8.89,8.89,0,0,0,8.89-8.89V201A8.88,8.88,0,0,0,195.65,192.15ZM15.8,206.43a5,5,0,1,1,5-5A5,5,0,0,1,15.8,206.43Zm179.42,0a5,5,0,1,1,5-5A5,5,0,0,1,195.22,206.43Z"/><text class="cls-4" transform="translate(44.98 67.64)">ENTP</text><text class="cls-5" transform="translate(21.65 230.2)">앞서가는 앵무새</text><path class="cls-6" d="M161.26,129.74c-.12,11.63-17.42,29-21.36,32.84-.63-1.78-1.73-5.09-2.74-9.24C140,149.08,161.38,117.49,161.26,129.74Z"/><path class="cls-7" d="M156.3,116.85c3.08,11-14.28,34.79-18.22,40a90.07,90.07,0,0,1-2.57-12.12C138,139.05,153.55,107,156.3,116.85Z"/><path class="cls-8" d="M146.18,111.73c6.77,2.62-5.93,31.35-9.58,39.17a65.64,65.64,0,0,1-1.6-17.13C137.75,126,143.16,110.56,146.18,111.73Z"/><path class="cls-9" d="M142.06,136.66s-.28-15.15-7.44-26.14c-6.57-10.08-15.91-16.61-29.31-18.25-1.19-2.64-3.33-2.49-4.49-5a3.9,3.9,0,0,0-1.14,1.94S97.49,88.53,95,85c0,0-3.18,3.61-.54,7-14.92,1-25.1,7.74-32.12,18.51-7.16,11-7.44,26.14-7.44,26.14s-8.43,8.94-5,23.58c3.84,16.59,27.3,20.23,48.65,20.23s44.8-3.64,48.64-20.23C150.49,145.6,142.06,136.66,142.06,136.66Z"/><path class="cls-10" d="M98.47,176c26.59,0,33.68-9.95,34.83-17.7a26.27,26.27,0,0,0-2.21-14.3c.53-7.28-1.76-18.69-7-24.88-6.09-7.15-15.17-10.64-25.6-10.64S79,111.92,72.87,119.07c-5.27,6.19-7.56,17.6-7,24.88a26.17,26.17,0,0,0-2.21,14.3C64.78,166,71.88,176,98.47,176Z"/><path class="cls-11" d="M112.27,120.43a45.39,45.39,0,0,1,17,9.11S124,108.43,98.47,108.43s-30.85,21.11-30.85,21.11a45.39,45.39,0,0,1,17-9.11l3.07-4.33-.1,3.55a48.34,48.34,0,0,1,21.67,0l-.1-3.55Z"/><path class="cls-11" d="M90.9,140.33a2.76,2.76,0,1,1-2.76-2.76A2.76,2.76,0,0,1,90.9,140.33Z"/><path class="cls-11" d="M106,140.33a2.76,2.76,0,1,0,2.76-2.76A2.77,2.77,0,0,0,106,140.33Z"/><path class="cls-12" d="M107.17,126.1a3,3,0,0,1,3.17.48"/><path class="cls-12" d="M89.76,126.1a3,3,0,0,0-3.17.48"/><g class="cls-13"><circle class="cls-14" cx="74.25" cy="157.96" r="15.77"/><circle class="cls-14" cx="122.68" cy="157.96" r="15.77"/></g><path class="cls-15" d="M98.47,176c26.59,0,33.68-9.95,34.83-17.7a26.27,26.27,0,0,0-2.21-14.3c.53-7.28-1.76-18.69-7-24.88-6.09-7.15-15.17-10.64-25.6-10.64S79,111.92,72.87,119.07c-5.27,6.19-7.56,17.6-7,24.88a26.17,26.17,0,0,0-2.21,14.3C64.78,166,71.88,176,98.47,176Z"/><path class="cls-16" d="M102.9,152.64a6.7,6.7,0,0,1-4.43-1.74A6.74,6.74,0,0,1,94,152.64"/><path class="cls-6" d="M98.46,120.68s-8.72-10.48-8.72-12.19.23-7.79,8.73-7.79,8.72,6.08,8.72,7.79S98.46,120.68,98.46,120.68Z"/></g></g></svg>