<svg xmlns="http://www.w3.org/2000/svg" xmlns:xlink="http://www.w3.org/1999/xlink" viewBox="0 0 210.28 252.57"><defs><style>.cls-1,.cls-10,.cls-12,.cls-15,.cls-16{fill:none;}.cls-2{fill:#e274b0;}.cls-3,.cls-4{fill:#fff;}.cls-4{font-size:47px;font-family:CookieRun-Black, CookieRun;font-weight:800;}.cls-16,.cls-4,.cls-7{stroke:#662e49;}.cls-15,.cls-4,.cls-8{stroke-miterlimit:10;}.cls-10,.cls-11,.cls-12,.cls-15,.cls-16,.cls-4,.cls-7,.cls-8{stroke-width:2px;}.cls-5{letter-spacing:-0.04em;}.cls-6{font-size:27px;fill:#662e49;font-family:CookieRun-Bold, CookieRun;font-weight:700;}.cls-7{fill:#f9bbd8;}.cls-10,.cls-11,.cls-12,.cls-16,.cls-7{stroke-linecap:round;stroke-linejoin:round;}.cls-8{fill:#fdfaf6;}.cls-15,.cls-8{stroke:#7f4236;}.cls-9{fill:#050001;}.cls-10{stroke:#030000;}.cls-11{fill:#9d4a36;stroke:#9d4a36;}.cls-12{stroke:#050001;}.cls-13{clip-path:url(#clip-path);}.cls-14{fill:#ffd6bb;}</style><clipPath id="clip-path"><path class="cls-1" d="M105.73,173.92c23.7,0,30-8.87,31.05-15.78a23.34,23.34,0,0,0-2-12.74c.47-6.5-1.57-16.67-6.26-22.19-5.43-6.37-13.52-9.49-22.82-9.49s-17.4,3.12-22.82,9.49c-4.7,5.52-6.74,15.69-6.26,22.19a23.34,23.34,0,0,0-2,12.74C75.7,165.05,82,173.92,105.73,173.92Z"/></clipPath></defs><g id="레이어_2" data-name="레이어 2"><g id="레이어_1-2" data-name="레이어 1"><path class="cls-2" d="M210.28,105.14A105.14,105.14,0,0,0,0,105.14c0,1,0,2.06.06,3.08,0,.26,0,.51,0,.77V243a9.59,9.59,0,0,0,9.59,9.59H200.68a9.59,9.59,0,0,0,9.59-9.59V109c0-.26,0-.52-.05-.77C210.25,107.19,210.28,106.17,210.28,105.14Z"/><path class="cls-3" d="M195.65,192.15h-181A8.88,8.88,0,0,0,5.74,201v37.3a8.89,8.89,0,0,0,8.89,8.89h181a8.89,8.89,0,0,0,8.89-8.89V201A8.88,8.88,0,0,0,195.65,192.15ZM15.8,206.43a5,5,0,1,1,5-5A5,5,0,0,1,15.8,206.43Zm179.42,0a5,5,0,1,1,5-5A5,5,0,0,1,195.22,206.43Z"/><text class="cls-4" transform="translate(50.34 64.73)">ES<tspan class="cls-5" x="53.11" y="0">F</tspan><tspan x="77.08" y="0">J</tspan></text><text class="cls-6" transform="translate(30.49 231.7)">명랑한 코끼리</text><path class="cls-7" d="M95.88,132A27.2,27.2,0,0,1,62,150.17h0a27.2,27.2,0,0,1-18.16-33.91l3-9.93A27.2,27.2,0,0,1,80.73,88.17h0a27.2,27.2,0,0,1,18.16,33.91Z"/><path class="cls-7" d="M115.57,132a27.2,27.2,0,0,0,33.91,18.16h0a27.2,27.2,0,0,0,18.16-33.91l-3-9.93a27.2,27.2,0,0,0-33.91-18.16h0a27.2,27.2,0,0,0-18.16,33.91Z"/><path class="cls-7" d="M105.73,178c19,0,39.94-3.24,43.36-18,3-13-4.5-21-4.5-21s-.25-13.51-6.63-23.31C131.16,105.14,121,99,105.73,99S80.3,105.14,73.5,115.59c-6.38,9.8-6.64,23.31-6.64,23.31s-7.51,8-4.49,21C65.79,174.71,86.7,178,105.73,178Z"/><path class="cls-8" d="M105.73,173.92c23.7,0,30-8.87,31.05-15.78a23.34,23.34,0,0,0-2-12.74c.47-6.5-1.57-16.67-6.26-22.19-5.43-6.37-13.52-9.49-22.82-9.49s-17.4,3.12-22.82,9.49c-4.7,5.52-6.74,15.69-6.26,22.19a23.34,23.34,0,0,0-2,12.74C75.7,165.05,82,173.92,105.73,173.92Z"/><path class="cls-9" d="M118,124.42a40.5,40.5,0,0,1,15.19,8.12s-4.77-18.82-27.5-18.82-27.5,18.82-27.5,18.82a40.4,40.4,0,0,1,15.19-8.12l2.74-3.85-.09,3.16a43.35,43.35,0,0,1,19.32,0l-.1-3.16Z"/><polyline class="cls-10" points="95.86 140.46 98.32 142.09 95.86 143.87"/><polyline class="cls-10" points="115.59 140.46 113.14 142.09 115.59 143.87"/><path class="cls-11" d="M105.73,160.68c6.7,0,5.6-9.71,5.6-9.71h-11.2S99,160.68,105.73,160.68Z"/><line class="cls-12" x1="113.78" y1="129.84" x2="116.08" y2="129.85"/><line class="cls-12" x1="97.68" y1="129.84" x2="95.37" y2="129.85"/><g class="cls-13"><path class="cls-14" d="M98.2,157.88a14.06,14.06,0,1,1-14.06-14.06A14.06,14.06,0,0,1,98.2,157.88Z"/><circle class="cls-14" cx="127.32" cy="157.88" r="14.06"/></g><path class="cls-15" d="M105.73,173.92c23.7,0,30-8.87,31.05-15.78a23.34,23.34,0,0,0-2-12.74c.47-6.5-1.57-16.67-6.26-22.19-5.43-6.37-13.52-9.49-22.82-9.49s-17.4,3.12-22.82,9.49c-4.7,5.52-6.74,15.69-6.26,22.19a23.34,23.34,0,0,0-2,12.74C75.7,165.05,82,173.92,105.73,173.92Z"/><path class="cls-7" d="M105.29,147c-4.3,0-7.34,2.46-7.34,6.69s-.08,24.7,18.69,28.77c5.54,1.2,8.14,0,9.08-2.6s.69-6.19-4.74-8c-4.8-1.6-8.51-9.4-8.15-17.92C113.13,146.83,105.29,147,105.29,147Z"/><path class="cls-16" d="M111.39,149.34s13.84-3.47,23.42-3.94"/><path class="cls-16" d="M99.51,149.21s-13.28-3.34-22.86-3.81"/><path class="cls-16" d="M103.34,153.86a19,19,0,0,1,9.49,0"/><path class="cls-16" d="M104.41,160.44a21.39,21.39,0,0,1,5.6-.62"/><path class="cls-16" d="M106.1,166.4A23.55,23.55,0,0,1,111,165"/><path class="cls-16" d="M108.57,170.94a12.4,12.4,0,0,1,4.26-1.91"/><path class="cls-16" d="M115.57,172.38a8.93,8.93,0,0,0-3,2.57"/></g></g></svg>