<svg xmlns="http://www.w3.org/2000/svg" xmlns:xlink="http://www.w3.org/1999/xlink" viewBox="0 0 210.28 252.57"><defs><style>.cls-1,.cls-10,.cls-12,.cls-15,.cls-16{fill:none;}.cls-2{fill:#8fddef;}.cls-3,.cls-4{fill:#fff;}.cls-4{font-size:47px;stroke:#1b344c;font-family:CookieRun-Black, CookieRun;font-weight:800;}.cls-15,.cls-4,.cls-8{stroke-miterlimit:10;}.cls-10,.cls-11,.cls-12,.cls-15,.cls-16,.cls-4,.cls-6,.cls-8{stroke-width:2px;}.cls-5{font-size:27px;fill:#1b344c;font-family:CookieRun-Bold, CookieRun;font-weight:700;}.cls-6{fill:#c5eaff;}.cls-16,.cls-6{stroke:#274263;}.cls-10,.cls-11,.cls-12,.cls-16,.cls-6{stroke-linecap:round;stroke-linejoin:round;}.cls-7{clip-path:url(#clip-path);}.cls-8{fill:#fdfaf6;}.cls-15,.cls-8{stroke:#7f4236;}.cls-9{fill:#050001;}.cls-10{stroke:#030000;}.cls-11{fill:#9d4a36;stroke:#9d4a36;}.cls-12{stroke:#050001;}.cls-13{clip-path:url(#clip-path-2);}.cls-14{fill:#ffd6bb;}</style><clipPath id="clip-path"><path class="cls-1" d="M138.05,137.33s-.27-14.55-7.14-25.1C123.58,101,112.66,94.3,96.19,94.3c-.73,0-1.43,0-2.13.06-2.55-1.57-5.4-3.25-8.49-5-10.09-5.56-15.23-6.37-19-3.58s-3.27,9,.85,19.12a42.59,42.59,0,0,0-6,7.29c-6.87,10.55-7.14,25.1-7.14,25.1s-8.09,8.58-4.84,22.63c3.68,15.94,26.21,19.43,46.7,19.43s43-3.49,46.71-19.43C146.15,145.91,138.05,137.33,138.05,137.33Z"/></clipPath><clipPath id="clip-path-2"><path class="cls-1" d="M96.19,175.05c25.54,0,32.35-9.55,33.45-17a25.15,25.15,0,0,0-2.12-13.73c.51-7-1.69-18-6.74-23.9-5.85-6.86-14.56-10.22-24.59-10.22s-18.74,3.36-24.58,10.22c-5,5.94-7.25,16.91-6.74,23.9a25.15,25.15,0,0,0-2.12,13.73C63.85,165.5,70.66,175.05,96.19,175.05Z"/></clipPath></defs><g id="레이어_2" data-name="레이어 2"><g id="레이어_1-2" data-name="레이어 1"><path class="cls-2" d="M210.28,105.14A105.14,105.14,0,0,0,0,105.14c0,1,0,2.06.06,3.08,0,.26,0,.51,0,.77V243a9.59,9.59,0,0,0,9.59,9.59H200.68a9.59,9.59,0,0,0,9.59-9.59V109c0-.26,0-.52-.05-.77C210.25,107.19,210.28,106.17,210.28,105.14Z"/><path class="cls-3" d="M195.65,192.15h-181A8.88,8.88,0,0,0,5.74,201v37.3a8.89,8.89,0,0,0,8.89,8.89h181a8.89,8.89,0,0,0,8.89-8.89V201A8.88,8.88,0,0,0,195.65,192.15ZM15.8,206.43a5,5,0,1,1,5-5A5,5,0,0,1,15.8,206.43Zm179.42,0a5,5,0,1,1,5-5A5,5,0,0,1,195.22,206.43Z"/><text class="cls-4" transform="translate(50.34 64.73)">ESFP</text><text class="cls-5" transform="translate(30.49 231.7)">쾌활한 돌고래</text><path class="cls-6" d="M59,126.11s-7.69-6.36-5.69-10.62,11.81-2.38,11.81-2.38"/><path class="cls-6" d="M143.27,156.5s3.26,1.84,5.64,1.57c0,0,2-7.6,7.33-7.74,4.42-.11.25,5.79.94,8.59.78,3.17,4.63,5.28,4.37,7.43-.27,2.32-7.27,2.43-10.26-1.64,0,0-6.06,5.63-14.35,5.08"/><path class="cls-6" d="M138.05,137.33s-.27-14.55-7.14-25.1C123.58,101,112.66,94.3,96.19,94.3c-.73,0-1.43,0-2.13.06-2.55-1.57-5.4-3.25-8.49-5-10.09-5.56-15.23-6.37-19-3.58s-3.27,9,.85,19.12a42.59,42.59,0,0,0-6,7.29c-6.87,10.55-7.14,25.1-7.14,25.1s-8.09,8.58-4.84,22.63c3.68,15.94,26.21,19.43,46.7,19.43s43-3.49,46.71-19.43C146.15,145.91,138.05,137.33,138.05,137.33Z"/><g class="cls-7"><path class="cls-3" d="M100.44,105.62c-1.79-.22-19.56-12.48-28.11-8-7,3.68-1,15.46-1,15.46s-12.16,10.53-6.46,30.65h0l62.68.56S137.22,110.21,100.44,105.62Z"/></g><path class="cls-8" d="M96.19,175.05c25.54,0,32.35-9.55,33.45-17a25.15,25.15,0,0,0-2.12-13.73c.51-7-1.69-18-6.74-23.9-5.85-6.86-14.56-10.22-24.59-10.22s-18.74,3.36-24.58,10.22c-5,5.94-7.25,16.91-6.74,23.9a25.15,25.15,0,0,0-2.12,13.73C63.85,165.5,70.66,175.05,96.19,175.05Z"/><path class="cls-9" d="M109.45,121.74a43.57,43.57,0,0,1,16.36,8.74s-5.13-20.27-29.62-20.27-29.62,20.27-29.62,20.27a43.68,43.68,0,0,1,16.36-8.74l3-4.16-.1,3.41a46.46,46.46,0,0,1,20.81,0l-.1-3.41Z"/><polyline class="cls-10" points="85.56 139.01 88.21 140.77 85.56 142.69"/><polyline class="cls-10" points="106.82 139.01 104.18 140.77 106.82 142.69"/><path class="cls-11" d="M96.19,160.79c7.22,0,6-10.46,6-10.46H90.16S89,160.79,96.19,160.79Z"/><line class="cls-12" x1="104.86" y1="127.58" x2="107.35" y2="127.59"/><line class="cls-12" x1="87.52" y1="127.58" x2="85.04" y2="127.59"/><g class="cls-13"><path class="cls-14" d="M88.08,157.77a15.15,15.15,0,1,1-15.14-15.14A15.14,15.14,0,0,1,88.08,157.77Z"/><path class="cls-14" d="M104.31,157.77a15.14,15.14,0,1,0,15.14-15.14A15.14,15.14,0,0,0,104.31,157.77Z"/></g><path class="cls-15" d="M96.19,175.05c25.54,0,32.35-9.55,33.45-17a25.15,25.15,0,0,0-2.12-13.73c.51-7-1.69-18-6.74-23.9-5.85-6.86-14.56-10.22-24.59-10.22s-18.74,3.36-24.58,10.22c-5,5.94-7.25,16.91-6.74,23.9a25.15,25.15,0,0,0-2.12,13.73C63.85,165.5,70.66,175.05,96.19,175.05Z"/><path class="cls-16" d="M106.1,102.39a197.54,197.54,0,0,0-20.53-13c-10.09-5.56-15.23-6.37-19-3.58-4.2,3.1-1.54,14.07,4.35,26.88"/><path class="cls-16" d="M138.05,137.33s-.27-14.55-7.14-25.1C123.58,101,112.66,94.3,96.19,94.3c-.73,0-1.43,0-2.13.06-2.55-1.57-5.4-3.25-8.49-5-10.09-5.56-15.23-6.37-19-3.58s-3.27,9,.85,19.12a42.59,42.59,0,0,0-6,7.29c-6.87,10.55-7.14,25.1-7.14,25.1s-8.09,8.58-4.84,22.63c3.68,15.94,26.21,19.43,46.7,19.43s43-3.49,46.71-19.43C146.15,145.91,138.05,137.33,138.05,137.33Z"/><path class="cls-6" d="M133.35,126.11s7.69-6.36,5.69-10.62-11.81-2.38-11.81-2.38"/></g></g></svg>