<svg xmlns="http://www.w3.org/2000/svg" xmlns:xlink="http://www.w3.org/1999/xlink" viewBox="0 0 210.28 252.57"><defs><style>.cls-1,.cls-10,.cls-13{fill:none;}.cls-2{fill:#d87d50;}.cls-3,.cls-4{fill:#fff;}.cls-4{font-size:47px;font-family:CookieRun-Black, CookieRun;font-weight:800;}.cls-4,.cls-6{stroke:#3a2619;}.cls-13,.cls-4,.cls-8{stroke-miterlimit:10;}.cls-10,.cls-13,.cls-14,.cls-4,.cls-6,.cls-8{stroke-width:2px;}.cls-5{font-size:31.16px;font-family:CookieRun-Bold, CookieRun;font-weight:700;}.cls-5,.cls-7{fill:#3a2619;}.cls-6{fill:#e8a77c;}.cls-10,.cls-14,.cls-6{stroke-linecap:round;stroke-linejoin:round;}.cls-8{fill:#fdfaf6;}.cls-13,.cls-8{stroke:#7f4236;}.cls-9{fill:#050001;}.cls-10{stroke:#050001;}.cls-11{clip-path:url(#clip-path);}.cls-12{fill:#ffd6bb;}.cls-14{fill:#9d4a36;stroke:#9d4a36;}</style><clipPath id="clip-path"><path class="cls-1" d="M105.14,174.67c27,0,34.24-10.11,35.4-18a26.69,26.69,0,0,0-2.25-14.54c.54-7.39-1.78-19-7.13-25.29C125,109.6,115.75,106,105.14,106s-19.84,3.56-26,10.82c-5.35,6.29-7.68,17.9-7.13,25.29a26.69,26.69,0,0,0-2.25,14.54C70.91,164.56,78.12,174.67,105.14,174.67Z"/></clipPath></defs><g id="레이어_2" data-name="레이어 2"><g id="레이어_1-2" data-name="레이어 1"><path class="cls-2" d="M210.28,105.14A105.14,105.14,0,0,0,0,105.14c0,1,0,2.06.06,3.08,0,.26,0,.51,0,.77V243a9.59,9.59,0,0,0,9.59,9.59H200.68a9.59,9.59,0,0,0,9.59-9.59V109c0-.26,0-.52-.05-.77C210.25,107.19,210.28,106.17,210.28,105.14Z"/><path class="cls-3" d="M195.65,192.15h-181A8.88,8.88,0,0,0,5.74,201v37.3a8.89,8.89,0,0,0,8.89,8.89h181a8.89,8.89,0,0,0,8.89-8.89V201A8.88,8.88,0,0,0,195.65,192.15ZM15.8,206.43a5,5,0,1,1,5-5A5,5,0,0,1,15.8,206.43Zm179.42,0a5,5,0,1,1,5-5A5,5,0,0,1,195.22,206.43Z"/><text class="cls-4" transform="translate(48.83 64.73)">ESTJ</text><text class="cls-5" transform="translate(45.01 231.69)">씩씩한 곰</text><path class="cls-6" d="M149.45,134.74s-.25-13-5.94-23.79a14.53,14.53,0,0,0-21.87-19.13,49.25,49.25,0,0,0-16.5-2.61,49.25,49.25,0,0,0-16.5,2.61A14.53,14.53,0,0,0,66.77,111c-5.69,10.78-5.94,23.79-5.94,23.79s-8.57,9.08-5.13,24c3.91,16.87,27.75,20.57,49.44,20.57s45.53-3.7,49.44-20.57C158,143.82,149.45,134.74,149.45,134.74Z"/><path class="cls-7" d="M83.66,96.05a8.06,8.06,0,0,0-12.19,10.56Z"/><path class="cls-7" d="M126.62,96.05a8.06,8.06,0,0,1,12.19,10.56Z"/><path class="cls-8" d="M105.14,174.67c27,0,34.24-10.11,35.4-18a26.69,26.69,0,0,0-2.25-14.54c.54-7.39-1.78-19-7.13-25.29C125,109.6,115.75,106,105.14,106s-19.84,3.56-26,10.82c-5.35,6.29-7.68,17.9-7.13,25.29a26.69,26.69,0,0,0-2.25,14.54C70.91,164.56,78.12,174.67,105.14,174.67Z"/><path class="cls-9" d="M119.17,118.25a46.24,46.24,0,0,1,17.32,9.25S131.06,106,105.14,106,73.79,127.5,73.79,127.5a46.13,46.13,0,0,1,17.32-9.25l3.12-4.4-.1,3.6a49.5,49.5,0,0,1,22,0l-.1-3.6Z"/><path class="cls-9" d="M97.45,138.47a2.81,2.81,0,1,1-2.8-2.8A2.8,2.8,0,0,1,97.45,138.47Z"/><path class="cls-9" d="M112.83,138.47a2.81,2.81,0,1,0,2.8-2.8A2.8,2.8,0,0,0,112.83,138.47Z"/><line class="cls-10" x1="114" y1="124.59" x2="117.26" y2="124.27"/><line class="cls-10" x1="96.28" y1="124.59" x2="93.02" y2="124.27"/><g class="cls-11"><path class="cls-12" d="M96.55,156.39a16,16,0,1,1-16-16A16,16,0,0,1,96.55,156.39Z"/><path class="cls-12" d="M113.73,156.39a16,16,0,1,0,16-16A16,16,0,0,0,113.73,156.39Z"/></g><path class="cls-13" d="M105.14,174.67c27,0,34.24-10.11,35.4-18a26.69,26.69,0,0,0-2.25-14.54c.54-7.39-1.78-19-7.13-25.29C125,109.6,115.75,106,105.14,106s-19.84,3.56-26,10.82c-5.35,6.29-7.68,17.9-7.13,25.29a26.69,26.69,0,0,0-2.25,14.54C70.91,164.56,78.12,174.67,105.14,174.67Z"/><path class="cls-14" d="M109.69,150.77l-4.55-1.09-4.55,1.09s0,7.12,4.55,7.12S109.69,150.77,109.69,150.77Z"/></g></g></svg>