<svg xmlns="http://www.w3.org/2000/svg" xmlns:xlink="http://www.w3.org/1999/xlink" viewBox="0 0 210.28 252.57"><defs><style>.cls-1,.cls-15,.cls-18,.cls-19{fill:none;}.cls-2{fill:#ffbc80;}.cls-3,.cls-4,.cls-8{fill:#fff;}.cls-4{font-size:47px;stroke:#6b431e;font-family:CookieRun-Black, CookieRun;font-weight:800;}.cls-12,.cls-18,.cls-4{stroke-miterlimit:10;}.cls-12,.cls-14,.cls-15,.cls-18,.cls-19,.cls-4,.cls-6,.cls-7,.cls-8{stroke-width:2px;}.cls-5{font-size:27px;fill:#6b431e;font-family:CookieRun-Bold, CookieRun;font-weight:700;}.cls-10,.cls-6{fill:#2f2f2f;}.cls-6,.cls-7,.cls-8{stroke:#2f2f2f;}.cls-14,.cls-15,.cls-19,.cls-6,.cls-7,.cls-8{stroke-linecap:round;stroke-linejoin:round;}.cls-7{fill:#7f7f7f;}.cls-9{clip-path:url(#clip-path);}.cls-11{fill:#ffc5bb;}.cls-12{fill:#fdfaf6;}.cls-12,.cls-18{stroke:#7f4236;}.cls-13{fill:#050001;}.cls-14{fill:#9d4a36;stroke:#9d4a36;}.cls-15{stroke:#050001;}.cls-16{clip-path:url(#clip-path-2);}.cls-17{fill:#ffd6bb;}.cls-19{stroke:#030000;}</style><clipPath id="clip-path"><path class="cls-1" d="M148.64,137.65s-.28-15.12-7.43-26.08a40.78,40.78,0,0,0-11.52-11.9c2.57-2.27,10.09-10.06,1.7-17.51-10.81-1-11.72,9-11.69,12.8a49.6,49.6,0,0,0-14.56-2,49.6,49.6,0,0,0-14.56,2c0-3.76-.88-13.85-11.69-12.8-8.38,7.45-.88,15.24,1.7,17.51a40.82,40.82,0,0,0-11.53,11.9c-7.14,11-7.42,26.08-7.42,26.08s-8.41,8.91-5,23.52c3.83,16.56,27.23,20.19,48.53,20.19s44.7-3.63,48.53-20.19C157.05,146.56,148.64,137.65,148.64,137.65Z"/></clipPath><clipPath id="clip-path-2"><path class="cls-1" d="M105.14,176.85c26.53,0,33.61-9.93,34.75-17.66a26,26,0,0,0-2.2-14.26c.53-7.27-1.75-18.66-7-24.83-6.07-7.14-15.13-10.63-25.54-10.63S85.67,113,79.6,120.1c-5.26,6.17-7.54,17.56-7,24.83a26.15,26.15,0,0,0-2.2,14.26C71.53,166.92,78.61,176.85,105.14,176.85Z"/></clipPath></defs><g id="레이어_2" data-name="레이어 2"><g id="레이어_1-2" data-name="레이어 1"><path class="cls-2" d="M210.28,105.14A105.14,105.14,0,0,0,0,105.14c0,1,0,2.06.06,3.08,0,.26,0,.51,0,.77V243a9.59,9.59,0,0,0,9.59,9.59H200.68a9.59,9.59,0,0,0,9.59-9.59V109c0-.26,0-.52-.05-.77C210.25,107.19,210.28,106.17,210.28,105.14Z"/><path class="cls-3" d="M195.65,192.15h-181A8.88,8.88,0,0,0,5.74,201v37.3a8.89,8.89,0,0,0,8.89,8.89h181a8.89,8.89,0,0,0,8.89-8.89V201A8.88,8.88,0,0,0,195.65,192.15ZM15.8,206.43a5,5,0,1,1,5-5A5,5,0,0,1,15.8,206.43Zm179.42,0a5,5,0,1,1,5-5A5,5,0,0,1,195.22,206.43Z"/><text class="cls-4" transform="translate(47.8 64.73)">ESTP</text><text class="cls-5" transform="translate(33.32 231.7)">유쾌한 얼룩말</text><path class="cls-6" d="M93.24,83.25c1.68,3.51,3.87,10.26,3.87,10.26h5.24l-1.58-11.3A17.62,17.62,0,0,0,93.24,83.25Z"/><path class="cls-7" d="M105.14,80.41c-1.56,0-3,1.56-4.37,1.8l1.58,11.3h5.59L109.51,82C108.17,81.76,106.7,80.41,105.14,80.41Z"/><path class="cls-6" d="M117,83.25A15.57,15.57,0,0,0,109.51,82l-1.57,11.52h5.23S115.36,86.76,117,83.25Z"/><path class="cls-8" d="M148.64,137.65s-.28-15.12-7.43-26.08a40.78,40.78,0,0,0-11.52-11.9c2.57-2.27,10.09-10.06,1.7-17.51-10.81-1-11.72,9-11.69,12.8a49.6,49.6,0,0,0-14.56-2,49.6,49.6,0,0,0-14.56,2c0-3.76-.88-13.85-11.69-12.8-8.38,7.45-.88,15.24,1.7,17.51a40.82,40.82,0,0,0-11.53,11.9c-7.14,11-7.42,26.08-7.42,26.08s-8.41,8.91-5,23.52c3.83,16.56,27.23,20.19,48.53,20.19s44.7-3.63,48.53-20.19C157.05,146.56,148.64,137.65,148.64,137.65Z"/><g class="cls-9"><path class="cls-10" d="M106.72,101.61c0,1.63,0,3-1.58,3h0c-1.63,0-1.57-1.32-1.57-3l-1.38-16.67a3,3,0,0,1,3-3h0a3,3,0,0,1,3,3Z"/><path class="cls-10" d="M113,102.77c-.33,1.6-.54,2.91-2.14,2.58h0c-1.6-.33-1.28-1.61-1-3.21l2-16.61a2.94,2.94,0,0,1,3.48-2.3h0a3,3,0,0,1,2.31,3.48Z"/><path class="cls-10" d="M141,125.79c-1.58.8-2.84,1.5-3.63-.08h0c-.79-1.58.51-2.17,2.09-3l15.48-9.45a3.21,3.21,0,0,1,4.3,1.42h0a3.21,3.21,0,0,1-1.43,4.3Z"/><path class="cls-10" d="M135.88,120.27c-1.37,1.13-2.43,2.09-3.56.73h0c-1.13-1.36,0-2.23,1.38-3.36l13-12.68a3.21,3.21,0,0,1,4.51.43h0a3.2,3.2,0,0,1-.42,4.51Z"/><path class="cls-10" d="M139.28,133.55c-1.71.46-3.08.9-3.54-.81h0c-.46-1.71.94-2,2.65-2.48l17.06-6.15a3.2,3.2,0,0,1,3.92,2.26h0a3.2,3.2,0,0,1-2.26,3.92Z"/><path class="cls-10" d="M145.23,139.55c-1.76.14-3.19.33-3.33-1.44h0c-.15-1.76,1.28-1.82,3-2l17.88-3a3.2,3.2,0,0,1,3.45,2.93h0a3.2,3.2,0,0,1-2.92,3.46Z"/><path class="cls-10" d="M142.1,147.07c-1.76-.23-3.19-.35-3-2.1h0c.22-1.76,1.64-1.51,3.39-1.29l18.12.82a3.19,3.19,0,0,1,2.76,3.58h0a3.19,3.19,0,0,1-3.58,2.77Z"/><path class="cls-10" d="M145.89,156.28c-1.68-.55-3.07-.93-2.52-2.61h0c.54-1.69,1.89-1.19,3.57-.64l17.66,4.13a3.2,3.2,0,0,1,2.06,4h0a3.2,3.2,0,0,1-4,2.06Z"/><path class="cls-10" d="M140.73,163.13c-1.54-.87-2.82-1.52-1.94-3.06h0c.87-1.54,2.08-.78,3.63.09l16.46,7.59a3.2,3.2,0,0,1,1.21,4.36h0a3.2,3.2,0,0,1-4.36,1.22Z"/><path class="cls-10" d="M69.55,163.13c1.54-.87,2.82-1.52,1.94-3.06h0c-.87-1.54-2.08-.78-3.62.09L51.4,167.75a3.2,3.2,0,0,0-1.21,4.36h0a3.2,3.2,0,0,0,4.36,1.22Z"/><path class="cls-10" d="M68.81,125.79c1.58.8,2.84,1.5,3.63-.08h0c.8-1.58-.51-2.17-2.09-3l-15.47-9.45a3.2,3.2,0,0,0-4.3,1.42h0A3.2,3.2,0,0,0,52,119Z"/><path class="cls-10" d="M73.94,120.27c1.36,1.13,2.42,2.09,3.55.73h0c1.13-1.36,0-2.23-1.38-3.36L63.15,105a3.21,3.21,0,0,0-4.51.43h0a3.2,3.2,0,0,0,.42,4.51Z"/><path class="cls-10" d="M70.53,133.55c1.71.46,3.08.9,3.54-.81h0c.46-1.71-.94-2-2.65-2.48l-17.05-6.15a3.21,3.21,0,0,0-3.93,2.26h0a3.2,3.2,0,0,0,2.26,3.92Z"/><path class="cls-10" d="M64.58,139.55c1.76.14,3.19.33,3.34-1.44h0c.14-1.76-1.29-1.82-3-2l-17.89-3a3.2,3.2,0,0,0-3.45,2.93h0a3.2,3.2,0,0,0,2.92,3.46Z"/><path class="cls-10" d="M67.71,147.07c1.76-.23,3.19-.35,3-2.1h0c-.22-1.76-1.63-1.51-3.39-1.29l-18.11.82a3.19,3.19,0,0,0-2.77,3.58h0A3.19,3.19,0,0,0,50,150.85Z"/><path class="cls-10" d="M63.92,156.28c1.69-.55,3.07-.93,2.52-2.61h0c-.54-1.69-1.88-1.19-3.57-.64l-17.65,4.13a3.19,3.19,0,0,0-2.06,4h0a3.19,3.19,0,0,0,4,2.06Z"/><path class="cls-10" d="M97.3,102.77c.33,1.6.54,2.91,2.14,2.58h0c1.59-.33,1.27-1.61,1-3.21l-2-16.61a3,3,0,0,0-3.48-2.3h0a3,3,0,0,0-2.31,3.48Z"/></g><path class="cls-11" d="M124.33,98.33l2,.89s6.45-8.49,2.11-10.38-6.18,8.6-6.18,8.6Z"/><path class="cls-11" d="M86,98.33l-2,.89s-6.45-8.49-2.11-10.38S88,97.44,88,97.44Z"/><path class="cls-12" d="M105.14,176.85c26.53,0,33.61-9.93,34.75-17.66a26,26,0,0,0-2.2-14.26c.53-7.27-1.75-18.66-7-24.83-6.07-7.14-15.13-10.63-25.54-10.63S85.67,113,79.6,120.1c-5.26,6.17-7.54,17.56-7,24.83a26.15,26.15,0,0,0-2.2,14.26C71.53,166.92,78.61,176.85,105.14,176.85Z"/><path class="cls-13" d="M118.92,121.45a45.28,45.28,0,0,1,17,9.09s-5.33-21.07-30.78-21.07-30.78,21.07-30.78,21.07a45.28,45.28,0,0,1,17-9.09l3.07-4.32-.1,3.54a48.5,48.5,0,0,1,21.62,0l-.1-3.54Z"/><path class="cls-14" d="M105.14,162c7.5,0,6.27-10.87,6.27-10.87H98.87S97.64,162,105.14,162Z"/><line class="cls-15" x1="113.84" y1="127.68" x2="117.04" y2="127.37"/><line class="cls-15" x1="96.44" y1="127.68" x2="93.24" y2="127.37"/><g class="cls-16"><circle class="cls-17" cx="80.98" cy="158.9" r="15.73"/><circle class="cls-17" cx="129.31" cy="158.9" r="15.73"/></g><path class="cls-18" d="M105.14,176.85c26.53,0,33.61-9.93,34.75-17.66a26,26,0,0,0-2.2-14.26c.53-7.27-1.75-18.66-7-24.83-6.07-7.14-15.13-10.63-25.54-10.63S85.67,113,79.6,120.1c-5.26,6.17-7.54,17.56-7,24.83a26.15,26.15,0,0,0-2.2,14.26C71.53,166.92,78.61,176.85,105.14,176.85Z"/><polyline class="cls-19" points="94.09 139.4 96.84 141.22 94.09 143.22"/><polyline class="cls-19" points="116.18 139.4 113.44 141.22 116.18 143.22"/></g></g></svg>