<svg xmlns="http://www.w3.org/2000/svg" xmlns:xlink="http://www.w3.org/1999/xlink" viewBox="0 0 210.28 252.57"><defs><style>.cls-1,.cls-13,.cls-16,.cls-17{fill:none;}.cls-2{fill:#ffde8a;}.cls-3,.cls-4{fill:#fff;}.cls-4{font-size:47px;font-family:CookieRun-Black, CookieRun;font-weight:800;}.cls-4,.cls-8,.cls-9{stroke:#603e16;}.cls-11,.cls-16,.cls-4{stroke-miterlimit:10;}.cls-11,.cls-13,.cls-16,.cls-17,.cls-4,.cls-8,.cls-9{stroke-width:2px;}.cls-5{letter-spacing:-0.04em;}.cls-6{letter-spacing:0em;}.cls-7{font-size:29.13px;font-family:CookieRun-Bold, CookieRun;font-weight:700;}.cls-7,.cls-9{fill:#603e16;}.cls-8{fill:#ffd252;}.cls-13,.cls-17,.cls-8,.cls-9{stroke-linecap:round;stroke-linejoin:round;}.cls-10{clip-path:url(#clip-path);}.cls-11{fill:#fdfaf6;}.cls-11,.cls-16{stroke:#7f4236;}.cls-12{fill:#050001;}.cls-13{stroke:#050001;}.cls-14{clip-path:url(#clip-path-2);}.cls-15{fill:#ffd6bb;}.cls-17{stroke:#9d4a36;}</style><clipPath id="clip-path"><path class="cls-1" d="M105.14,182.48c21.71,0,45.56-3.7,49.47-20.58,3.44-14.89-5.13-24-5.13-24s-.29-15.4-7.57-26.58c-7.76-11.92-19.32-19-36.77-19s-29,7.06-36.77,19c-7.28,11.18-7.57,26.58-7.57,26.58s-8.57,9.09-5.13,24C59.58,178.78,83.43,182.48,105.14,182.48Z"/></clipPath><clipPath id="clip-path-2"><path class="cls-1" d="M105.14,177.88c27,0,34.26-10.12,35.42-18a26.65,26.65,0,0,0-2.24-14.55c.54-7.4-1.79-19-7.14-25.31-6.19-7.27-15.43-10.82-26-10.82s-19.85,3.55-26,10.82c-5.35,6.29-7.68,17.91-7.14,25.31a26.65,26.65,0,0,0-2.24,14.55C70.88,167.76,78.1,177.88,105.14,177.88Z"/></clipPath></defs><g id="레이어_2" data-name="레이어 2"><g id="레이어_1-2" data-name="레이어 1"><path class="cls-2" d="M210.28,105.14A105.14,105.14,0,0,0,0,105.14c0,1,0,2.06.06,3.08,0,.26,0,.51,0,.77V243a9.59,9.59,0,0,0,9.59,9.59H200.68a9.59,9.59,0,0,0,9.59-9.59V109c0-.26,0-.52-.05-.77C210.25,107.19,210.28,106.17,210.28,105.14Z"/><path class="cls-3" d="M195.65,192.15h-181A8.88,8.88,0,0,0,5.74,201v37.3a8.89,8.89,0,0,0,8.89,8.89h181a8.89,8.89,0,0,0,8.89-8.89V201A8.88,8.88,0,0,0,195.65,192.15ZM15.8,206.43a5,5,0,1,1,5-5A5,5,0,0,1,15.8,206.43Zm179.42,0a5,5,0,1,1,5-5A5,5,0,0,1,195.22,206.43Z"/><text class="cls-4" transform="translate(55.18 64.73)">IN<tspan class="cls-5" x="46.06" y="0">F</tspan><tspan class="cls-6" x="70.03" y="0">J</tspan></text><text class="cls-7" transform="translate(36.39 232.21)">섬세한 기린</text><path class="cls-8" d="M75.21,90.23c6.07,4.2,5.28,12.24,5.28,12.24s-7.25,3.58-13.32-.62-5.28-12.24-5.28-12.24S69.13,86,75.21,90.23Z"/><path class="cls-8" d="M135.07,90.23c-6.07,4.2-5.28,12.24-5.28,12.24s7.24,3.58,13.32-.62,5.28-12.24,5.28-12.24S141.14,86,135.07,90.23Z"/><rect class="cls-8" x="111.63" y="83.83" width="4.7" height="14.51"/><path class="cls-9" d="M118.89,81.43A4.91,4.91,0,1,1,114,76.52,4.91,4.91,0,0,1,118.89,81.43Z"/><rect class="cls-8" x="93.95" y="83.83" width="4.7" height="14.51"/><path class="cls-9" d="M91.39,81.43a4.91,4.91,0,1,0,4.91-4.91A4.91,4.91,0,0,0,91.39,81.43Z"/><path class="cls-8" d="M105.14,182.48c21.71,0,45.56-3.7,49.47-20.58,3.44-14.89-5.13-24-5.13-24s-.29-15.4-7.57-26.58c-7.76-11.92-19.32-19-36.77-19s-29,7.06-36.77,19c-7.28,11.18-7.57,26.58-7.57,26.58s-8.57,9.09-5.13,24C59.58,178.78,83.43,182.48,105.14,182.48Z"/><g class="cls-10"><path class="cls-9" d="M71.12,124.17A8.14,8.14,0,1,1,63,116,8.13,8.13,0,0,1,71.12,124.17Z"/><circle class="cls-9" cx="84.88" cy="97.35" r="8.13"/><path class="cls-9" d="M153.69,116.76a8.13,8.13,0,1,1-8.13-8.13A8.13,8.13,0,0,1,153.69,116.76Z"/><path class="cls-9" d="M162,152.59a8.13,8.13,0,1,1-8.13-8.13A8.13,8.13,0,0,1,162,152.59Z"/><path class="cls-9" d="M93,182.48a8.13,8.13,0,1,1-8.13-8.13A8.13,8.13,0,0,1,93,182.48Z"/><path class="cls-9" d="M139.09,177.88a8.13,8.13,0,1,1-8.13-8.13A8.13,8.13,0,0,1,139.09,177.88Z"/><path class="cls-9" d="M76.18,155.07a8.14,8.14,0,1,1-8.13-8.13A8.13,8.13,0,0,1,76.18,155.07Z"/><path class="cls-9" d="M122.94,110a8.13,8.13,0,1,1-8.13-8.13A8.13,8.13,0,0,1,122.94,110Z"/></g><path class="cls-11" d="M105.14,177.88c27,0,34.26-10.12,35.42-18a26.65,26.65,0,0,0-2.24-14.55c.54-7.4-1.79-19-7.14-25.31-6.19-7.27-15.43-10.82-26-10.82s-19.85,3.55-26,10.82c-5.35,6.29-7.68,17.91-7.14,25.31a26.65,26.65,0,0,0-2.24,14.55C70.88,167.76,78.1,177.88,105.14,177.88Z"/><path class="cls-12" d="M119.18,121.42a46.16,46.16,0,0,1,17.33,9.26s-5.43-21.47-31.37-21.47-31.37,21.47-31.37,21.47a46.16,46.16,0,0,1,17.33-9.26l3.13-4.4-.11,3.6a49.59,49.59,0,0,1,22,0l-.11-3.6Z"/><path class="cls-12" d="M97.45,141.65a2.81,2.81,0,1,1-2.81-2.8A2.81,2.81,0,0,1,97.45,141.65Z"/><circle class="cls-12" cx="115.64" cy="141.65" r="2.81"/><path class="cls-13" d="M114,127.41a4.66,4.66,0,0,1,3.24.39"/><path class="cls-13" d="M96.28,127.41a4.66,4.66,0,0,0-3.24.39"/><g class="cls-14"><circle class="cls-15" cx="80.51" cy="159.58" r="16.04" transform="translate(-93.24 201.5) rotate(-76.79)"/><circle class="cls-15" cx="129.77" cy="159.58" r="16.04" transform="translate(-28.09 27.73) rotate(-11.01)"/></g><path class="cls-16" d="M105.14,177.88c27,0,34.26-10.12,35.42-18a26.65,26.65,0,0,0-2.24-14.55c.54-7.4-1.79-19-7.14-25.31-6.19-7.27-15.43-10.82-26-10.82s-19.85,3.55-26,10.82c-5.35,6.29-7.68,17.91-7.14,25.31a26.65,26.65,0,0,0-2.24,14.55C70.88,167.76,78.1,177.88,105.14,177.88Z"/><path class="cls-17" d="M100.86,154.07a5.57,5.57,0,0,0,8.55,0"/></g></g></svg>