<svg xmlns="http://www.w3.org/2000/svg" xmlns:xlink="http://www.w3.org/1999/xlink" viewBox="0 0 210.28 252.57"><defs><style>.cls-1,.cls-11,.cls-12,.cls-13,.cls-14,.cls-15{fill:none;}.cls-2{fill:#e58888;}.cls-3,.cls-4{fill:#fff;}.cls-4{font-size:47px;stroke:#4f2c25;font-family:CookieRun-Black, CookieRun;font-weight:800;}.cls-11,.cls-4,.cls-7{stroke-miterlimit:10;}.cls-11,.cls-12,.cls-13,.cls-14,.cls-15,.cls-4,.cls-6,.cls-7{stroke-width:2px;}.cls-5{font-size:29.86px;fill:#4f2c25;font-family:CookieRun-Bold, CookieRun;font-weight:700;}.cls-6{fill:#ffc9c0;}.cls-15,.cls-6{stroke:#73473b;}.cls-12,.cls-13,.cls-14,.cls-15,.cls-6{stroke-linecap:round;stroke-linejoin:round;}.cls-7{fill:#fdfaf6;}.cls-11,.cls-7{stroke:#7f4236;}.cls-8{fill:#050001;}.cls-9{clip-path:url(#clip-path);}.cls-10{fill:#ffd6bb;}.cls-12{stroke:#030000;}.cls-13{stroke:#9d4a36;}.cls-14{stroke:#050001;}</style><clipPath id="clip-path"><path class="cls-1" d="M103.49,179.54c24.11,0,30.54-9,31.58-16a23.76,23.76,0,0,0-2-13c.48-6.6-1.6-17-6.37-22.56-5.52-6.49-13.75-9.66-23.21-9.66s-17.7,3.17-23.22,9.66c-4.77,5.6-6.85,16-6.37,22.56a23.76,23.76,0,0,0-2,13C72.94,170.52,79.37,179.54,103.49,179.54Z"/></clipPath></defs><g id="레이어_2" data-name="레이어 2"><g id="레이어_1-2" data-name="레이어 1"><path class="cls-2" d="M210.28,105.14A105.14,105.14,0,0,0,0,105.14c0,1,0,2.06.06,3.08,0,.26,0,.51,0,.77V243a9.59,9.59,0,0,0,9.59,9.59H200.68a9.59,9.59,0,0,0,9.59-9.59V109c0-.26,0-.52-.05-.77C210.25,107.19,210.28,106.17,210.28,105.14Z"/><path class="cls-3" d="M195.65,192.15h-181A8.88,8.88,0,0,0,5.74,201v37.3a8.89,8.89,0,0,0,8.89,8.89h181a8.89,8.89,0,0,0,8.89-8.89V201A8.88,8.88,0,0,0,195.65,192.15ZM15.8,206.43a5,5,0,1,1,5-5A5,5,0,0,1,15.8,206.43Zm179.42,0a5,5,0,1,1,5-5A5,5,0,0,1,195.22,206.43Z"/><text class="cls-4" transform="translate(55.25 64.73)">INFP</text><text class="cls-5" transform="translate(33.92 232.38)">상냥한 토끼</text><path class="cls-6" d="M143,143.91s-.26-13.74-6.75-23.71a36.61,36.61,0,0,0-11.73-11.61c1.15-5.54,5.69-30.39-5.61-31.83-9.92-1.28-12.58,18-13.26,26.57-.72,0-1.44,0-2.18,0s-1.47,0-2.19,0C100.62,94.8,98,75.48,88,76.76c-11.3,1.44-6.76,26.29-5.61,31.83A36.61,36.61,0,0,0,70.7,120.2c-6.49,10-6.75,23.71-6.75,23.71s-7.64,8.1-4.58,21.38c3.49,15.05,24.76,18.34,44.12,18.34s40.62-3.29,44.1-18.34C150.66,152,143,143.91,143,143.91Z"/><path class="cls-7" d="M103.49,179.54c24.11,0,30.54-9,31.58-16a23.76,23.76,0,0,0-2-13c.48-6.6-1.6-17-6.37-22.56-5.52-6.49-13.75-9.66-23.21-9.66s-17.7,3.17-23.22,9.66c-4.77,5.6-6.85,16-6.37,22.56a23.76,23.76,0,0,0-2,13C72.94,170.52,79.37,179.54,103.49,179.54Z"/><path class="cls-8" d="M116,129.19a41.15,41.15,0,0,1,15.45,8.26s-4.85-19.15-28-19.15-28,19.15-28,19.15A41.15,41.15,0,0,1,91,129.19l2.79-3.93-.09,3.22a44,44,0,0,1,19.65,0l-.09-3.22Z"/><g class="cls-9"><circle class="cls-10" cx="81.52" cy="163.22" r="14.3" transform="translate(-95.91 120.74) rotate(-50)"/><circle class="cls-10" cx="125.45" cy="163.22" r="14.3" transform="translate(-29.04 27.16) rotate(-11.08)"/></g><path class="cls-11" d="M103.49,179.54c24.11,0,30.54-9,31.58-16a23.76,23.76,0,0,0-2-13c.48-6.6-1.6-17-6.37-22.56-5.52-6.49-13.75-9.66-23.21-9.66s-17.7,3.17-23.22,9.66c-4.77,5.6-6.85,16-6.37,22.56a23.76,23.76,0,0,0-2,13C72.94,170.52,79.37,179.54,103.49,179.54Z"/><path class="cls-10" d="M111.25,148.45a3.85,3.85,0,0,1-3.85,3.85h-8a3.85,3.85,0,0,1-3.85-3.85h0a3.84,3.84,0,0,1,3.85-3.84h8a3.85,3.85,0,0,1,3.85,3.84Z"/><polyline class="cls-12" points="93.4 145.38 95.9 147.04 93.4 148.85"/><polyline class="cls-12" points="113.48 145.38 110.98 147.04 113.48 148.85"/><path class="cls-13" d="M106.38,158.67c-2.44,0-2.93-1.58-2.93-1.58s-.49,1.58-2.94,1.58"/><path class="cls-14" d="M111.35,134.53a4.14,4.14,0,0,1,2.89.35"/><path class="cls-14" d="M95.55,134.53a4.14,4.14,0,0,0-2.89.35"/><path class="cls-3" d="M92.27,105.55l-4.2,1.07S83.82,87.55,89,87c5.81-1.52,7,17.8,7,17.8Z"/><path class="cls-3" d="M114.7,105.55l4.2,1.07S123.15,87.55,118,87c-5.81-1.52-7,17.8-7,17.8Z"/><path class="cls-15" d="M141.22,154.06a52.56,52.56,0,0,1,12.22-.82"/><path class="cls-15" d="M141.22,160.58a52.31,52.31,0,0,1,12.2,1.11"/><path class="cls-15" d="M65.75,154.06a52.56,52.56,0,0,0-12.22-.82"/><path class="cls-15" d="M65.75,160.58a52.28,52.28,0,0,0-12.2,1.11"/></g></g></svg>