<svg xmlns="http://www.w3.org/2000/svg" xmlns:xlink="http://www.w3.org/1999/xlink" viewBox="0 0 210.28 252.57"><defs><style>.cls-1,.cls-11,.cls-14,.cls-15{fill:none;}.cls-2{fill:#f9c185;}.cls-3,.cls-4{fill:#fff;}.cls-4{font-size:47px;font-family:CookieRun-Black, CookieRun;font-weight:800;}.cls-4,.cls-6{stroke:#382819;}.cls-14,.cls-4,.cls-9{stroke-miterlimit:10;}.cls-11,.cls-14,.cls-15,.cls-4,.cls-6,.cls-9{stroke-width:2px;}.cls-5{font-size:27px;font-family:CookieRun-Bold, CookieRun;font-weight:700;}.cls-5,.cls-8{fill:#382819;}.cls-6{fill:#ffbb61;}.cls-11,.cls-15,.cls-6{stroke-linecap:round;stroke-linejoin:round;}.cls-7{clip-path:url(#clip-path);}.cls-9{fill:#fdfaf6;}.cls-14,.cls-9{stroke:#7f4236;}.cls-10{fill:#050001;}.cls-11{stroke:#050001;}.cls-12{clip-path:url(#clip-path-2);}.cls-13{fill:#ffd6bb;}.cls-15{stroke:#9d4a36;}</style><clipPath id="clip-path"><path class="cls-1" d="M150.22,136s-.25-13.24-6-24.2a14.79,14.79,0,0,0-22.25-19.47,50.08,50.08,0,0,0-16.79-2.66,50.13,50.13,0,0,0-16.79,2.66,14.78,14.78,0,0,0-22.24,19.47c-5.8,11-6,24.2-6,24.2s-8.71,9.24-5.22,24.38c4,17.16,28.23,20.92,50.3,20.92s46.33-3.76,50.29-20.92C158.94,145.22,150.22,136,150.22,136Z"/></clipPath><clipPath id="clip-path-2"><path class="cls-1" d="M105.14,176.6c27.49,0,34.83-10.28,36-18.29a27.13,27.13,0,0,0-2.29-14.79c.55-7.53-1.82-19.33-7.26-25.73-6.29-7.39-15.68-11-26.47-11s-20.18,3.62-26.47,11c-5.44,6.4-7.81,18.2-7.26,25.73a27.07,27.07,0,0,0-2.28,14.79C70.31,166.32,77.65,176.6,105.14,176.6Z"/></clipPath></defs><g id="레이어_2" data-name="레이어 2"><g id="레이어_1-2" data-name="레이어 1"><path class="cls-2" d="M210.28,105.14A105.14,105.14,0,0,0,0,105.14c0,1,0,2.06.06,3.08,0,.26,0,.51,0,.77V243a9.59,9.59,0,0,0,9.59,9.59H200.68a9.59,9.59,0,0,0,9.59-9.59V109c0-.26,0-.52-.05-.77C210.25,107.19,210.28,106.17,210.28,105.14Z"/><path class="cls-3" d="M195.65,192.15h-181A8.88,8.88,0,0,0,5.74,201v37.3a8.89,8.89,0,0,0,8.89,8.89h181a8.89,8.89,0,0,0,8.89-8.89V201A8.88,8.88,0,0,0,195.65,192.15ZM15.8,206.43a5,5,0,1,1,5-5A5,5,0,0,1,15.8,206.43Zm179.42,0a5,5,0,1,1,5-5A5,5,0,0,1,195.22,206.43Z"/><text class="cls-4" transform="translate(52.36 62.64)">INTJ</text><text class="cls-5" transform="translate(19.55 230.66)">뚝심있는 호랑이</text><path class="cls-6" d="M150.22,136s-.25-13.24-6-24.2a14.79,14.79,0,0,0-22.25-19.47,50.08,50.08,0,0,0-16.79-2.66,50.13,50.13,0,0,0-16.79,2.66,14.78,14.78,0,0,0-22.24,19.47c-5.8,11-6,24.2-6,24.2s-8.71,9.24-5.22,24.38c4,17.16,28.23,20.92,50.3,20.92s46.33-3.76,50.29-20.92C158.94,145.22,150.22,136,150.22,136Z"/><g class="cls-7"><path class="cls-8" d="M107.5,100.74a2.36,2.36,0,0,1-2.36,2.36h0a2.36,2.36,0,0,1-2.36-2.36V89.62a2.36,2.36,0,0,1,2.36-2.36h0a2.36,2.36,0,0,1,2.36,2.36Z"/><path class="cls-8" d="M97.41,98.5a2.36,2.36,0,0,1-2.36-2.36h0a2.36,2.36,0,0,1,2.36-2.36h15.46a2.36,2.36,0,0,1,2.36,2.36h0a2.36,2.36,0,0,1-2.36,2.36Z"/><path class="cls-8" d="M47.79,148a2.35,2.35,0,0,1-2.36-2.35h0a2.35,2.35,0,0,1,2.36-2.36H63.24a2.35,2.35,0,0,1,2.36,2.36h0A2.35,2.35,0,0,1,63.24,148Z"/><path class="cls-8" d="M47.79,156a2.36,2.36,0,0,1-2.36-2.36h0a2.36,2.36,0,0,1,2.36-2.36H63.24a2.36,2.36,0,0,1,2.36,2.36h0A2.36,2.36,0,0,1,63.24,156Z"/><path class="cls-8" d="M47.79,163.81a2.35,2.35,0,0,1-2.36-2.35h0a2.35,2.35,0,0,1,2.36-2.36H63.24a2.35,2.35,0,0,1,2.36,2.36h0a2.35,2.35,0,0,1-2.36,2.35Z"/><path class="cls-8" d="M162.5,148a2.35,2.35,0,0,0,2.35-2.35h0a2.35,2.35,0,0,0-2.35-2.36H147a2.36,2.36,0,0,0-2.36,2.36h0A2.36,2.36,0,0,0,147,148Z"/><path class="cls-8" d="M162.5,156a2.36,2.36,0,0,0,2.35-2.36h0a2.36,2.36,0,0,0-2.35-2.36H147a2.36,2.36,0,0,0-2.36,2.36h0A2.36,2.36,0,0,0,147,156Z"/><path class="cls-8" d="M162.5,163.81a2.35,2.35,0,0,0,2.35-2.35h0a2.35,2.35,0,0,0-2.35-2.36H147a2.36,2.36,0,0,0-2.36,2.36h0a2.36,2.36,0,0,0,2.36,2.35Z"/></g><path class="cls-8" d="M83.29,96.62a8.21,8.21,0,0,0-12.41,10.74Z"/><path class="cls-8" d="M127,96.62a8.2,8.2,0,1,1,12.4,10.74Z"/><path class="cls-9" d="M105.14,176.6c27.49,0,34.83-10.28,36-18.29a27.13,27.13,0,0,0-2.29-14.79c.55-7.53-1.82-19.33-7.26-25.73-6.29-7.39-15.68-11-26.47-11s-20.18,3.62-26.47,11c-5.44,6.4-7.81,18.2-7.26,25.73a27.07,27.07,0,0,0-2.28,14.79C70.31,166.32,77.65,176.6,105.14,176.6Z"/><path class="cls-10" d="M119.42,119.2A46.94,46.94,0,0,1,137,128.61s-5.53-21.83-31.9-21.83-31.9,21.83-31.9,21.83a46.94,46.94,0,0,1,17.62-9.41L94,114.72l-.1,3.67a50,50,0,0,1,22.4,0l-.1-3.67Z"/><path class="cls-10" d="M97.32,139.77a2.86,2.86,0,1,1-2.85-2.85A2.86,2.86,0,0,1,97.32,139.77Z"/><path class="cls-10" d="M113,139.77a2.86,2.86,0,1,0,2.85-2.85A2.86,2.86,0,0,0,113,139.77Z"/><line class="cls-11" x1="114.16" y1="125.65" x2="117.47" y2="125.33"/><line class="cls-11" x1="96.12" y1="125.65" x2="92.81" y2="125.33"/><g class="cls-12"><path class="cls-13" d="M96.4,158a16.31,16.31,0,1,1-16.3-16.31A16.3,16.3,0,0,1,96.4,158Z"/><path class="cls-13" d="M113.88,158a16.31,16.31,0,1,0,16.3-16.31A16.3,16.3,0,0,0,113.88,158Z"/></g><path class="cls-14" d="M105.14,176.6c27.49,0,34.83-10.28,36-18.29a27.13,27.13,0,0,0-2.29-14.79c.55-7.53-1.82-19.33-7.26-25.73-6.29-7.39-15.68-11-26.47-11s-20.18,3.62-26.47,11c-5.44,6.4-7.81,18.2-7.26,25.73a27.07,27.07,0,0,0-2.28,14.79C70.31,166.32,77.65,176.6,105.14,176.6Z"/><path class="cls-15" d="M106.25,148.19s-4.84-1.28-5.19,3.23a3.31,3.31,0,0,0,3,3.64,5.1,5.1,0,0,0-2.31,4c0,2.69,2.11,3.91,4.54,3.5"/></g></g></svg>