<svg xmlns="http://www.w3.org/2000/svg" xmlns:xlink="http://www.w3.org/1999/xlink" viewBox="0 0 210.28 252.57"><defs><style>.cls-1,.cls-12,.cls-13,.cls-9{fill:none;}.cls-2{fill:#6dbf70;}.cls-3,.cls-4{fill:#fff;}.cls-4{font-size:47px;font-family:CookieRun-Black, CookieRun;font-weight:800;}.cls-4,.cls-6{stroke:#204426;}.cls-12,.cls-4,.cls-7{stroke-miterlimit:10;}.cls-12,.cls-13,.cls-14,.cls-15,.cls-4,.cls-6,.cls-7,.cls-9{stroke-width:2px;}.cls-5{font-size:25.07px;fill:#204426;font-family:CookieRun-Bold, CookieRun;font-weight:700;}.cls-6{fill:#a5efb3;}.cls-13,.cls-14,.cls-15,.cls-6,.cls-9{stroke-linecap:round;stroke-linejoin:round;}.cls-7{fill:#fdfaf6;}.cls-12,.cls-7{stroke:#7f4236;}.cls-8{fill:#050001;}.cls-9{stroke:#050001;}.cls-10{clip-path:url(#clip-path);}.cls-11{fill:#ffd6bb;}.cls-13{stroke:#9d4a36;}.cls-14{fill:#ffd252;stroke:#603e16;}.cls-15{fill:#163519;stroke:#163519;}</style><clipPath id="clip-path"><path class="cls-1" d="M105.14,174.07c28.18,0,35.69-10.54,36.91-18.75a27.79,27.79,0,0,0-2.34-15.15c.56-7.71-1.86-19.81-7.44-26.37-6.45-7.57-16.07-11.28-27.13-11.28S84.46,106.23,78,113.8c-5.57,6.56-8,18.66-7.44,26.37a27.79,27.79,0,0,0-2.34,15.15C69.45,163.53,77,174.07,105.14,174.07Z"/></clipPath></defs><g id="레이어_2" data-name="레이어 2"><g id="레이어_1-2" data-name="레이어 1"><path class="cls-2" d="M210.28,105.14A105.14,105.14,0,0,0,0,105.14c0,1,0,2.06.06,3.08,0,.26,0,.51,0,.77V243a9.59,9.59,0,0,0,9.59,9.59H200.68a9.59,9.59,0,0,0,9.59-9.59V109c0-.26,0-.52-.05-.77C210.25,107.19,210.28,106.17,210.28,105.14Z"/><path class="cls-3" d="M195.65,192.15h-181A8.88,8.88,0,0,0,5.74,201v37.3a8.89,8.89,0,0,0,8.89,8.89h181a8.89,8.89,0,0,0,8.89-8.89V201A8.88,8.88,0,0,0,195.65,192.15ZM15.8,206.43a5,5,0,1,1,5-5A5,5,0,0,1,15.8,206.43Zm179.42,0a5,5,0,1,1,5-5A5,5,0,0,1,195.22,206.43Z"/><text class="cls-4" transform="translate(51.33 65.64)">INTP</text><text class="cls-5" transform="translate(23.4 230.2)">만물박사 부엉이</text><path class="cls-6" d="M151.34,132.44s-.3-16-7.89-27.7A44.18,44.18,0,0,0,133,93.33h0c3.89-.54,5-5,4-7.27s-14.23,1.76-14.23,1.76l0,0A51.19,51.19,0,0,0,105.14,85,51.13,51.13,0,0,0,87.5,87.84v0s-13.27-4-14.23-1.76.15,6.73,4,7.27h0a44.18,44.18,0,0,0-10.5,11.41c-7.59,11.65-7.89,27.7-7.89,27.7s-8.93,9.47-5.34,25c4.07,17.59,28.92,21.44,51.54,21.44s47.47-3.85,51.54-21.44C160.27,141.91,151.34,132.44,151.34,132.44Z"/><path class="cls-7" d="M105.14,174.07c28.18,0,35.69-10.54,36.91-18.75a27.79,27.79,0,0,0-2.34-15.15c.56-7.71-1.86-19.81-7.44-26.37-6.45-7.57-16.07-11.28-27.13-11.28S84.46,106.23,78,113.8c-5.57,6.56-8,18.66-7.44,26.37a27.79,27.79,0,0,0-2.34,15.15C69.45,163.53,77,174.07,105.14,174.07Z"/><path class="cls-8" d="M119.77,115.24a48.18,48.18,0,0,1,18.06,9.65s-5.67-22.37-32.69-22.37-32.69,22.37-32.69,22.37a48.18,48.18,0,0,1,18.06-9.65l3.26-4.58-.11,3.76a51.34,51.34,0,0,1,23,0l-.11-3.76Z"/><path class="cls-8" d="M97.12,136.33a2.92,2.92,0,1,1-2.92-2.92A2.92,2.92,0,0,1,97.12,136.33Z"/><path class="cls-8" d="M113.15,136.33a2.93,2.93,0,1,0,2.93-2.92A2.93,2.93,0,0,0,113.15,136.33Z"/><line class="cls-9" x1="114.74" y1="120.28" x2="117.42" y2="120.31"/><line class="cls-9" x1="95.54" y1="120.28" x2="92.86" y2="120.31"/><g class="cls-10"><circle class="cls-11" cx="79.48" cy="155.01" r="16.71"/><circle class="cls-11" cx="130.8" cy="155.01" r="16.71"/></g><path class="cls-12" d="M105.14,174.07c28.18,0,35.69-10.54,36.91-18.75a27.79,27.79,0,0,0-2.34-15.15c.56-7.71-1.86-19.81-7.44-26.37-6.45-7.57-16.07-11.28-27.13-11.28S84.46,106.23,78,113.8c-5.57,6.56-8,18.66-7.44,26.37a27.79,27.79,0,0,0-2.34,15.15C69.45,163.53,77,174.07,105.14,174.07Z"/><path class="cls-9" d="M103.23,136.85a13.48,13.48,0,1,1-13.48-13.49A13.48,13.48,0,0,1,103.23,136.85Z"/><path class="cls-9" d="M107.05,136.85a13.49,13.49,0,1,0,13.48-13.49A13.48,13.48,0,0,0,107.05,136.85Z"/><line class="cls-13" x1="101.99" y1="136.85" x2="108.29" y2="136.85"/><path class="cls-13" d="M100.69,152.11a5.8,5.8,0,0,0,8.9,0"/><polygon class="cls-14" points="105.14 110.28 110.85 102.82 105.14 98.81 99.42 102.82 105.14 110.28"/><path class="cls-15" d="M108.3,98.61s13.59-8.75,27.18,3.43Z"/><path class="cls-15" d="M102,98.61S88.39,89.86,74.8,102Z"/></g></g></svg>