<svg xmlns="http://www.w3.org/2000/svg" xmlns:xlink="http://www.w3.org/1999/xlink" viewBox="0 0 210.28 252.57"><defs><style>.cls-1,.cls-10,.cls-11,.cls-14{fill:none;}.cls-2{fill:#8c8c8c;}.cls-3,.cls-4{fill:#fff;}.cls-4{font-size:47px;stroke:#3a3937;font-family:CookieRun-Black, CookieRun;font-weight:800;}.cls-14,.cls-4,.cls-8{stroke-miterlimit:10;}.cls-10,.cls-11,.cls-14,.cls-15,.cls-16,.cls-4,.cls-7,.cls-8{stroke-width:2px;}.cls-5{letter-spacing:-0.04em;}.cls-6{font-size:27px;fill:#3a3937;font-family:CookieRun-Bold, CookieRun;font-weight:700;}.cls-7{fill:#d3d2cf;}.cls-16,.cls-7{stroke:#4f4d49;}.cls-10,.cls-11,.cls-15,.cls-16,.cls-7{stroke-linecap:round;stroke-linejoin:round;}.cls-8{fill:#fdfaf6;}.cls-14,.cls-8{stroke:#7f4236;}.cls-9{fill:#050001;}.cls-10{stroke:#9d4a36;}.cls-11{stroke:#050001;}.cls-12{clip-path:url(#clip-path);}.cls-13{fill:#ffd6bb;}.cls-15{fill:#e8e8e8;stroke:#636368;}.cls-16{fill:#4f4d49;}</style><clipPath id="clip-path"><path class="cls-1" d="M105.14,177.13c27,0,34.2-10.1,35.36-18a26.62,26.62,0,0,0-2.24-14.51c.53-7.4-1.79-19-7.13-25.26-6.18-7.26-15.39-10.81-26-10.81s-19.81,3.55-26,10.81c-5.34,6.28-7.66,17.86-7.12,25.26a26.57,26.57,0,0,0-2.25,14.51C71,167,78.15,177.13,105.14,177.13Z"/></clipPath></defs><g id="레이어_2" data-name="레이어 2"><g id="레이어_1-2" data-name="레이어 1"><path class="cls-2" d="M210.28,105.14A105.14,105.14,0,0,0,0,105.14c0,1,0,2.06.06,3.08,0,.26,0,.51,0,.77V243a9.59,9.59,0,0,0,9.59,9.59H200.68a9.59,9.59,0,0,0,9.59-9.59V109c0-.26,0-.52-.05-.77C210.25,107.19,210.28,106.17,210.28,105.14Z"/><path class="cls-3" d="M195.65,192.15h-181A8.88,8.88,0,0,0,5.74,201v37.3a8.89,8.89,0,0,0,8.89,8.89h181a8.89,8.89,0,0,0,8.89-8.89V201A8.88,8.88,0,0,0,195.65,192.15ZM15.8,206.43a5,5,0,1,1,5-5A5,5,0,0,1,15.8,206.43Zm179.42,0a5,5,0,1,1,5-5A5,5,0,0,1,195.22,206.43Z"/><text class="cls-4" transform="translate(59.17 64.73)">IS<tspan class="cls-5" x="40.42" y="0">F</tspan><tspan x="64.39" y="0">J</tspan></text><text class="cls-6" transform="translate(33.32 231.7)">용감한 코뿔소</text><path class="cls-7" d="M149.4,137.24s-.29-15.38-7.56-26.53a40.59,40.59,0,0,0-14.3-13.66c6.3-2.53,6-7.24,2.81-12.1-3.51-5.37-5.59-2.57-6.15,1a18.13,18.13,0,0,1-3.4,8.12,49.67,49.67,0,0,0-15.66-2.34A49.67,49.67,0,0,0,89.48,94.1,18.36,18.36,0,0,1,86.08,86c-.56-3.6-2.64-6.4-6.15-1-3.16,4.86-3.49,9.57,2.81,12.1a40.51,40.51,0,0,0-14.3,13.66c-7.27,11.15-7.56,26.53-7.56,26.53s-8.55,9.07-5.12,23.94c3.9,16.85,27.71,20.54,49.38,20.54s45.48-3.69,49.38-20.54C158,146.31,149.4,137.24,149.4,137.24Z"/><path class="cls-8" d="M105.14,177.13c27,0,34.2-10.1,35.36-18a26.62,26.62,0,0,0-2.24-14.51c.53-7.4-1.79-19-7.13-25.26-6.18-7.26-15.39-10.81-26-10.81s-19.81,3.55-26,10.81c-5.34,6.28-7.66,17.86-7.12,25.26a26.57,26.57,0,0,0-2.25,14.51C71,167,78.15,177.13,105.14,177.13Z"/><path class="cls-9" d="M97.46,141a2.8,2.8,0,1,1-2.8-2.8A2.8,2.8,0,0,1,97.46,141Z"/><path class="cls-9" d="M112.82,141a2.8,2.8,0,1,0,2.8-2.8A2.8,2.8,0,0,0,112.82,141Z"/><path class="cls-10" d="M99.51,151.9a7.34,7.34,0,0,0,11.26,0"/><line class="cls-11" x1="114.01" y1="127.25" x2="117.22" y2="126.64"/><line class="cls-11" x1="96.27" y1="127.25" x2="93.06" y2="126.64"/><g class="cls-12"><path class="cls-13" d="M96.56,158.86a16,16,0,1,1-16-16A16,16,0,0,1,96.56,158.86Z"/><circle class="cls-13" cx="129.73" cy="158.86" r="16.01"/></g><path class="cls-9" d="M105.14,108.58h0c-27.68,0-31.81,23.26-31.81,23.26,6.52-6.53,21-9.9,31.81-9.9s25.28,3.37,31.81,9.9C137,131.84,132.82,108.58,105.14,108.58Z"/><path class="cls-14" d="M105.14,177.13c27,0,34.2-10.1,35.36-18a26.62,26.62,0,0,0-2.24-14.51c.53-7.4-1.79-19-7.13-25.26-6.18-7.26-15.39-10.81-26-10.81s-19.81,3.55-26,10.81c-5.34,6.28-7.66,17.86-7.12,25.26a26.57,26.57,0,0,0-2.25,14.51C71,167,78.15,177.13,105.14,177.13Z"/><path class="cls-7" d="M119.34,101.42a41.89,41.89,0,0,1,4.23,1c10.12,3,14.58,9.94,14.58,9.94,3.1,3.64,5.82,14.35-2.65,15a30.49,30.49,0,0,1-15.88-2.68c-8.1-3.83-14.48-7.76-14.48-7.76s-6.38,3.93-14.48,7.76a30.49,30.49,0,0,1-15.88,2.68c-8.47-.61-5.75-11.32-2.65-15,0,0,4.46-7,14.58-9.94a41.89,41.89,0,0,1,4.23-1l5.15-.56a30.52,30.52,0,0,1,9,.8,30.52,30.52,0,0,1,9-.8Z"/><path class="cls-15" d="M113.84,104.05s-4.35-17.75-8.7-17.75-8.7,17.75-8.7,17.75,2.45,1.65,8.7,1.65S113.84,104.05,113.84,104.05Z"/><path class="cls-16" d="M87.88,109.54c-.65.74-1.52,1-1.94.65s-.24-1.27.41-2,1.53-1,2-.65S88.54,108.81,87.88,109.54Z"/><path class="cls-16" d="M122.4,109.54c.65.74,1.52,1,1.95.65s.23-1.27-.42-2-1.52-1-2-.65S121.74,108.81,122.4,109.54Z"/><path class="cls-15" d="M104.42,95.17a10.87,10.87,0,0,0,6.31-1"/><path class="cls-15" d="M98,98.5s4.94,2.08,13.84,0"/></g></g></svg>