<svg xmlns="http://www.w3.org/2000/svg" xmlns:xlink="http://www.w3.org/1999/xlink" viewBox="0 0 210.28 252.57"><defs><style>.cls-1,.cls-10,.cls-13,.cls-14{fill:none;}.cls-2{fill:#b7e092;}.cls-3,.cls-4,.cls-7{fill:#fff;}.cls-4{font-size:47px;stroke:#2d3f1b;font-family:CookieRun-Black, CookieRun;font-weight:800;}.cls-13,.cls-4,.cls-8{stroke-miterlimit:10;}.cls-10,.cls-13,.cls-14,.cls-4,.cls-6,.cls-7,.cls-8{stroke-width:2px;}.cls-5{font-size:31.16px;fill:#2d3f1b;font-family:CookieRun-Bold, CookieRun;font-weight:700;}.cls-6{fill:#eab473;stroke:#493016;}.cls-10,.cls-14,.cls-6,.cls-7{stroke-linecap:round;stroke-linejoin:round;}.cls-7{stroke:#544541;}.cls-8{fill:#fdfaf6;}.cls-13,.cls-8{stroke:#7f4236;}.cls-9{fill:#050001;}.cls-10{stroke:#050001;}.cls-11{clip-path:url(#clip-path);}.cls-12{fill:#ffd6bb;}.cls-14{stroke:#9d4a36;}</style><clipPath id="clip-path"><path class="cls-1" d="M105.14,173.33c25.83,0,32.72-9.66,33.83-17.19a25.49,25.49,0,0,0-2.14-13.89c.51-7.07-1.71-18.16-6.82-24.17-5.91-6.94-14.73-10.34-24.87-10.34s-19,3.4-24.87,10.34c-5.11,6-7.33,17.1-6.81,24.17a25.44,25.44,0,0,0-2.15,13.89C72.42,163.67,79.31,173.33,105.14,173.33Z"/></clipPath></defs><g id="레이어_2" data-name="레이어 2"><g id="레이어_1-2" data-name="레이어 1"><path class="cls-2" d="M210.28,105.14A105.14,105.14,0,0,0,0,105.14c0,1,0,2.06.06,3.08,0,.26,0,.51,0,.77V243a9.59,9.59,0,0,0,9.59,9.59H200.68a9.59,9.59,0,0,0,9.59-9.59V109c0-.26,0-.52-.05-.77C210.25,107.19,210.28,106.17,210.28,105.14Z"/><path class="cls-3" d="M195.65,192.15h-181A8.88,8.88,0,0,0,5.74,201v37.3a8.89,8.89,0,0,0,8.89,8.89h181a8.89,8.89,0,0,0,8.89-8.89V201A8.88,8.88,0,0,0,195.65,192.15ZM15.8,206.43a5,5,0,1,1,5-5A5,5,0,0,1,15.8,206.43Zm179.42,0a5,5,0,1,1,5-5A5,5,0,0,1,195.22,206.43Z"/><text class="cls-4" transform="translate(57.2 64.73)">ISFP</text><text class="cls-5" transform="translate(46.25 231.69)">온순한 양</text><path class="cls-6" d="M122.69,83.91a10.08,10.08,0,1,0,14.24-.68A10.07,10.07,0,0,0,122.69,83.91Z"/><path class="cls-6" d="M120.28,92.69s5.35,7.26,11.15,3.44c5.39-3.55,2.92-9.13,0-9.71-3.55-.71-5.64,1.73-5.11,3.76a1.9,1.9,0,0,0,3.41.76"/><path class="cls-7" d="M133,104.84l-.27,4.39s17.3,3.68,17.73-3.3-17.19-5.48-17.19-5.48Z"/><path class="cls-7" d="M77.29,104.84l.27,4.39s-17.3,3.68-17.74-3.3S77,100.45,77,100.45Z"/><path class="cls-6" d="M87.59,83.91a10.08,10.08,0,1,1-14.24-.68A10.07,10.07,0,0,1,87.59,83.91Z"/><path class="cls-6" d="M90,92.69S84.65,100,78.85,96.13c-5.39-3.55-2.92-9.13,0-9.71,3.55-.71,5.64,1.73,5.11,3.76a1.9,1.9,0,0,1-3.4.76"/><path class="cls-7" d="M152.47,157.66a6.07,6.07,0,0,0,.69-6.34c0-.55,0-1.08,0-1.6a6.23,6.23,0,0,0,.45-2.29,6.15,6.15,0,0,0-1.68-4.21c-.15-.45-.3-.88-.46-1.29a5.9,5.9,0,0,0,.18-1.4,6.16,6.16,0,0,0-4.13-5.8v-.1a8.34,8.34,0,0,0-.85-9.23,8.26,8.26,0,0,0-2.67-8.17c-.12-.33-.25-.65-.38-1a7.2,7.2,0,0,0,.08-1,8.34,8.34,0,0,0-4.88-7.58l-.33-.42a8.34,8.34,0,0,0-6.88-7.16l-.07-.06a8.35,8.35,0,0,0-8-6,8.53,8.53,0,0,0-2.16.29h0A8.3,8.3,0,0,0,111,92l-.92-.07a8.26,8.26,0,0,0-10,0l-.92.07A8.3,8.3,0,0,0,89,94.27h0A8.55,8.55,0,0,0,86.78,94a8.32,8.32,0,0,0-8,6l-.09.06a8.35,8.35,0,0,0-6.87,7.15l-.33.43a8.33,8.33,0,0,0-4.88,7.58,7.2,7.2,0,0,0,.08,1c-.13.33-.26.65-.38,1a8.26,8.26,0,0,0-2.67,8.17,8.34,8.34,0,0,0-.85,9.23v.1a6.16,6.16,0,0,0-4.13,5.8,6.46,6.46,0,0,0,.17,1.4q-.23.62-.45,1.29a6.11,6.11,0,0,0-1.68,4.21,6.23,6.23,0,0,0,.45,2.29c0,.52-.05,1.05-.05,1.6a6,6,0,0,0,.69,6.34c0,.14,0,.27.08.4.14.6.32,1.18.5,1.74,0,.11,0,.2,0,.31a6.13,6.13,0,0,0,3.2,5.37c.17.22.36.43.54.64a6.17,6.17,0,0,0,6.08,5.14h0a6.13,6.13,0,0,0,5.26,3,6.27,6.27,0,0,0,1.74-.28l.76.24a6,6,0,0,0,6.62,1.65l1.72.32a6,6,0,0,0,6,.82q1.07.12,2.16.21a6.13,6.13,0,0,0,3.6,1.18A6,6,0,0,0,99,177.6c.79,0,1.57.06,2.35.07a6.06,6.06,0,0,0,7.6,0l2.34-.06a6,6,0,0,0,6.54-.41L120,177a6.07,6.07,0,0,0,2.26.45,6.13,6.13,0,0,0,3.71-1.27l1.72-.32a6.24,6.24,0,0,0,2.08.38,6.13,6.13,0,0,0,4.55-2l.76-.24a6.21,6.21,0,0,0,1.74.28,6.14,6.14,0,0,0,5.26-3h0a6.16,6.16,0,0,0,6.07-5.13l.55-.65a6.13,6.13,0,0,0,3.19-5.37c0-.11,0-.2,0-.31.19-.56.37-1.14.51-1.74C152.42,157.93,152.44,157.8,152.47,157.66Z"/><path class="cls-8" d="M105.14,173.33c25.83,0,32.72-9.66,33.83-17.19a25.49,25.49,0,0,0-2.14-13.89c.51-7.07-1.71-18.16-6.82-24.17-5.91-6.94-14.73-10.34-24.87-10.34s-19,3.4-24.87,10.34c-5.11,6-7.33,17.1-6.81,24.17a25.44,25.44,0,0,0-2.15,13.89C72.42,163.67,79.31,173.33,105.14,173.33Z"/><path class="cls-9" d="M97.79,138.73a2.68,2.68,0,1,1-2.68-2.68A2.68,2.68,0,0,1,97.79,138.73Z"/><path class="cls-9" d="M112.49,138.73a2.68,2.68,0,1,0,2.68-2.68A2.68,2.68,0,0,0,112.49,138.73Z"/><line class="cls-10" x1="113.61" y1="125.29" x2="116.01" y2="125.4"/><line class="cls-10" x1="96.68" y1="125.29" x2="94.27" y2="125.4"/><g class="cls-11"><circle class="cls-12" cx="81.62" cy="155.85" r="15.32" transform="translate(-85.26 211.56) rotate(-80.82)"/><circle class="cls-12" cx="128.66" cy="155.85" r="15.32" transform="matrix(0.99, -0.15, 0.15, 0.99, -22.43, 21.64)"/></g><path class="cls-9" d="M105.14,120c7.76,0,8.86-4.07,8.86-4.07,7.71,7.37,17.49,4.2,17.49,4.2-9.11-13.33-26.35-12.36-26.35-12.36s-17.24-1-26.36,12.36c0,0,9.79,3.17,17.5-4.2,0,0,1.1,4.07,8.86,4.07Z"/><path class="cls-13" d="M105.14,173.33c25.83,0,32.72-9.66,33.83-17.19a25.49,25.49,0,0,0-2.14-13.89c.51-7.07-1.71-18.16-6.82-24.17-5.91-6.94-14.73-10.34-24.87-10.34s-19,3.4-24.87,10.34c-5.11,6-7.33,17.1-6.81,24.17a25.44,25.44,0,0,0-2.15,13.89C72.42,163.67,79.31,173.33,105.14,173.33Z"/><path class="cls-14" d="M109.45,151a6.53,6.53,0,0,1-4.31-1.7,6.52,6.52,0,0,1-4.3,1.7"/></g></g></svg>