<svg xmlns="http://www.w3.org/2000/svg" xmlns:xlink="http://www.w3.org/1999/xlink" viewBox="0 0 210.28 252.57"><defs><style>.cls-1,.cls-12,.cls-13,.cls-9{fill:none;}.cls-2{fill:#66c;}.cls-3,.cls-4{fill:#fff;}.cls-4{font-size:47px;stroke:#302c56;font-family:CookieRun-Black, CookieRun;font-weight:800;}.cls-12,.cls-4,.cls-7{stroke-miterlimit:10;}.cls-12,.cls-13,.cls-4,.cls-6,.cls-7,.cls-9{stroke-width:2px;}.cls-5{font-size:29.13px;fill:#302c56;font-family:CookieRun-Bold, CookieRun;font-weight:700;}.cls-6{fill:#b7b6ef;stroke:#423a70;}.cls-13,.cls-6,.cls-9{stroke-linecap:round;stroke-linejoin:round;}.cls-7{fill:#fdfaf6;}.cls-12,.cls-7{stroke:#7f4236;}.cls-8{fill:#050001;}.cls-9{stroke:#050001;}.cls-10{clip-path:url(#clip-path);}.cls-11{fill:#ffd6bb;}.cls-13{stroke:#9d4a36;}.cls-14{fill:#423a70;}</style><clipPath id="clip-path"><path class="cls-1" d="M106,175.49c27.4,0,34.71-10.25,35.88-18.23a26.93,26.93,0,0,0-2.27-14.74c.55-7.5-1.81-19.26-7.23-25.64-6.27-7.36-15.63-11-26.38-11s-20.11,3.61-26.38,11c-5.42,6.38-7.78,18.14-7.23,25.64a27,27,0,0,0-2.28,14.74C71.31,165.24,78.62,175.49,106,175.49Z"/></clipPath></defs><g id="레이어_2" data-name="레이어 2"><g id="레이어_1-2" data-name="레이어 1"><path class="cls-2" d="M210.28,105.14A105.14,105.14,0,0,0,0,105.14c0,1,0,2.06.06,3.08,0,.26,0,.51,0,.77V243a9.59,9.59,0,0,0,9.59,9.59H200.68a9.59,9.59,0,0,0,9.59-9.59V109c0-.26,0-.52-.05-.77C210.25,107.19,210.28,106.17,210.28,105.14Z"/><path class="cls-3" d="M195.65,192.15h-181A8.88,8.88,0,0,0,5.74,201v37.3a8.89,8.89,0,0,0,8.89,8.89h181a8.89,8.89,0,0,0,8.89-8.89V201A8.88,8.88,0,0,0,195.65,192.15ZM15.8,206.43a5,5,0,1,1,5-5A5,5,0,0,1,15.8,206.43Zm179.42,0a5,5,0,1,1,5-5A5,5,0,0,1,195.22,206.43Z"/><text class="cls-4" transform="translate(55.18 64.73)">ISTJ</text><text class="cls-5" transform="translate(36.39 232.21)">우직한 하마</text><path class="cls-6" d="M150.94,135s-.29-15.61-7.67-26.94A40.83,40.83,0,0,0,127.85,93.7c6.58.65,4.69-9.44,1.11-6.38a19.79,19.79,0,0,1-6.89,3.94,50.5,50.5,0,0,0-16-2.42,50.5,50.5,0,0,0-16,2.42,19.7,19.7,0,0,1-6.89-3.94c-3.58-3.06-5.47,7,1.11,6.38a40.93,40.93,0,0,0-15.43,14.37C61.39,119.4,61.1,135,61.1,135s-8.69,9.2-5.2,24.29c4,17.1,28.13,20.84,50.12,20.84s46.16-3.74,50.12-20.84C159.63,144.21,150.94,135,150.94,135Z"/><path class="cls-7" d="M106,175.49c27.4,0,34.71-10.25,35.88-18.23a26.93,26.93,0,0,0-2.27-14.74c.55-7.5-1.81-19.26-7.23-25.64-6.27-7.36-15.63-11-26.38-11s-20.11,3.61-26.38,11c-5.42,6.38-7.78,18.14-7.23,25.64a27,27,0,0,0-2.28,14.74C71.31,165.24,78.62,175.49,106,175.49Z"/><path class="cls-8" d="M98.22,138.79a2.84,2.84,0,1,1-2.84-2.85A2.84,2.84,0,0,1,98.22,138.79Z"/><path class="cls-8" d="M113.81,138.79a2.85,2.85,0,1,0,2.84-2.85A2.85,2.85,0,0,0,113.81,138.79Z"/><line class="cls-9" x1="115" y1="125.95" x2="118.3" y2="125.62"/><line class="cls-9" x1="97.03" y1="125.95" x2="93.73" y2="125.62"/><g class="cls-10"><path class="cls-11" d="M97.31,157A16.25,16.25,0,1,1,81.06,140.7,16.25,16.25,0,0,1,97.31,157Z"/><path class="cls-11" d="M114.72,157A16.25,16.25,0,1,0,131,140.7,16.26,16.26,0,0,0,114.72,157Z"/></g><path class="cls-8" d="M120.25,120.75a93.52,93.52,0,0,1,17.55,6.91s-5.5-21.75-31.78-21.75-31.79,21.75-31.79,21.75a93.85,93.85,0,0,1,17.56-6.91L95,113.82l-.1,6.13a49.67,49.67,0,0,1,22.32,0l-.1-6.13Z"/><path class="cls-12" d="M106,175.49c27.4,0,34.71-10.25,35.88-18.23a26.93,26.93,0,0,0-2.27-14.74c.55-7.5-1.81-19.26-7.23-25.64-6.27-7.36-15.63-11-26.38-11s-20.11,3.61-26.38,11c-5.42,6.38-7.78,18.14-7.23,25.64a27,27,0,0,0-2.28,14.74C71.31,165.24,78.62,175.49,106,175.49Z"/><polyline class="cls-13" points="110.75 153.42 106.02 150.54 101.29 153.42"/><path class="cls-6" d="M106,113.29a88.73,88.73,0,0,0,14.7,8.91,31,31,0,0,0,16.12,2.73c8.59-.63,5.83-11.49,2.69-15.19,0,0-4.53-7.08-14.8-10.09a41.15,41.15,0,0,0-4.3-1,2.61,2.61,0,0,0-2.27-2.74,2.64,2.64,0,0,0-3,2.16,31.31,31.31,0,0,0-9.18.82,31.31,31.31,0,0,0-9.18-.82,2.64,2.64,0,0,0-3-2.16,2.61,2.61,0,0,0-2.27,2.74,41.15,41.15,0,0,0-4.3,1c-10.27,3-14.8,10.09-14.8,10.09-3.14,3.7-5.9,14.56,2.69,15.19a31,31,0,0,0,16.12-2.73A89.25,89.25,0,0,0,106,113.29Z"/><path class="cls-14" d="M78.71,115.14a1.29,1.29,0,0,1-2.57,0,1.29,1.29,0,1,1,2.57,0Z"/><path class="cls-14" d="M85,116.42a1.29,1.29,0,1,1-1.28-1.28A1.28,1.28,0,0,1,85,116.42Z"/><path class="cls-14" d="M83.75,110.92a1.29,1.29,0,1,1-1.28-1.28A1.29,1.29,0,0,1,83.75,110.92Z"/><path class="cls-14" d="M128.65,115.14a1.29,1.29,0,0,1-2.57,0,1.29,1.29,0,1,1,2.57,0Z"/><path class="cls-14" d="M135,116.42a1.29,1.29,0,1,1-1.28-1.28A1.28,1.28,0,0,1,135,116.42Z"/><path class="cls-14" d="M133.69,110.92a1.29,1.29,0,1,1-1.28-1.28A1.29,1.29,0,0,1,133.69,110.92Z"/></g></g></svg>