<svg xmlns="http://www.w3.org/2000/svg" xmlns:xlink="http://www.w3.org/1999/xlink" viewBox="0 0 210.28 252.57"><defs><style>.cls-1,.cls-10,.cls-13,.cls-16,.cls-20{fill:none;}.cls-2{fill:#d6b39a;}.cls-3,.cls-4,.cls-6{fill:#fff;}.cls-4{font-size:47px;stroke:#3d3025;font-family:CookieRun-Black, CookieRun;font-weight:800;}.cls-11,.cls-16,.cls-4{stroke-miterlimit:10;}.cls-10,.cls-11,.cls-13,.cls-16,.cls-17,.cls-20,.cls-4,.cls-6{stroke-width:2px;}.cls-5{font-size:25.07px;font-family:CookieRun-Bold, CookieRun;font-weight:700;}.cls-5,.cls-9{fill:#3d3025;}.cls-6{stroke:#2f2f2f;}.cls-10,.cls-13,.cls-17,.cls-20,.cls-6{stroke-linecap:round;stroke-linejoin:round;}.cls-7{clip-path:url(#clip-path);}.cls-8{fill:#eab473;}.cls-10{stroke:#262626;}.cls-11,.cls-18{fill:#fdfaf6;}.cls-11,.cls-16{stroke:#7f4236;}.cls-12{fill:#050001;}.cls-13{stroke:#050001;}.cls-14{clip-path:url(#clip-path-2);}.cls-15{fill:#ffd6bb;}.cls-17{fill:#9d4a36;stroke:#9d4a36;}.cls-19{fill:#ffc5bb;}.cls-20{stroke:#73473b;}</style><clipPath id="clip-path"><path class="cls-1" d="M147.5,135.6s-.28-14.72-7.23-25.4a44.27,44.27,0,0,0-3.21-4.34c.31-1.26,2-9.43-3.11-20.29-9.91,1.37-15.68,5.68-17.84,7.63a53.35,53.35,0,0,0-21.94,0c-2.16-2-7.93-6.26-17.84-7.63a38,38,0,0,0-3.18,10.11l.43.07a2.28,2.28,0,1,1-.73,4.51l-.13,0a22.94,22.94,0,0,0,.5,5.62A44.27,44.27,0,0,0,70,110.2c-7,10.68-7.23,25.4-7.23,25.4s-8.19,8.68-4.9,22.9c3.73,16.13,26.52,19.66,47.26,19.66s43.53-3.53,47.26-19.66C155.69,144.28,147.5,135.6,147.5,135.6Z"/></clipPath><clipPath id="clip-path-2"><path class="cls-1" d="M105.14,173.77c25.83,0,32.73-9.67,33.84-17.19a25.49,25.49,0,0,0-2.15-13.9c.52-7.07-1.7-18.17-6.82-24.18-5.91-6.94-14.73-10.34-24.87-10.34s-19,3.4-24.87,10.34c-5.12,6-7.34,17.11-6.82,24.18a25.49,25.49,0,0,0-2.15,13.9C72.41,164.1,79.31,173.77,105.14,173.77Z"/></clipPath></defs><g id="레이어_2" data-name="레이어 2"><g id="레이어_1-2" data-name="레이어 1"><path class="cls-2" d="M210.28,105.14A105.14,105.14,0,0,0,0,105.14c0,1,0,2.06.06,3.08,0,.26,0,.51,0,.77V243a9.59,9.59,0,0,0,9.59,9.59H200.68a9.59,9.59,0,0,0,9.59-9.59V109c0-.26,0-.52-.05-.77C210.25,107.19,210.28,106.17,210.28,105.14Z"/><path class="cls-3" d="M195.65,192.15h-181A8.88,8.88,0,0,0,5.74,201v37.3a8.89,8.89,0,0,0,8.89,8.89h181a8.89,8.89,0,0,0,8.89-8.89V201A8.88,8.88,0,0,0,195.65,192.15ZM15.8,206.43a5,5,0,1,1,5-5A5,5,0,0,1,15.8,206.43Zm179.42,0a5,5,0,1,1,5-5A5,5,0,0,1,195.22,206.43Z"/><text class="cls-4" transform="translate(54.15 62.64)">ISTP</text><text class="cls-5" transform="translate(21.27 230.2)">개성강한 고양이</text><path class="cls-6" d="M147.5,135.6s-.28-14.72-7.23-25.4a44.27,44.27,0,0,0-3.21-4.34c.31-1.26,2-9.43-3.11-20.29-9.91,1.37-15.68,5.68-17.84,7.63a53.35,53.35,0,0,0-21.94,0c-2.16-2-7.93-6.26-17.84-7.63a38,38,0,0,0-3.18,10.11l.43.07a2.28,2.28,0,1,1-.73,4.51l-.13,0a22.94,22.94,0,0,0,.5,5.62A44.27,44.27,0,0,0,70,110.2c-7,10.68-7.23,25.4-7.23,25.4s-8.19,8.68-4.9,22.9c3.73,16.13,26.52,19.66,47.26,19.66s43.53-3.53,47.26-19.66C155.69,144.28,147.5,135.6,147.5,135.6Z"/><g class="cls-7"><path class="cls-8" d="M148.26,83.21c7,15.32,4.15,31.69-6.47,36.58s-24.95-3.56-32-18.88-4.15-31.68,6.47-36.57S141.21,67.9,148.26,83.21Z"/><path class="cls-9" d="M104.73,113.89c-12.86,21.82-37.17,31.33-54.32,21.23s-20.62-36-7.77-57.8S79.82,46,97,56.09,117.58,92.07,104.73,113.89Z"/></g><path class="cls-10" d="M147.5,135.6s-.28-14.72-7.23-25.4a44.27,44.27,0,0,0-3.21-4.34c.31-1.26,2-9.43-3.11-20.29-9.91,1.37-15.68,5.68-17.84,7.63a53.35,53.35,0,0,0-21.94,0c-2.16-2-7.93-6.26-17.84-7.63a38,38,0,0,0-3.18,10.11l.43.07a2.28,2.28,0,1,1-.73,4.51l-.13,0a22.94,22.94,0,0,0,.5,5.62A44.27,44.27,0,0,0,70,110.2c-7,10.68-7.23,25.4-7.23,25.4s-8.19,8.68-4.9,22.9c3.73,16.13,26.52,19.66,47.26,19.66s43.53-3.53,47.26-19.66C155.69,144.28,147.5,135.6,147.5,135.6Z"/><path class="cls-11" d="M105.14,173.77c25.83,0,32.73-9.67,33.84-17.19a25.49,25.49,0,0,0-2.15-13.9c.52-7.07-1.7-18.17-6.82-24.18-5.91-6.94-14.73-10.34-24.87-10.34s-19,3.4-24.87,10.34c-5.12,6-7.34,17.11-6.82,24.18a25.49,25.49,0,0,0-2.15,13.9C72.41,164.1,79.31,173.77,105.14,173.77Z"/><path class="cls-12" d="M118.55,119.82a44.2,44.2,0,0,1,16.56,8.85s-5.19-20.51-30-20.51-30,20.51-30,20.51a44.09,44.09,0,0,1,16.55-8.85l3-4.2-.1,3.45a47.18,47.18,0,0,1,21.06,0l-.1-3.45Z"/><path class="cls-12" d="M97.79,139.16a2.68,2.68,0,1,1-2.68-2.68A2.68,2.68,0,0,1,97.79,139.16Z"/><circle class="cls-12" cx="115.17" cy="139.16" r="2.68"/><line class="cls-13" x1="113.61" y1="125.89" x2="116.73" y2="125.58"/><line class="cls-13" x1="96.67" y1="125.89" x2="93.55" y2="125.58"/><g class="cls-14"><circle class="cls-15" cx="81.61" cy="156.28" r="15.32" transform="translate(-86.61 103.48) rotate(-45)"/><circle class="cls-15" cx="128.67" cy="156.28" r="15.32" transform="translate(-22.07 21.16) rotate(-8.66)"/></g><path class="cls-16" d="M105.14,173.77c25.83,0,32.73-9.67,33.84-17.19a25.49,25.49,0,0,0-2.15-13.9c.52-7.07-1.7-18.17-6.82-24.18-5.91-6.94-14.73-10.34-24.87-10.34s-19,3.4-24.87,10.34c-5.12,6-7.34,17.11-6.82,24.18a25.49,25.49,0,0,0-2.15,13.9C72.41,164.1,79.31,173.77,105.14,173.77Z"/><path class="cls-17" d="M111.19,150s-4.07.58-6-1.46c-2.11,2-6,1.46-6,1.46s.25,5.66,6,5.66S111.19,150,111.19,150Z"/><polygon class="cls-18" points="109 151.83 110.05 150.36 109.08 150.31 108.11 150.25 109 151.83"/><polygon class="cls-18" points="101.28 151.83 100.22 150.36 101.19 150.31 102.17 150.25 101.28 151.83"/><path class="cls-19" d="M126.91,99l5.22,2.83s1.18-4.12-1.46-9.75c-6.16.85-9,4.09-9,4.09Z"/><path class="cls-19" d="M83.37,99l-5.22,2.83S77,97.74,79.61,92.11c6.16.85,9,4.09,9,4.09Z"/><path class="cls-20" d="M145.57,146.47a56.06,56.06,0,0,1,13.09-.87"/><path class="cls-20" d="M145.57,153.46a55.87,55.87,0,0,1,13.07,1.19"/><path class="cls-20" d="M64.71,146.47a56.06,56.06,0,0,0-13.09-.87"/><path class="cls-20" d="M64.71,153.46a55.87,55.87,0,0,0-13.07,1.19"/></g></g></svg>