<svg xmlns="http://www.w3.org/2000/svg" xmlns:xlink="http://www.w3.org/1999/xlink" viewBox="0 0 84.59 77.73"><defs><style>.cls-1,.cls-6,.cls-9{fill:none;}.cls-2{fill:#e8a77c;stroke:#3a2619;}.cls-10,.cls-2,.cls-6{stroke-linecap:round;stroke-linejoin:round;}.cls-10,.cls-2,.cls-4,.cls-6,.cls-9{stroke-width:2px;}.cls-3{fill:#3a2619;}.cls-4{fill:#fdfaf6;}.cls-4,.cls-9{stroke:#7f4236;stroke-miterlimit:10;}.cls-5{fill:#050001;}.cls-6{stroke:#050001;}.cls-7{clip-path:url(#clip-path);}.cls-8{fill:#ffd6bb;}.cls-10{fill:#9d4a36;stroke:#9d4a36;}</style><clipPath id="clip-path"><path class="cls-1" d="M42.29,73c22.21,0,28.14-8.3,29.09-14.77a21.91,21.91,0,0,0-1.84-12c.44-6.08-1.47-15.61-5.86-20.78-5.09-6-12.67-8.89-21.39-8.89S26,19.48,20.91,25.45c-4.39,5.17-6.31,14.7-5.86,20.78a22,22,0,0,0-1.85,12C14.16,64.65,20.09,73,42.29,73Z"/></clipPath></defs><g id="레이어_2" data-name="레이어 2"><g id="레이어_1-2" data-name="레이어 1"><path class="cls-2" d="M78.7,40.14s-.2-10.69-4.88-19.55a11.94,11.94,0,0,0-18-15.72A40.42,40.42,0,0,0,42.29,2.72,40.4,40.4,0,0,0,28.73,4.87a11.94,11.94,0,0,0-18,15.72C6.09,29.45,5.88,40.14,5.88,40.14s-7,7.46-4.21,19.69c3.21,13.86,22.8,16.9,40.62,16.9s37.42-3,40.63-16.9C85.75,47.6,78.7,40.14,78.7,40.14Z"/><path class="cls-3" d="M24.64,8.35a6.63,6.63,0,0,0-10,8.67Z"/><path class="cls-3" d="M60,8.35A6.62,6.62,0,1,1,70,17Z"/><path class="cls-4" d="M42.29,73c22.21,0,28.14-8.3,29.09-14.77a21.91,21.91,0,0,0-1.84-12c.44-6.08-1.47-15.61-5.86-20.78-5.09-6-12.67-8.89-21.39-8.89S26,19.48,20.91,25.45c-4.39,5.17-6.31,14.7-5.86,20.78a22,22,0,0,0-1.85,12C14.16,64.65,20.09,73,42.29,73Z"/><path class="cls-5" d="M53.83,26.58a38.11,38.11,0,0,1,14.23,7.61S63.59,16.56,42.29,16.56,16.53,34.19,16.53,34.19a38.11,38.11,0,0,1,14.23-7.61L33.33,23l-.08,3a40.61,40.61,0,0,1,18.09,0l-.08-3Z"/><path class="cls-5" d="M36,43.2a2.31,2.31,0,1,1-2.31-2.3A2.31,2.31,0,0,1,36,43.2Z"/><path class="cls-5" d="M48.61,43.2a2.31,2.31,0,1,0,2.31-2.3A2.3,2.3,0,0,0,48.61,43.2Z"/><line class="cls-6" x1="49.58" y1="31.8" x2="52.25" y2="31.54"/><line class="cls-6" x1="35.01" y1="31.8" x2="32.34" y2="31.54"/><g class="cls-7"><path class="cls-8" d="M35.24,57.93A13.17,13.17,0,1,1,22.07,44.76,13.17,13.17,0,0,1,35.24,57.93Z"/><path class="cls-8" d="M49.35,57.93A13.17,13.17,0,1,0,62.52,44.76,13.17,13.17,0,0,0,49.35,57.93Z"/></g><path class="cls-9" d="M42.29,73c22.21,0,28.14-8.3,29.09-14.77a21.91,21.91,0,0,0-1.84-12c.44-6.08-1.47-15.61-5.86-20.78-5.09-6-12.67-8.89-21.39-8.89S26,19.48,20.91,25.45c-4.39,5.17-6.31,14.7-5.86,20.78a22,22,0,0,0-1.85,12C14.16,64.65,20.09,73,42.29,73Z"/><path class="cls-10" d="M46,53.31l-3.74-.9-3.74.9s0,5.85,3.74,5.85S46,53.31,46,53.31Z"/></g></g></svg>