<svg xmlns="http://www.w3.org/2000/svg" xmlns:xlink="http://www.w3.org/1999/xlink" viewBox="0 0 94.01 81.59"><defs><style>.cls-1,.cls-11,.cls-14,.cls-15,.cls-8{fill:none;}.cls-2{fill:#fff;}.cls-14,.cls-2{stroke:#2f2f2f;}.cls-12,.cls-14,.cls-15,.cls-2,.cls-8{stroke-linecap:round;stroke-linejoin:round;}.cls-11,.cls-12,.cls-14,.cls-15,.cls-2,.cls-6,.cls-8{stroke-width:2px;}.cls-3{fill:#eab473;}.cls-4{fill:#3d3025;}.cls-5{fill:#ffc5bb;}.cls-13,.cls-6{fill:#fdfaf6;}.cls-11,.cls-6{stroke:#7f4236;stroke-miterlimit:10;}.cls-7{fill:#050001;}.cls-8{stroke:#050001;}.cls-9{clip-path:url(#clip-path);}.cls-10{fill:#ffd6bb;}.cls-12{fill:#9d4a36;stroke:#9d4a36;}.cls-15{stroke:#73473b;}</style><clipPath id="clip-path"><path class="cls-1" d="M47,76.82c22.2,0,28.13-8.31,29.09-14.78A21.91,21.91,0,0,0,74.25,50.1c.44-6.08-1.47-15.62-5.86-20.79-5.08-6-12.67-8.89-21.38-8.89s-16.3,2.92-21.38,8.89C21.23,34.48,19.32,44,19.76,50.1A21.86,21.86,0,0,0,17.92,62C18.87,68.51,24.8,76.82,47,76.82Z"/></clipPath></defs><g id="레이어_2" data-name="레이어 2"><g id="레이어_1-2" data-name="레이어 1"><path class="cls-2" d="M83.42,44s-.24-12.66-6.22-21.84a39.81,39.81,0,0,0-2.76-3.72c.27-1.09,1.71-8.11-2.67-17.45C63.25,2.18,58.29,5.89,56.43,7.56a46.27,46.27,0,0,0-18.85,0C35.72,5.89,30.76,2.18,22.24,1a32.56,32.56,0,0,0-2.73,8.7l.37.06a2,2,0,1,1-.63,3.87h-.11a19.67,19.67,0,0,0,.43,4.82,38.68,38.68,0,0,0-2.76,3.73C10.83,31.35,10.59,44,10.59,44s-7,7.46-4.21,19.69C9.59,77.56,29.18,80.59,47,80.59s37.41-3,40.62-16.89C90.46,51.47,83.42,44,83.42,44Z"/><path class="cls-1" d="M83.42,44A52.68,52.68,0,0,0,80.6,29.19a12.46,12.46,0,0,1-2.09,1.23c-9,4.13-21-2.84-27.2-15.6a49.1,49.1,0,0,1-4.66,10.53c-9,15.28-24.55,23.53-38,21.37a23,23,0,0,0-2.3,17C9.59,77.56,29.18,80.59,47,80.59s37.41-3,40.62-16.89C90.46,51.47,83.42,44,83.42,44Z"/><path class="cls-3" d="M74.44,18.45c.27-1.09,1.71-8.11-2.67-17.45C63.25,2.18,58.29,5.89,56.43,7.56,55.33,7.32,54.18,7.13,53,7a45.44,45.44,0,0,1-1.69,7.84c6.16,12.76,18.22,19.73,27.2,15.6a12.46,12.46,0,0,0,2.09-1.23,33.63,33.63,0,0,0-3.4-7A39.81,39.81,0,0,0,74.44,18.45Z"/><path class="cls-4" d="M46.65,25.35a49.1,49.1,0,0,0,4.66-10.53l-.3-.63a36.89,36.89,0,0,1-2.55-7.57c-.48,0-1,0-1.45,0a44.13,44.13,0,0,0-9.43,1C35.72,5.89,30.76,2.18,22.24,1a32.56,32.56,0,0,0-2.73,8.7l.37.06a2,2,0,1,1-.63,3.87h-.11a19.67,19.67,0,0,0,.43,4.82,38.68,38.68,0,0,0-2.76,3.73C10.83,31.35,10.59,44,10.59,44a16.11,16.11,0,0,0-1.91,2.71C22.1,48.88,37.65,40.63,46.65,25.35Z"/><path class="cls-4" d="M48.46,6.62A36.89,36.89,0,0,0,51,14.19l.3.63A45.44,45.44,0,0,0,53,7C51.55,6.79,50,6.67,48.46,6.62Z"/><path class="cls-5" d="M65.72,12.57,70.2,15s1-3.55-1.25-8.39c-5.29.74-7.71,3.52-7.71,3.52Z"/><path class="cls-5" d="M28.29,12.57,23.81,15s-1-3.55,1.25-8.39c5.3.74,7.71,3.52,7.71,3.52Z"/><path class="cls-6" d="M47,76.82c22.2,0,28.13-8.31,29.09-14.78A21.91,21.91,0,0,0,74.25,50.1c.44-6.08-1.47-15.62-5.86-20.79-5.08-6-12.67-8.89-21.38-8.89s-16.3,2.92-21.38,8.89C21.23,34.48,19.32,44,19.76,50.1A21.86,21.86,0,0,0,17.92,62C18.87,68.51,24.8,76.82,47,76.82Z"/><path class="cls-7" d="M58.54,30.45a38,38,0,0,1,14.23,7.6S68.31,20.42,47,20.42,21.24,38.05,21.24,38.05a38,38,0,0,1,14.24-7.6L38,26.84l-.08,3a40.66,40.66,0,0,1,18.1,0l-.09-3Z"/><path class="cls-7" d="M40.69,47.07a2.31,2.31,0,1,1-2.3-2.3A2.3,2.3,0,0,1,40.69,47.07Z"/><circle class="cls-7" cx="55.63" cy="47.07" r="2.3"/><line class="cls-8" x1="54.29" y1="35.66" x2="56.97" y2="35.4"/><line class="cls-8" x1="39.72" y1="35.66" x2="37.05" y2="35.4"/><g class="cls-9"><circle class="cls-10" cx="26.78" cy="61.79" r="13.17" transform="translate(-35.85 37.03) rotate(-45)"/><circle class="cls-10" cx="67.23" cy="61.79" r="13.17" transform="translate(-8.54 10.83) rotate(-8.66)"/></g><path class="cls-11" d="M47,76.82c22.2,0,28.13-8.31,29.09-14.78A21.91,21.91,0,0,0,74.25,50.1c.44-6.08-1.47-15.62-5.86-20.79-5.08-6-12.67-8.89-21.38-8.89s-16.3,2.92-21.38,8.89C21.23,34.48,19.32,44,19.76,50.1A21.86,21.86,0,0,0,17.92,62C18.87,68.51,24.8,76.82,47,76.82Z"/><path class="cls-12" d="M52.21,56.4s-3.5.5-5.2-1.25c-1.81,1.7-5.21,1.25-5.21,1.25S42,61.27,47,61.27,52.21,56.4,52.21,56.4Z"/><polygon class="cls-13" points="50.33 57.96 51.23 56.7 50.4 56.65 49.56 56.61 50.33 57.96"/><polygon class="cls-13" points="43.69 57.96 42.78 56.7 43.62 56.65 44.45 56.61 43.69 57.96"/><path class="cls-14" d="M83.42,44s-.24-12.66-6.22-21.84a39.81,39.81,0,0,0-2.76-3.72c.27-1.09,1.71-8.11-2.67-17.45C63.25,2.18,58.29,5.89,56.43,7.56a46.27,46.27,0,0,0-18.85,0C35.72,5.89,30.76,2.18,22.24,1a32.56,32.56,0,0,0-2.73,8.7l.37.06a2,2,0,1,1-.63,3.87h-.11a19.67,19.67,0,0,0,.43,4.82,38.68,38.68,0,0,0-2.76,3.73C10.83,31.35,10.59,44,10.59,44s-7,7.46-4.21,19.69C9.59,77.56,29.18,80.59,47,80.59s37.41-3,40.62-16.89C90.46,51.47,83.42,44,83.42,44Z"/><path class="cls-15" d="M81.76,53.35A48.8,48.8,0,0,1,93,52.6"/><path class="cls-15" d="M81.76,59.36a48.29,48.29,0,0,1,11.24,1"/><path class="cls-15" d="M12.25,53.35A48.8,48.8,0,0,0,1,52.6"/><path class="cls-15" d="M12.25,59.36A48.19,48.19,0,0,0,1,60.38"/></g></g></svg>