<svg xmlns="http://www.w3.org/2000/svg" xmlns:xlink="http://www.w3.org/1999/xlink" viewBox="0 0 84.59 94.16"><defs><style>.cls-1,.cls-11,.cls-8{fill:none;}.cls-2{fill:#fffdf8;stroke:#543210;}.cls-2,.cls-7,.cls-8{stroke-linecap:round;stroke-linejoin:round;}.cls-11,.cls-2,.cls-5,.cls-7,.cls-8{stroke-width:2px;}.cls-3{fill:#ffb255;}.cls-4{fill:#ffe6e3;}.cls-5{fill:#fdfaf6;}.cls-11,.cls-5{stroke:#7f4236;stroke-miterlimit:10;}.cls-6{fill:#050001;}.cls-7{fill:#9d4a36;stroke:#9d4a36;}.cls-8{stroke:#050001;}.cls-9{clip-path:url(#clip-path);}.cls-10{fill:#ffd6bb;}</style><clipPath id="clip-path"><path class="cls-1" d="M42.29,89.39c22.21,0,28.14-8.31,29.09-14.78a21.86,21.86,0,0,0-1.84-11.94c.44-6.08-1.47-15.62-5.86-20.79C58.59,35.91,51,33,42.29,33S26,35.91,20.91,41.88c-4.39,5.17-6.31,14.71-5.86,20.79A21.91,21.91,0,0,0,13.2,74.61C14.16,81.08,20.09,89.39,42.29,89.39Z"/></clipPath></defs><g id="레이어_2" data-name="레이어 2"><g id="레이어_1-2" data-name="레이어 1"><path class="cls-2" d="M78.7,56.58A52,52,0,0,0,75.41,40.5h0C77.85,19,65.26,1.17,58.09,1S46,19.29,46,19.29l0,0c-1.21-.09-2.44-.15-3.72-.15s-2.5.06-3.71.15l0,0S33.66.83,26.5,1,6.74,19,9.18,40.5a52.16,52.16,0,0,0-3.3,16.08s-7,7.46-4.21,19.68c3.21,13.87,22.8,16.9,40.62,16.9s37.42-3,40.63-16.9C85.75,64,78.7,56.58,78.7,56.58Z"/><path class="cls-3" d="M53.85,45.43C61.55,55.14,71.68,61,80.72,61.9h0a18.18,18.18,0,0,0-3.13-5.27A51,51,0,0,0,74.4,41h0C76.76,20,65,2.18,58.07,2S45.87,20.3,45.87,20.3l0,0q-1.08-.09-2.19-.12C44,28.25,47.46,37.37,53.85,45.43Z"/><path class="cls-1" d="M80.72,61.9c-9-.91-19.17-6.76-26.87-16.47C47.46,37.37,44,28.25,43.7,20.2q1.11,0,2.19.12c-1.16-.09-2.35-.15-3.6-.15-.65,0-1.28,0-1.91,0-.33,8.05-3.76,17.16-10.15,25.22C22.68,55,12.79,60.76,3.89,61.84a22.83,22.83,0,0,0-1,14C6,89.32,25,92.27,42.29,92.27s36.28-3,39.39-16.46A22.84,22.84,0,0,0,80.72,61.9Z"/><path class="cls-3" d="M30.23,45.43c6.39-8.06,9.82-17.17,10.15-25.22-.57,0-1.13.06-1.69.11l0,0S33.38,1.92,26.44,2.08,7.83,20,10.19,41A50.89,50.89,0,0,0,7,56.63a18.34,18.34,0,0,0-3.1,5.21C12.79,60.76,22.68,55,30.23,45.43Z"/><path class="cls-4" d="M53.89,20.09s2.21-8.28,5.43-8.21S68.19,20,67.1,29.61Z"/><path class="cls-4" d="M30.7,20.09s-2.22-8.28-5.43-8.21S16.4,20,17.49,29.61Z"/><path class="cls-5" d="M42.29,89.39c22.21,0,28.14-8.31,29.09-14.78a21.86,21.86,0,0,0-1.84-11.94c.44-6.08-1.47-15.62-5.86-20.79C58.59,35.91,51,33,42.29,33S26,35.91,20.91,41.88c-4.39,5.17-6.31,14.71-5.86,20.79A21.91,21.91,0,0,0,13.2,74.61C14.16,81.08,20.09,89.39,42.29,89.39Z"/><path class="cls-6" d="M53.83,43a38,38,0,0,1,14.23,7.6S63.59,33,42.29,33,16.53,50.62,16.53,50.62A38,38,0,0,1,30.76,43l2.57-3.62-.08,3a40.23,40.23,0,0,1,18.09,0l-.08-3Z"/><path class="cls-6" d="M36,59.64a2.31,2.31,0,1,1-2.31-2.31A2.31,2.31,0,0,1,36,59.64Z"/><path class="cls-6" d="M48.61,59.64a2.31,2.31,0,1,0,2.31-2.31A2.3,2.3,0,0,0,48.61,59.64Z"/><path class="cls-7" d="M42.29,77c6.28,0,5.25-9.1,5.25-9.1H37.05S36,77,42.29,77Z"/><line class="cls-8" x1="49.58" y1="48.23" x2="52.25" y2="47.97"/><line class="cls-8" x1="35.01" y1="48.23" x2="32.34" y2="47.97"/><g class="cls-9"><circle class="cls-10" cx="22.07" cy="74.36" r="13.17"/><circle class="cls-10" cx="62.52" cy="74.36" r="13.17"/></g><path class="cls-11" d="M42.29,89.39c22.21,0,28.14-8.31,29.09-14.78a21.86,21.86,0,0,0-1.84-11.94c.44-6.08-1.47-15.62-5.86-20.79C58.59,35.91,51,33,42.29,33S26,35.91,20.91,41.88c-4.39,5.17-6.31,14.71-5.86,20.79A21.91,21.91,0,0,0,13.2,74.61C14.16,81.08,20.09,89.39,42.29,89.39Z"/></g></g></svg>