<svg xmlns="http://www.w3.org/2000/svg" xmlns:xlink="http://www.w3.org/1999/xlink" viewBox="0 0 100.15 84.74"><defs><style>.cls-1,.cls-12,.cls-13,.cls-7,.cls-9{fill:none;}.cls-2{fill:#c5eaff;}.cls-13,.cls-2{stroke:#274263;}.cls-13,.cls-2,.cls-7,.cls-8,.cls-9{stroke-linecap:round;stroke-linejoin:round;}.cls-12,.cls-13,.cls-2,.cls-5,.cls-7,.cls-8,.cls-9{stroke-width:2px;}.cls-3{clip-path:url(#clip-path);}.cls-4{fill:#fff;}.cls-5{fill:#fdfaf6;}.cls-12,.cls-5{stroke:#7f4236;stroke-miterlimit:10;}.cls-6{fill:#050001;}.cls-7{stroke:#030000;}.cls-8{fill:#9d4a36;stroke:#9d4a36;}.cls-9{stroke:#050001;}.cls-10{clip-path:url(#clip-path-2);}.cls-11{fill:#ffd6bb;}</style><clipPath id="clip-path"><path class="cls-1" d="M78.7,47.16s-.23-12.66-6.21-21.84C66.11,15.54,56.62,9.74,42.29,9.74c-.63,0-1.24,0-1.85,0C38.22,8.42,35.74,7,33.05,5.47,24.28.64,19.81-.07,16.53,2.36s-2.84,7.82.73,16.63a36.91,36.91,0,0,0-5.16,6.33c-6,9.18-6.22,21.84-6.22,21.84s-7,7.46-4.21,19.68c3.21,13.87,22.8,16.9,40.62,16.9s37.42-3,40.63-16.9C85.75,54.62,78.7,47.16,78.7,47.16Z"/></clipPath><clipPath id="clip-path-2"><path class="cls-1" d="M42.3,80c22.2,0,28.13-8.31,29.08-14.78a21.86,21.86,0,0,0-1.84-11.94c.44-6.09-1.47-15.62-5.86-20.79-5.09-6-12.67-8.89-21.38-8.89S26,26.49,20.91,32.46c-4.39,5.17-6.3,14.7-5.86,20.79a21.86,21.86,0,0,0-1.84,11.94C14.16,71.66,20.09,80,42.3,80Z"/></clipPath></defs><g id="레이어_2" data-name="레이어 2"><g id="레이어_1-2" data-name="레이어 1"><path class="cls-2" d="M10,37.4S3.29,31.87,5,28.17,15.3,26.09,15.3,26.09"/><path class="cls-2" d="M83.24,63.83s2.84,1.61,4.9,1.37c0,0,1.7-6.61,6.38-6.73,3.85-.1.22,5,.82,7.47.68,2.75,4,4.59,3.8,6.46S92.82,74.51,90.21,71c0,0-5.27,4.9-12.47,4.42"/><path class="cls-2" d="M78.7,47.16s-.23-12.66-6.21-21.84C66.11,15.54,56.62,9.74,42.29,9.74c-.63,0-1.24,0-1.85,0C38.22,8.42,35.74,7,33.05,5.47,24.28.64,19.81-.07,16.53,2.36s-2.84,7.82.73,16.63a36.91,36.91,0,0,0-5.16,6.33c-6,9.18-6.22,21.84-6.22,21.84s-7,7.46-4.21,19.68c3.21,13.87,22.8,16.9,40.62,16.9s37.42-3,40.63-16.9C85.75,54.62,78.7,47.16,78.7,47.16Z"/><g class="cls-3"><path class="cls-4" d="M46,19.58c-1.56-.2-17-10.86-24.45-6.93-6.06,3.21-.9,13.45-.9,13.45S10.07,35.26,15,52.76h0l54.52.49S78,23.57,46,19.58Z"/></g><path class="cls-5" d="M42.3,80c22.2,0,28.13-8.31,29.08-14.78a21.86,21.86,0,0,0-1.84-11.94c.44-6.09-1.47-15.62-5.86-20.79-5.09-6-12.67-8.89-21.38-8.89S26,26.49,20.91,32.46c-4.39,5.17-6.3,14.7-5.86,20.79a21.86,21.86,0,0,0-1.84,11.94C14.16,71.66,20.09,80,42.3,80Z"/><path class="cls-6" d="M53.83,33.6a38,38,0,0,1,14.23,7.6S63.59,23.57,42.3,23.57,16.53,41.2,16.53,41.2a38,38,0,0,1,14.23-7.6L33.33,30l-.08,3a40.23,40.23,0,0,1,18.09,0l-.08-3Z"/><polyline class="cls-7" points="33.05 48.62 35.35 50.15 33.05 51.82"/><polyline class="cls-7" points="51.54 48.62 49.24 50.15 51.54 51.82"/><path class="cls-8" d="M42.3,67.56c6.27,0,5.24-9.1,5.24-9.1H37.05S36,67.56,42.3,67.56Z"/><line class="cls-9" x1="49.84" y1="38.67" x2="52" y2="38.69"/><line class="cls-9" x1="34.76" y1="38.67" x2="32.6" y2="38.69"/><g class="cls-10"><path class="cls-11" d="M35.24,64.94A13.17,13.17,0,1,1,22.07,51.77,13.17,13.17,0,0,1,35.24,64.94Z"/><path class="cls-11" d="M49.35,64.94A13.17,13.17,0,1,0,62.52,51.77,13.17,13.17,0,0,0,49.35,64.94Z"/></g><path class="cls-12" d="M42.3,80c22.2,0,28.13-8.31,29.08-14.78a21.86,21.86,0,0,0-1.84-11.94c.44-6.09-1.47-15.62-5.86-20.79-5.09-6-12.67-8.89-21.38-8.89S26,26.49,20.91,32.46c-4.39,5.17-6.3,14.7-5.86,20.79a21.86,21.86,0,0,0-1.84,11.94C14.16,71.66,20.09,80,42.3,80Z"/><path class="cls-13" d="M50.92,16.76A172.69,172.69,0,0,0,33.05,5.47C24.28.64,19.81-.07,16.53,2.36c-3.65,2.69-1.34,12.24,3.78,23.38"/><path class="cls-13" d="M78.7,47.16s-.23-12.66-6.21-21.84C66.11,15.54,56.62,9.74,42.29,9.74c-.63,0-1.24,0-1.85,0C38.22,8.42,35.74,7,33.05,5.47,24.28.64,19.81-.07,16.53,2.36s-2.84,7.82.73,16.63a36.91,36.91,0,0,0-5.16,6.33c-6,9.18-6.22,21.84-6.22,21.84s-7,7.46-4.21,19.68c3.21,13.87,22.8,16.9,40.62,16.9s37.42-3,40.63-16.9C85.75,54.62,78.7,47.16,78.7,47.16Z"/><path class="cls-2" d="M74.61,37.4s6.69-5.53,5-9.23-10.27-2.08-10.27-2.08"/></g></g></svg>