<svg xmlns="http://www.w3.org/2000/svg" xmlns:xlink="http://www.w3.org/1999/xlink" viewBox="0 0 120.21 91.83"><defs><style>.cls-1,.cls-10,.cls-11,.cls-5,.cls-7{fill:none;}.cls-2{fill:#f9bbd8;}.cls-11,.cls-2{stroke:#662e49;}.cls-11,.cls-2,.cls-5,.cls-6,.cls-7{stroke-linecap:round;stroke-linejoin:round;}.cls-10,.cls-11,.cls-2,.cls-3,.cls-5,.cls-6,.cls-7{stroke-width:2px;}.cls-3{fill:#fdfaf6;}.cls-10,.cls-3{stroke:#7f4236;stroke-miterlimit:10;}.cls-4{fill:#050001;}.cls-5{stroke:#030000;}.cls-6{fill:#9d4a36;stroke:#9d4a36;}.cls-7{stroke:#050001;}.cls-8{clip-path:url(#clip-path);}.cls-9{fill:#ffd6bb;}</style><clipPath id="clip-path"><path class="cls-1" d="M60.1,82.43c22.21,0,28.14-8.31,29.09-14.78a21.86,21.86,0,0,0-1.84-11.94c.44-6.08-1.47-15.62-5.86-20.78C76.4,29,68.82,26,60.1,26S43.8,29,38.72,34.93c-4.39,5.16-6.31,14.7-5.86,20.78A21.91,21.91,0,0,0,31,67.65C32,74.12,37.9,82.43,60.1,82.43Z"/></clipPath></defs><g id="레이어_2" data-name="레이어 2"><g id="레이어_1-2" data-name="레이어 1"><path class="cls-2" d="M50.88,43.17a25.48,25.48,0,0,1-31.77,17h0a25.48,25.48,0,0,1-17-31.77l2.81-9.3a25.48,25.48,0,0,1,31.77-17h0a25.48,25.48,0,0,1,17,31.77Z"/><path class="cls-2" d="M69.33,43.17a25.48,25.48,0,0,0,31.77,17h0a25.49,25.49,0,0,0,17-31.77l-2.82-9.3a25.47,25.47,0,0,0-31.76-17h0a25.48,25.48,0,0,0-17,31.77Z"/><path class="cls-2" d="M60.11,86.21c17.82,0,37.41-3,40.62-16.9,2.83-12.23-4.21-19.69-4.21-19.69S96.28,37,90.3,27.79C83.93,18,74.43,12.2,60.11,12.2S36.28,18,29.91,27.79c-6,9.17-6.22,21.83-6.22,21.83s-7,7.46-4.21,19.69C22.69,83.17,42.28,86.21,60.11,86.21Z"/><path class="cls-3" d="M60.1,82.43c22.21,0,28.14-8.31,29.09-14.78a21.86,21.86,0,0,0-1.84-11.94c.44-6.08-1.47-15.62-5.86-20.78C76.4,29,68.82,26,60.1,26S43.8,29,38.72,34.93c-4.39,5.16-6.31,14.7-5.86,20.78A21.91,21.91,0,0,0,31,67.65C32,74.12,37.9,82.43,60.1,82.43Z"/><path class="cls-4" d="M71.64,36.06a38,38,0,0,1,14.23,7.61S81.4,26,60.1,26,34.34,43.67,34.34,43.67a38,38,0,0,1,14.23-7.61l2.57-3.61-.08,3a40.61,40.61,0,0,1,18.09,0l-.08-3Z"/><polyline class="cls-5" points="50.86 51.08 53.16 52.61 50.86 54.28"/><polyline class="cls-5" points="69.35 51.08 67.05 52.61 69.35 54.28"/><path class="cls-6" d="M60.1,70c6.28,0,5.25-9.09,5.25-9.09H54.86S53.83,70,60.1,70Z"/><line class="cls-7" x1="67.64" y1="41.14" x2="69.8" y2="41.15"/><line class="cls-7" x1="52.56" y1="41.14" x2="50.4" y2="41.15"/><g class="cls-8"><path class="cls-9" d="M53.05,67.4A13.17,13.17,0,1,1,39.88,54.23,13.17,13.17,0,0,1,53.05,67.4Z"/><path class="cls-9" d="M67.16,67.4A13.17,13.17,0,1,0,80.33,54.23,13.17,13.17,0,0,0,67.16,67.4Z"/></g><path class="cls-10" d="M60.1,82.43c22.21,0,28.14-8.31,29.09-14.78a21.86,21.86,0,0,0-1.84-11.94c.44-6.08-1.47-15.62-5.86-20.78C76.4,29,68.82,26,60.1,26S43.8,29,38.72,34.93c-4.39,5.16-6.31,14.7-5.86,20.78A21.91,21.91,0,0,0,31,67.65C32,74.12,37.9,82.43,60.1,82.43Z"/><path class="cls-2" d="M59.69,57.17c-4,0-6.87,2.3-6.87,6.26s-.08,23.14,17.51,27c5.19,1.12,7.62,0,8.5-2.44s.65-5.8-4.44-7.5c-4.5-1.5-8-8.81-7.63-16.8C67,57.05,59.69,57.17,59.69,57.17Z"/><path class="cls-11" d="M65.41,59.41s13-3.26,21.94-3.7"/><path class="cls-11" d="M54.28,59.28s-12.44-3.13-21.42-3.57"/><path class="cls-11" d="M57.87,63.64a17.85,17.85,0,0,1,8.89,0"/><path class="cls-11" d="M58.87,69.81a19.63,19.63,0,0,1,5.25-.59"/><path class="cls-11" d="M60.45,75.39a22,22,0,0,1,4.63-1.3"/><path class="cls-11" d="M62.76,79.64a11.73,11.73,0,0,1,4-1.79"/><path class="cls-11" d="M69.32,81a8.49,8.49,0,0,0-2.77,2.4"/></g></g></svg>