<svg xmlns="http://www.w3.org/2000/svg" xmlns:xlink="http://www.w3.org/1999/xlink" viewBox="0 0 89.96 95.69"><defs><style>.cls-1,.cls-10,.cls-11,.cls-7{fill:none;}.cls-2{fill:#ffd252;}.cls-2,.cls-3{stroke:#603e16;}.cls-11,.cls-2,.cls-3,.cls-7{stroke-linecap:round;stroke-linejoin:round;}.cls-10,.cls-11,.cls-2,.cls-3,.cls-5,.cls-7{stroke-width:2px;}.cls-3{fill:#603e16;}.cls-4{clip-path:url(#clip-path);}.cls-5{fill:#fdfaf6;}.cls-10,.cls-5{stroke:#7f4236;stroke-miterlimit:10;}.cls-6{fill:#050001;}.cls-7{stroke:#050001;}.cls-8{clip-path:url(#clip-path-2);}.cls-9{fill:#ffd6bb;}.cls-11{stroke:#9d4a36;}</style><clipPath id="clip-path" transform="translate(0)"><path class="cls-1" d="M42.29,88c17.83,0,37.42-3,40.63-16.9,2.83-12.22-4.22-19.69-4.22-19.69s-.23-12.65-6.21-21.83C66.11,19.8,56.62,14,42.29,14S18.47,19.8,12.1,29.59c-6,9.18-6.22,21.83-6.22,21.83s-7,7.47-4.21,19.69C4.88,85,24.47,88,42.29,88Z"/></clipPath><clipPath id="clip-path-2" transform="translate(0)"><path class="cls-1" d="M42.29,84.24c22.21,0,28.14-8.31,29.09-14.78a21.91,21.91,0,0,0-1.84-11.95c.44-6.08-1.47-15.61-5.86-20.78-5.09-6-12.67-8.89-21.39-8.89S26,30.76,20.91,36.73c-4.39,5.17-6.31,14.7-5.86,20.78A22,22,0,0,0,13.2,69.46C14.16,75.93,20.09,84.24,42.29,84.24Z"/></clipPath></defs><g id="레이어_2" data-name="레이어 2"><g id="레이어_1-2" data-name="레이어 1"><path class="cls-2" d="M17.71,12.26c5,3.45,4.34,10,4.34,10s-5.95,2.94-10.94-.51-4.33-10-4.33-10S12.73,8.81,17.71,12.26Z" transform="translate(0)"/><path class="cls-2" d="M66.87,12.26c-5,3.45-4.33,10-4.33,10s5.94,2.94,10.93-.51,4.34-10,4.34-10S71.86,8.81,66.87,12.26Z" transform="translate(0)"/><rect class="cls-2" x="47.62" y="7" width="3.86" height="11.92"/><path class="cls-3" d="M53.59,5a4,4,0,1,1-4-4A4,4,0,0,1,53.59,5Z" transform="translate(0)"/><rect class="cls-2" x="33.1" y="7" width="3.86" height="11.92"/><path class="cls-3" d="M31,5a4,4,0,1,0,4-4A4,4,0,0,0,31,5Z" transform="translate(0)"/><path class="cls-2" d="M42.29,88c17.83,0,37.42-3,40.63-16.9,2.83-12.22-4.22-19.69-4.22-19.69s-.23-12.65-6.21-21.83C66.11,19.8,56.62,14,42.29,14S18.47,19.8,12.1,29.59c-6,9.18-6.22,21.83-6.22,21.83s-7,7.47-4.21,19.69C4.88,85,24.47,88,42.29,88Z" transform="translate(0)"/><g class="cls-4"><path class="cls-3" d="M14.35,40.13a6.68,6.68,0,1,1-6.67-6.68A6.67,6.67,0,0,1,14.35,40.13Z" transform="translate(0)"/><circle class="cls-3" cx="25.66" cy="18.1" r="6.68"/><path class="cls-3" d="M82.16,34.05a6.68,6.68,0,1,1-6.68-6.68A6.67,6.67,0,0,1,82.16,34.05Z" transform="translate(0)"/><path class="cls-3" d="M89,63.47a6.68,6.68,0,1,1-6.67-6.68A6.67,6.67,0,0,1,89,63.47Z" transform="translate(0)"/><path class="cls-3" d="M32.36,88a6.68,6.68,0,1,1-6.68-6.68A6.68,6.68,0,0,1,32.36,88Z" transform="translate(0)"/><path class="cls-3" d="M70.17,84.24a6.68,6.68,0,1,1-6.67-6.68A6.67,6.67,0,0,1,70.17,84.24Z" transform="translate(0)"/><path class="cls-3" d="M18.51,65.51a6.68,6.68,0,1,1-6.68-6.68A6.68,6.68,0,0,1,18.51,65.51Z" transform="translate(0)"/><path class="cls-3" d="M56.91,28.52a6.68,6.68,0,1,1-6.67-6.68A6.68,6.68,0,0,1,56.91,28.52Z" transform="translate(0)"/></g><path class="cls-5" d="M42.29,84.24c22.21,0,28.14-8.31,29.09-14.78a21.91,21.91,0,0,0-1.84-11.95c.44-6.08-1.47-15.61-5.86-20.78-5.09-6-12.67-8.89-21.39-8.89S26,30.76,20.91,36.73c-4.39,5.17-6.31,14.7-5.86,20.78A22,22,0,0,0,13.2,69.46C14.16,75.93,20.09,84.24,42.29,84.24Z" transform="translate(0)"/><path class="cls-6" d="M53.83,37.87a38,38,0,0,1,14.23,7.6S63.59,27.84,42.29,27.84,16.53,45.47,16.53,45.47a38,38,0,0,1,14.23-7.6l2.57-3.62-.08,3a40.23,40.23,0,0,1,18.09,0l-.08-3Z" transform="translate(0)"/><path class="cls-6" d="M36,54.49a2.31,2.31,0,1,1-2.31-2.31A2.31,2.31,0,0,1,36,54.49Z" transform="translate(0)"/><circle class="cls-6" cx="50.92" cy="54.49" r="2.3"/><path class="cls-7" d="M49.57,42.79a3.85,3.85,0,0,1,2.66.32" transform="translate(0)"/><path class="cls-7" d="M35,42.79a3.82,3.82,0,0,0-2.65.32" transform="translate(0)"/><g class="cls-8"><circle class="cls-9" cx="22.07" cy="69.21" r="13.17" transform="translate(-50.35 74.88) rotate(-76.79)"/><circle class="cls-9" cx="62.52" cy="69.21" r="13.17" transform="translate(-12.07 13.22) rotate(-11.01)"/></g><path class="cls-10" d="M42.29,84.24c22.21,0,28.14-8.31,29.09-14.78a21.91,21.91,0,0,0-1.84-11.95c.44-6.08-1.47-15.61-5.86-20.78-5.09-6-12.67-8.89-21.39-8.89S26,30.76,20.91,36.73c-4.39,5.17-6.31,14.7-5.86,20.78A22,22,0,0,0,13.2,69.46C14.16,75.93,20.09,84.24,42.29,84.24Z" transform="translate(0)"/><path class="cls-11" d="M38.78,64.69a4.13,4.13,0,0,0,3.51,1.63,4.11,4.11,0,0,0,3.51-1.63" transform="translate(0)"/></g></g></svg>