<svg xmlns="http://www.w3.org/2000/svg" xmlns:xlink="http://www.w3.org/1999/xlink" viewBox="0 0 84.59 77.71"><defs><style>.cls-1,.cls-5,.cls-8,.cls-9{fill:none;}.cls-2{fill:#b7b6ef;stroke:#423a70;}.cls-2,.cls-5,.cls-9{stroke-linecap:round;stroke-linejoin:round;}.cls-2,.cls-3,.cls-5,.cls-8,.cls-9{stroke-width:2px;}.cls-3{fill:#fdfaf6;}.cls-3,.cls-8{stroke:#7f4236;stroke-miterlimit:10;}.cls-4{fill:#050001;}.cls-5{stroke:#050001;}.cls-6{clip-path:url(#clip-path);}.cls-7{fill:#ffd6bb;}.cls-9{stroke:#9d4a36;}.cls-10{fill:#423a70;}</style><clipPath id="clip-path"><path class="cls-1" d="M42.29,72.94c22.21,0,28.14-8.31,29.09-14.78a21.91,21.91,0,0,0-1.84-11.95c.44-6.08-1.47-15.61-5.86-20.78-5.09-6-12.67-8.89-21.39-8.89S26,19.46,20.91,25.43c-4.39,5.17-6.31,14.7-5.86,20.78A22,22,0,0,0,13.2,58.16C14.16,64.63,20.09,72.94,42.29,72.94Z"/></clipPath></defs><g id="레이어_2" data-name="레이어 2"><g id="레이어_1-2" data-name="레이어 1"><path class="cls-2" d="M78.7,40.12s-.23-12.65-6.21-21.83A33.22,33.22,0,0,0,60,6.64c5.34.53,3.8-7.65.9-5.17a16.21,16.21,0,0,1-5.59,3.2,40.7,40.7,0,0,0-13-2,40.68,40.68,0,0,0-13,2,16.12,16.12,0,0,1-5.59-3.2c-2.9-2.48-4.44,5.7.9,5.17A33.15,33.15,0,0,0,12.1,18.29c-6,9.18-6.22,21.83-6.22,21.83s-7,7.47-4.21,19.69c3.21,13.87,22.8,16.9,40.62,16.9s37.42-3,40.63-16.9C85.75,47.59,78.7,40.12,78.7,40.12Z"/><path class="cls-3" d="M42.29,72.94c22.21,0,28.14-8.31,29.09-14.78a21.91,21.91,0,0,0-1.84-11.95c.44-6.08-1.47-15.61-5.86-20.78-5.09-6-12.67-8.89-21.39-8.89S26,19.46,20.91,25.43c-4.39,5.17-6.31,14.7-5.86,20.78A22,22,0,0,0,13.2,58.16C14.16,64.63,20.09,72.94,42.29,72.94Z"/><path class="cls-4" d="M36,43.19a2.31,2.31,0,1,1-2.31-2.31A2.31,2.31,0,0,1,36,43.19Z"/><path class="cls-4" d="M48.61,43.19a2.31,2.31,0,1,0,2.31-2.31A2.3,2.3,0,0,0,48.61,43.19Z"/><line class="cls-5" x1="49.58" y1="32.78" x2="52.25" y2="32.52"/><line class="cls-5" x1="35.01" y1="32.78" x2="32.34" y2="32.52"/><g class="cls-6"><path class="cls-7" d="M35.24,57.91A13.17,13.17,0,1,1,22.07,44.74,13.17,13.17,0,0,1,35.24,57.91Z"/><path class="cls-7" d="M49.35,57.91A13.17,13.17,0,1,0,62.52,44.74,13.17,13.17,0,0,0,49.35,57.91Z"/></g><path class="cls-4" d="M53.83,28.57a75.72,75.72,0,0,1,14.23,5.6S63.59,16.54,42.3,16.54,16.53,34.17,16.53,34.17a75.72,75.72,0,0,1,14.23-5.6L33.33,23l-.08,5a40.23,40.23,0,0,1,18.09,0l-.08-5Z"/><path class="cls-8" d="M42.29,72.94c22.21,0,28.14-8.31,29.09-14.78a21.91,21.91,0,0,0-1.84-11.95c.44-6.08-1.47-15.61-5.86-20.78-5.09-6-12.67-8.89-21.39-8.89S26,19.46,20.91,25.43c-4.39,5.17-6.31,14.7-5.86,20.78A22,22,0,0,0,13.2,58.16C14.16,64.63,20.09,72.94,42.29,72.94Z"/><polyline class="cls-9" points="46.13 55.05 42.29 52.72 38.46 55.05"/><path class="cls-2" d="M42.29,22.52a72.4,72.4,0,0,0,11.92,7.23A25.11,25.11,0,0,0,67.27,32c7-.51,4.73-9.32,2.19-12.32a22.22,22.22,0,0,0-12-8.17A34.62,34.62,0,0,0,54,10.65a2.14,2.14,0,0,0-4.24-.46,25,25,0,0,0-7.45.66,24.87,24.87,0,0,0-7.44-.66,2.14,2.14,0,0,0-4.24.46,34,34,0,0,0-3.48.82,22.17,22.17,0,0,0-12,8.17c-2.54,3-4.78,11.81,2.18,12.32a25.15,25.15,0,0,0,13.07-2.21A72,72,0,0,0,42.29,22.52Z"/><path class="cls-10" d="M20.16,24a1,1,0,1,1-1-1A1,1,0,0,1,20.16,24Z"/><path class="cls-10" d="M25.28,25.06a1,1,0,0,1-2.08,0,1,1,0,0,1,2.08,0Z"/><path class="cls-10" d="M24.24,20.6a1,1,0,1,1-1-1A1,1,0,0,1,24.24,20.6Z"/><path class="cls-10" d="M60.64,24a1,1,0,1,1-1-1A1,1,0,0,1,60.64,24Z"/><path class="cls-10" d="M65.76,25.06a1,1,0,0,1-2.08,0,1,1,0,0,1,2.08,0Z"/><path class="cls-10" d="M64.72,20.6a1,1,0,1,1-1-1A1,1,0,0,1,64.72,20.6Z"/></g></g></svg>