<svg xmlns="http://www.w3.org/2000/svg" xmlns:xlink="http://www.w3.org/1999/xlink" viewBox="0 0 109.47 103.94"><defs><style>.cls-1,.cls-10,.cls-7{fill:none;}.cls-2{fill:#b7805a;stroke:#473222;}.cls-2,.cls-3,.cls-6,.cls-7{stroke-linecap:round;stroke-linejoin:round;}.cls-10,.cls-2,.cls-3,.cls-4,.cls-6,.cls-7{stroke-width:2px;}.cls-3{fill:#eab473;stroke:#493016;}.cls-4{fill:#fdfaf6;}.cls-10,.cls-4{stroke:#7f4236;stroke-miterlimit:10;}.cls-5{fill:#050001;}.cls-6{fill:#9d4a36;stroke:#9d4a36;}.cls-7{stroke:#050001;}.cls-8{clip-path:url(#clip-path);}.cls-9{fill:#ffd6bb;}.cls-11{fill:#493016;}</style><clipPath id="clip-path"><path class="cls-1" d="M54.74,86.82c22.2,0,28.13-8.3,29.09-14.78A21.91,21.91,0,0,0,82,60.1c.44-6.08-1.47-15.61-5.86-20.78-5.08-6-12.67-8.89-21.38-8.89s-16.3,2.92-21.38,8.89C29,44.49,27.05,54,27.49,60.1A21.86,21.86,0,0,0,25.65,72C26.6,78.52,32.53,86.82,54.74,86.82Z"/></clipPath></defs><g id="레이어_2" data-name="레이어 2"><g id="레이어_1-2" data-name="레이어 1"><path class="cls-2" d="M52.22,5.8S50.63,2.72,43,4c-5.33.86-7.22-2.1-7.22-2.1s-1.13,5.67,1.24,6.65c0,0-5.35-2.24-11.61,1.78a26,26,0,0,1,4.86,1.8,27.19,27.19,0,0,0-6.87,1.48,6.76,6.76,0,0,1-6,0,5.82,5.82,0,0,0,3.75,4.55s-6.27,1.05-9,11.54c0,0-3.88,5.09-7,6.08A15.22,15.22,0,0,0,10.69,37S5.44,41,4.94,45c0,0,2.75-2,4.37-1.47,0,0-1,6.28-8.31,6.9a4.47,4.47,0,0,0,4.31,3.52,8,8,0,0,0-.66,7.69c1.91,4.19-1.46,6.65-2.59,6.28a3.83,3.83,0,0,0,4.88,1,13,13,0,0,0,.71,11.33,7.92,7.92,0,0,1,1.83-3,18.14,18.14,0,0,0,8.67,11.67s3.41,3.28,1.5,4.76c0,0,2.91-.33,3.16-2.46,0,0,2.07,4.51,6.28,5.33a10.35,10.35,0,0,1-.52-3.47s7.66,5,15.24,5.21,7.35,4.65,7.35,4.65,3.8-1.26,4.34-4.42c-.34,1.89,2.75,3.61,2.75,3.61s-.17-3.69,7.41-3.84S80.9,93.08,80.9,93.08a10.08,10.08,0,0,1-.52,3.47c4.22-.82,6.28-5.33,6.28-5.33.25,2.13,3.17,2.46,3.17,2.46-1.92-1.48,1.5-4.76,1.5-4.76A18.15,18.15,0,0,0,100,77.25a7.87,7.87,0,0,1,1.84,3,13.08,13.08,0,0,0,.71-11.33,3.82,3.82,0,0,0,4.87-1c-1.12.37-4.5-2.09-2.59-6.28a8,8,0,0,0-.66-7.69,4.45,4.45,0,0,0,4.31-3.52c-7.31-.62-8.31-6.9-8.31-6.9,1.63-.49,4.38,1.47,4.38,1.47-.5-3.94-5.75-8-5.75-8a15.29,15.29,0,0,0,5.5-1.23c-3.13-1-7-6.08-7-6.08-2.74-10.49-9-11.54-9-11.54A5.84,5.84,0,0,0,92,13.57a6.76,6.76,0,0,1-6,0,27.23,27.23,0,0,0-6.88-1.48A26.24,26.24,0,0,1,84,10.29c-6.27-4-11.62-1.78-11.62-1.78C74.79,7.53,75.29,4,75.29,4s-1.75,3.21-6.75,1.23c-6.84-2.71-11.38-.93-11.38-.93C57.41,3.46,58.29,1,58.29,1A9.08,9.08,0,0,0,52.22,5.8Z"/><path class="cls-3" d="M91.15,54s-.24-12.65-6.22-21.83a34.93,34.93,0,0,0-8.12-8.88c.48-1,3.57-7.85-3-10.58-5.94-2.48-8.72,3-9.46,4.88a46.18,46.18,0,0,0-19.21,0c-.74-1.84-3.52-7.36-9.46-4.88-6.57,2.73-3.48,9.61-3,10.58a35.12,35.12,0,0,0-8.12,8.88C18.56,41.36,18.33,54,18.33,54s-7,7.46-4.22,19.69c3.21,13.86,22.8,16.9,40.63,16.9s37.42-3,40.62-16.9C98.19,61.47,91.15,54,91.15,54Z"/><path class="cls-4" d="M54.74,86.82c22.2,0,28.13-8.3,29.09-14.78A21.91,21.91,0,0,0,82,60.1c.44-6.08-1.47-15.61-5.86-20.78-5.08-6-12.67-8.89-21.38-8.89s-16.3,2.92-21.38,8.89C29,44.49,27.05,54,27.49,60.1A21.86,21.86,0,0,0,25.65,72C26.6,78.52,32.53,86.82,54.74,86.82Z"/><path class="cls-5" d="M66.27,40.45A38.11,38.11,0,0,1,80.5,48.06S76,30.43,54.74,30.43,29,48.06,29,48.06a38.1,38.1,0,0,1,14.24-7.61l2.56-3.61-.08,3a40.66,40.66,0,0,1,18.1,0l-.09-3Z"/><path class="cls-5" d="M48.42,57.07a2.31,2.31,0,1,1-2.3-2.3A2.3,2.3,0,0,1,48.42,57.07Z"/><path class="cls-5" d="M61.05,57.07a2.31,2.31,0,1,0,2.31-2.3A2.31,2.31,0,0,0,61.05,57.07Z"/><path class="cls-6" d="M54.74,74.42c6.27,0,5.25-9.1,5.25-9.1H49.49S48.46,74.42,54.74,74.42Z"/><line class="cls-7" x1="62.02" y1="45.67" x2="64.7" y2="45.41"/><line class="cls-7" x1="47.45" y1="45.67" x2="44.78" y2="45.41"/><g class="cls-8"><circle class="cls-9" cx="34.51" cy="71.79" r="13.17"/><circle class="cls-9" cx="74.96" cy="71.79" r="13.17"/></g><path class="cls-10" d="M54.74,86.82c22.2,0,28.13-8.3,29.09-14.78A21.91,21.91,0,0,0,82,60.1c.44-6.08-1.47-15.61-5.86-20.78-5.08-6-12.67-8.89-21.38-8.89s-16.3,2.92-21.38,8.89C29,44.49,27.05,54,27.49,60.1A21.86,21.86,0,0,0,25.65,72C26.6,78.52,32.53,86.82,54.74,86.82Z"/><path class="cls-11" d="M70.44,19.79l2.71,1.13s1.77-3.32-1.27-4.59-4.14,2.34-4.14,2.34Z"/><path class="cls-11" d="M39,19.79l-2.7,1.13s-1.77-3.32,1.26-4.59,4.15,2.34,4.15,2.34Z"/><path class="cls-2" d="M47.79,14.15S46.41,18,49.16,20.4a15,15,0,0,1,2.33-3.13s0,4.08,5.38,5.63c0,0,2.46-5,4.83-7.46"/></g></g></svg>