<svg xmlns="http://www.w3.org/2000/svg" xmlns:xlink="http://www.w3.org/1999/xlink" viewBox="0 0 116.78 89.14"><defs><style>.cls-1,.cls-11,.cls-6,.cls-8{fill:none;}.cls-2{fill:#b7805a;stroke:#473222;}.cls-12,.cls-2,.cls-6,.cls-7,.cls-8{stroke-linecap:round;stroke-linejoin:round;}.cls-11,.cls-12,.cls-2,.cls-4,.cls-6,.cls-7,.cls-8{stroke-width:2px;}.cls-3{fill:#ffc5bb;}.cls-4{fill:#fdfaf6;}.cls-11,.cls-4{stroke:#7f4236;stroke-miterlimit:10;}.cls-5{fill:#050001;}.cls-6{stroke:#030000;}.cls-7{fill:#9d4a36;stroke:#9d4a36;}.cls-8{stroke:#050001;}.cls-9{clip-path:url(#clip-path);}.cls-10{fill:#ffd6bb;}.cls-12{fill:#ffd05a;stroke:#422705;}</style><clipPath id="clip-path"><path class="cls-1" d="M56.65,84.41c22.21,0,28.13-8.31,29.09-14.78a21.91,21.91,0,0,0-1.85-11.94c.45-6.08-1.46-15.62-5.86-20.78C73,30.93,65.37,28,56.65,28s-16.3,2.92-21.38,8.9c-4.4,5.16-6.31,14.7-5.86,20.78a21.81,21.81,0,0,0-1.85,11.94C28.52,76.1,34.44,84.41,56.65,84.41Z"/></clipPath></defs><g id="레이어_2" data-name="레이어 2"><g id="레이어_1-2" data-name="레이어 1"><path class="cls-2" d="M108.88,69.45c-5.25-.76-1,3.51-3,4.83-2.7,1.8-4.08-.66-4.08-.66-3.21-5.46,1.35-10.16,7.63-9.58s10,12.1,1,17.49S83.13,81,83.13,81l2.53-5s15.44,5.12,21.8.72S108.88,69.45,108.88,69.45Z"/><circle class="cls-2" cx="19.25" cy="39.38" r="18.25"/><circle class="cls-3" cx="19.25" cy="39.38" r="8.44" transform="translate(-23.18 28.38) rotate(-49.41)"/><circle class="cls-2" cx="94.05" cy="39.38" r="18.25"/><circle class="cls-3" cx="94.05" cy="39.38" r="8.44" transform="translate(-6.55 22.75) rotate(-13.33)"/><path class="cls-2" d="M56.65,88.14c17.83,0,37.42-3,40.62-16.9C100.1,59,93.06,51.55,93.06,51.55s-.23-12.65-6.21-21.83C80.47,19.93,71,14.13,56.65,14.13s-23.82,5.8-30.2,15.59c-6,9.18-6.21,21.83-6.21,21.83S13.2,59,16,71.24C19.23,85.1,38.83,88.14,56.65,88.14Z"/><path class="cls-4" d="M56.65,84.41c22.21,0,28.13-8.31,29.09-14.78a21.91,21.91,0,0,0-1.85-11.94c.45-6.08-1.46-15.62-5.86-20.78-5.08-6-12.76-10.08-21.38-6-8.62-4.11-16.3,0-21.38,6-4.4,5.16-6.31,14.7-5.86,20.78a21.81,21.81,0,0,0-1.85,11.94C28.52,76.1,34.44,84.41,56.65,84.41Z"/><path class="cls-5" d="M50.33,54.66a2.31,2.31,0,1,1-2.3-2.3A2.3,2.3,0,0,1,50.33,54.66Z"/><polyline class="cls-6" points="65.89 53.06 63.59 54.59 65.89 56.26"/><path class="cls-7" d="M56.65,72c6.27,0,5.25-9.09,5.25-9.09H51.4S50.37,72,56.65,72Z"/><line class="cls-8" x1="63.93" y1="43.25" x2="66.61" y2="42.99"/><line class="cls-8" x1="49.37" y1="43.25" x2="46.69" y2="42.99"/><g class="cls-9"><path class="cls-10" d="M49.59,69.38A13.17,13.17,0,1,1,36.42,56.21,13.16,13.16,0,0,1,49.59,69.38Z"/><path class="cls-10" d="M63.71,69.38A13.17,13.17,0,1,0,76.88,56.21,13.16,13.16,0,0,0,63.71,69.38Z"/></g><path class="cls-5" d="M68.18,38a37.94,37.94,0,0,1,14.24,7.61A24.84,24.84,0,0,0,70,30.94c-3.47-1.75-12.14-.57-13.36-.57s-9.41-1.3-12.78.29a24.78,24.78,0,0,0-13,15A37.84,37.84,0,0,1,45.12,38l2.57-3.61-.09,3a40.66,40.66,0,0,1,18.1,0l-.09-3Z"/><path class="cls-11" d="M56.65,84.41c22.21,0,28.13-8.31,29.09-14.78a21.91,21.91,0,0,0-1.85-11.94c.45-6.08-1.46-15.62-5.86-20.78-5.08-6-12.76-10.08-21.38-6-8.62-4.11-16.3,0-21.38,6-4.4,5.16-6.31,14.7-5.86,20.78a21.81,21.81,0,0,0-1.85,11.94C28.52,76.1,34.44,84.41,56.65,84.41Z"/><path class="cls-12" d="M56.16,18.84c11.65-2.2,9.39-12,9.39-12a32.63,32.63,0,0,1-10.89,4.07A32.59,32.59,0,0,1,43,11.07S44.51,21.05,56.16,18.84Z"/><path class="cls-12" d="M72.52,5.4,63.64,1.19A1.93,1.93,0,1,0,62,4.67l2.59,1.24L62,11.18A35.94,35.94,0,0,1,57.4,15.1a32.78,32.78,0,0,1-10.46,5.09s5.56,8.41,15.19,1.49c6-4.32,5.85-9,4.88-12l1.06-2.14,2.8,1.33A1.93,1.93,0,0,0,72.52,5.4Z"/></g></g></svg>