<svg xmlns="http://www.w3.org/2000/svg" xmlns:xlink="http://www.w3.org/1999/xlink" viewBox="0 0 84.59 76.01"><defs><style>.cls-1,.cls-5,.cls-8,.cls-9{fill:none;}.cls-2{fill:#a8e0ef;}.cls-11,.cls-2{stroke:#233f44;}.cls-10,.cls-11,.cls-2,.cls-5,.cls-9{stroke-linecap:round;stroke-linejoin:round;}.cls-10,.cls-11,.cls-2,.cls-3,.cls-5,.cls-8,.cls-9{stroke-width:2px;}.cls-3{fill:#fdfaf6;}.cls-3,.cls-8{stroke:#7f4236;stroke-miterlimit:10;}.cls-4{fill:#050001;}.cls-5{stroke:#050001;}.cls-6{clip-path:url(#clip-path);}.cls-7{fill:#ffd6bb;}.cls-9{stroke:#9d4a36;}.cls-10{fill:#ffd252;stroke:#603e16;}.cls-11{fill:#233f44;}</style><clipPath id="clip-path"><path class="cls-1" d="M42.29,71.23c22.21,0,28.14-8.31,29.09-14.78a21.86,21.86,0,0,0-1.84-11.94c.44-6.08-1.47-15.62-5.86-20.78-5.09-6-12.67-8.89-21.39-8.89S26,17.76,20.91,23.73c-4.39,5.16-6.31,14.7-5.86,20.78A21.91,21.91,0,0,0,13.2,56.45C14.16,62.92,20.09,71.23,42.29,71.23Z"/></clipPath></defs><g id="레이어_2" data-name="레이어 2"><g id="레이어_1-2" data-name="레이어 1"><path class="cls-2" d="M78.7,38.42s-.23-12.65-6.21-21.83a35,35,0,0,0-8.28-9h0c3.07-.43,3.93-3.95,3.18-5.73S56.19,3.25,56.19,3.25h0A40.37,40.37,0,0,0,42.29,1a40.35,40.35,0,0,0-13.9,2.26h0S17.94.08,17.19,1.86s.11,5.3,3.18,5.73h0a34.67,34.67,0,0,0-8.28,9c-6,9.18-6.22,21.83-6.22,21.83s-7,7.46-4.21,19.69C4.88,72,24.47,75,42.29,75s37.42-3,40.63-16.9C85.75,45.88,78.7,38.42,78.7,38.42Z"/><path class="cls-3" d="M42.29,71.23c22.21,0,28.14-8.31,29.09-14.78a21.86,21.86,0,0,0-1.84-11.94c.44-6.08-1.47-15.62-5.86-20.78-5.09-6-12.67-8.89-21.39-8.89S26,17.76,20.91,23.73c-4.39,5.16-6.31,14.7-5.86,20.78A21.91,21.91,0,0,0,13.2,56.45C14.16,62.92,20.09,71.23,42.29,71.23Z"/><path class="cls-4" d="M53.83,24.86a38,38,0,0,1,14.23,7.61S63.59,14.84,42.29,14.84,16.53,32.47,16.53,32.47a38,38,0,0,1,14.23-7.61l2.57-3.61-.08,3a40.61,40.61,0,0,1,18.09,0l-.08-3Z"/><path class="cls-4" d="M36,41.48a2.31,2.31,0,1,1-2.31-2.3A2.32,2.32,0,0,1,36,41.48Z"/><path class="cls-4" d="M48.61,41.48a2.31,2.31,0,1,0,2.31-2.3A2.31,2.31,0,0,0,48.61,41.48Z"/><line class="cls-5" x1="49.86" y1="28.84" x2="51.97" y2="28.85"/><line class="cls-5" x1="34.73" y1="28.84" x2="32.62" y2="28.85"/><g class="cls-6"><circle class="cls-7" cx="22.07" cy="56.2" r="13.17"/><circle class="cls-7" cx="62.52" cy="56.2" r="13.17"/></g><path class="cls-8" d="M42.29,71.23c22.21,0,28.14-8.31,29.09-14.78a21.86,21.86,0,0,0-1.84-11.94c.44-6.08-1.47-15.62-5.86-20.78-5.09-6-12.67-8.89-21.39-8.89S26,17.76,20.91,23.73c-4.39,5.16-6.31,14.7-5.86,20.78A21.91,21.91,0,0,0,13.2,56.45C14.16,62.92,20.09,71.23,42.29,71.23Z"/><path class="cls-5" d="M40.79,41.89A10.63,10.63,0,1,1,30.16,31.26,10.63,10.63,0,0,1,40.79,41.89Z"/><path class="cls-5" d="M43.8,41.89A10.63,10.63,0,1,0,54.43,31.26,10.63,10.63,0,0,0,43.8,41.89Z"/><line class="cls-9" x1="39.81" y1="41.89" x2="44.78" y2="41.89"/><path class="cls-9" d="M38.78,53.92a4.13,4.13,0,0,0,3.51,1.64,4.11,4.11,0,0,0,3.51-1.64"/><polygon class="cls-10" points="42.29 20.95 46.8 15.07 42.29 11.91 37.79 15.07 42.29 20.95"/><path class="cls-11" d="M44.79,11.75S55.5,4.86,66.21,14.46Z"/><path class="cls-11" d="M39.8,11.75S29.09,4.86,18.38,14.46Z"/></g></g></svg>