<svg xmlns="http://www.w3.org/2000/svg" xmlns:xlink="http://www.w3.org/1999/xlink" viewBox="0 0 95.74 81.74"><defs><style>.cls-1,.cls-11,.cls-12,.cls-8{fill:none;}.cls-2{fill:#ffd252;stroke:#3f270e;}.cls-12,.cls-2,.cls-3,.cls-4,.cls-5,.cls-8{stroke-linecap:round;stroke-linejoin:round;}.cls-11,.cls-12,.cls-2,.cls-3,.cls-4,.cls-5,.cls-6,.cls-8{stroke-width:2px;}.cls-3{fill:#7de862;stroke:#294222;}.cls-4{fill:#79c9e8;stroke:#223942;}.cls-5{fill:#ff4343;stroke:#681f1f;}.cls-6{fill:#fdfaf6;stroke:#7f4236;}.cls-11,.cls-6{stroke-miterlimit:10;}.cls-7{fill:#050001;}.cls-8{stroke:#050001;}.cls-9{clip-path:url(#clip-path);}.cls-10{fill:#ffd6bb;}.cls-11{stroke:#6b342d;}.cls-12{stroke:#9d4a36;}</style><clipPath id="clip-path"><path class="cls-1" d="M42.29,77c22.21,0,28.14-8.31,29.09-14.78a21.86,21.86,0,0,0-1.84-11.94c.44-6.08-1.47-15.62-5.86-20.78-5.09-6-12.67-8.89-21.39-8.89S26,23.49,20.91,29.46c-4.39,5.16-6.31,14.7-5.86,20.78A21.91,21.91,0,0,0,13.2,62.18C14.16,68.65,20.09,77,42.29,77Z"/></clipPath></defs><g id="레이어_2" data-name="레이어 2"><g id="레이어_1-2" data-name="레이어 1"><path class="cls-2" d="M94.73,38.37c-.09,9.71-14.54,24.24-17.83,27.42a78.16,78.16,0,0,1-2.29-7.71C77,54.52,94.84,28.13,94.73,38.37Z"/><path class="cls-3" d="M90.6,27.6C93.17,36.78,78.67,56.66,75.38,61a74.79,74.79,0,0,1-2.14-10.12C75.33,46.14,88.3,19.4,90.6,27.6Z"/><path class="cls-4" d="M82.15,23.33c5.65,2.18-5,26.18-8,32.71a54.83,54.83,0,0,1-1.33-14.3C75.1,35.23,79.62,22.35,82.15,23.33Z"/><path class="cls-5" d="M78.7,44.15s-.23-12.65-6.21-21.83A32.43,32.43,0,0,0,48,7.08C47,4.87,45.23,5,44.26,2.92a3.24,3.24,0,0,0-.95,1.61S41.48,4,39.37,1c0,0-2.65,3-.45,5.86-12.46.85-21,6.46-26.82,15.46-6,9.18-6.22,21.83-6.22,21.83s-7,7.46-4.21,19.69c3.21,13.86,22.8,16.9,40.62,16.9s37.42-3,40.63-16.9C85.75,51.61,78.7,44.15,78.7,44.15Z"/><path class="cls-6" d="M42.29,77c22.21,0,28.14-8.31,29.09-14.78a21.86,21.86,0,0,0-1.84-11.94c.44-6.08-1.47-15.62-5.86-20.78-5.09-6-12.67-8.89-21.39-8.89S26,23.49,20.91,29.46c-4.39,5.16-6.31,14.7-5.86,20.78A21.91,21.91,0,0,0,13.2,62.18C14.16,68.65,20.09,77,42.29,77Z"/><path class="cls-7" d="M53.83,30.59A38,38,0,0,1,68.06,38.2S63.59,20.57,42.29,20.57,16.53,38.2,16.53,38.2a38,38,0,0,1,14.23-7.61L33.33,27l-.08,3a40.61,40.61,0,0,1,18.09,0l-.08-3Z"/><path class="cls-7" d="M36,47.21a2.31,2.31,0,1,1-2.31-2.3A2.31,2.31,0,0,1,36,47.21Z"/><path class="cls-7" d="M48.61,47.21a2.31,2.31,0,1,0,2.31-2.3A2.3,2.3,0,0,0,48.61,47.21Z"/><path class="cls-8" d="M49.56,35.33a2.48,2.48,0,0,1,2.65.4"/><path class="cls-8" d="M35,35.33a2.46,2.46,0,0,0-2.64.4"/><g class="cls-9"><circle class="cls-10" cx="22.07" cy="61.93" r="13.17"/><circle class="cls-10" cx="62.52" cy="61.93" r="13.17"/></g><path class="cls-11" d="M42.29,77c22.21,0,28.14-8.31,29.09-14.78a21.86,21.86,0,0,0-1.84-11.94c.44-6.08-1.47-15.62-5.86-20.78-5.09-6-12.67-8.89-21.39-8.89S26,23.49,20.91,29.46c-4.39,5.16-6.31,14.7-5.86,20.78A21.91,21.91,0,0,0,13.2,62.18C14.16,68.65,20.09,77,42.29,77Z"/><path class="cls-12" d="M46,57.49A5.66,5.66,0,0,1,42.29,56a5.62,5.62,0,0,1-3.7,1.45"/><path class="cls-2" d="M42.29,30.8S35,22.05,35,20.62s.18-6.51,7.28-6.51,7.29,5.08,7.29,6.51S42.29,30.8,42.29,30.8Z"/></g></g></svg>