<svg xmlns="http://www.w3.org/2000/svg" xmlns:xlink="http://www.w3.org/1999/xlink" viewBox="0 0 94.01 100.49"><defs><style>.cls-1,.cls-10,.cls-12,.cls-7,.cls-8,.cls-9{fill:none;}.cls-2{fill:#ffc9c0;}.cls-12,.cls-2{stroke:#73473b;}.cls-10,.cls-12,.cls-2,.cls-8,.cls-9{stroke-linecap:round;stroke-linejoin:round;}.cls-10,.cls-12,.cls-2,.cls-3,.cls-7,.cls-8,.cls-9{stroke-width:2px;}.cls-3{fill:#fdfaf6;}.cls-3,.cls-7{stroke:#7f4236;stroke-miterlimit:10;}.cls-4{fill:#050001;}.cls-5{clip-path:url(#clip-path);}.cls-6{fill:#ffd6bb;}.cls-8{stroke:#030000;}.cls-9{stroke:#9d4a36;}.cls-10{stroke:#050001;}.cls-11{fill:#fff;}</style><clipPath id="clip-path"><path class="cls-1" d="M47,95.71c22.2,0,28.13-8.3,29.09-14.77a21.94,21.94,0,0,0-1.85-12c.45-6.08-1.46-15.61-5.86-20.78-5.08-6-12.67-8.89-21.38-8.89s-16.3,2.92-21.38,8.89c-4.4,5.17-6.31,14.7-5.87,20.78a21.88,21.88,0,0,0-1.84,12C18.87,87.41,24.8,95.71,47,95.71Z"/></clipPath></defs><g id="레이어_2" data-name="레이어 2"><g id="레이어_1-2" data-name="레이어 1"><path class="cls-2" d="M83.42,62.9s-.24-12.65-6.22-21.83a33.73,33.73,0,0,0-10.8-10.7c1.06-5.1,5.23-28-5.17-29.31C52.09-.12,49.65,17.68,49,25.53c-.66,0-1.33-.05-2-.05s-1.35,0-2,.05C44.37,17.68,41.92-.12,32.78,1.06c-10.4,1.33-6.23,24.21-5.16,29.31a33.76,33.76,0,0,0-10.81,10.7c-6,9.18-6.21,21.83-6.21,21.83s-7,7.46-4.22,19.69C9.59,96.45,29.18,99.49,47,99.49s37.42-3,40.62-16.9C90.46,70.36,83.42,62.9,83.42,62.9Z"/><path class="cls-3" d="M47,95.71c22.2,0,28.13-8.3,29.09-14.77a21.94,21.94,0,0,0-1.85-12c.45-6.08-1.46-15.61-5.86-20.78-5.08-6-12.67-8.89-21.38-8.89s-16.3,2.92-21.38,8.89c-4.4,5.17-6.31,14.7-5.87,20.78a21.88,21.88,0,0,0-1.84,12C18.87,87.41,24.8,95.71,47,95.71Z"/><path class="cls-4" d="M58.54,49.34A38.11,38.11,0,0,1,72.77,57S68.31,39.32,47,39.32,21.24,57,21.24,57a38.1,38.1,0,0,1,14.24-7.61L38,45.73l-.08,3a40.66,40.66,0,0,1,18.1,0l-.09-3Z"/><g class="cls-5"><path class="cls-6" d="M40,80.69A13.17,13.17,0,1,1,26.78,67.52,13.17,13.17,0,0,1,40,80.69Z"/><path class="cls-6" d="M54.06,80.69A13.17,13.17,0,1,0,67.23,67.52,13.17,13.17,0,0,0,54.06,80.69Z"/></g><path class="cls-7" d="M47,95.71c22.2,0,28.13-8.3,29.09-14.77a21.94,21.94,0,0,0-1.85-12c.45-6.08-1.46-15.61-5.86-20.78-5.08-6-12.67-8.89-21.38-8.89s-16.3,2.92-21.38,8.89c-4.4,5.17-6.31,14.7-5.87,20.78a21.88,21.88,0,0,0-1.84,12C18.87,87.41,24.8,95.71,47,95.71Z"/><path class="cls-6" d="M54.16,67.09a3.55,3.55,0,0,1-3.55,3.54H43.26a3.54,3.54,0,0,1-3.54-3.54h0a3.54,3.54,0,0,1,3.54-3.55h7.35a3.55,3.55,0,0,1,3.55,3.55Z"/><polyline class="cls-8" points="37.72 64.26 40.02 65.79 37.72 67.46"/><polyline class="cls-8" points="56.21 64.26 53.91 65.79 56.21 67.46"/><path class="cls-9" d="M49.67,76.5C47.42,76.5,47,75,47,75s-.45,1.46-2.7,1.46"/><path class="cls-10" d="M54.25,54.27a3.79,3.79,0,0,1,2.66.32"/><path class="cls-10" d="M39.7,54.27a3.79,3.79,0,0,0-2.66.32"/><path class="cls-11" d="M36.68,27.57l-3.87,1S28.89,11,33.64,10.46c5.35-1.4,6.48,16.4,6.48,16.4Z"/><path class="cls-11" d="M57.33,27.57l3.87,1S65.12,11,60.37,10.46c-5.34-1.4-6.48,16.4-6.48,16.4Z"/><path class="cls-12" d="M81.76,72.25A48.18,48.18,0,0,1,93,71.5"/><path class="cls-12" d="M81.76,78.26a48.29,48.29,0,0,1,11.24,1"/><path class="cls-12" d="M12.25,72.25A48.18,48.18,0,0,0,1,71.5"/><path class="cls-12" d="M12.25,78.26A48.19,48.19,0,0,0,1,79.28"/></g></g></svg>