<svg xmlns="http://www.w3.org/2000/svg" xmlns:xlink="http://www.w3.org/1999/xlink" viewBox="0 0 84.59 84.07"><defs><style>.cls-1,.cls-5,.cls-6,.cls-9{fill:none;}.cls-2{fill:#d3d2cf;}.cls-11,.cls-2{stroke:#4f4d49;}.cls-10,.cls-11,.cls-2,.cls-5,.cls-6{stroke-linecap:round;stroke-linejoin:round;}.cls-10,.cls-11,.cls-2,.cls-3,.cls-5,.cls-6,.cls-9{stroke-width:2px;}.cls-3{fill:#fdfaf6;}.cls-3,.cls-9{stroke:#7f4236;stroke-miterlimit:10;}.cls-4{fill:#050001;}.cls-5{stroke:#9d4a36;}.cls-6{stroke:#050001;}.cls-7{clip-path:url(#clip-path);}.cls-8{fill:#ffd6bb;}.cls-10{fill:#e8e8e8;stroke:#636368;}.cls-11{fill:#4f4d49;}</style><clipPath id="clip-path"><path class="cls-1" d="M42.3,79.3c22.2,0,28.13-8.31,29.08-14.78a21.86,21.86,0,0,0-1.84-11.94C70,46.5,68.07,37,63.68,31.79,58.59,25.82,51,22.9,42.3,22.9S26,25.82,20.91,31.79C16.52,37,14.61,46.5,15.05,52.58a21.86,21.86,0,0,0-1.84,11.94C14.16,71,20.09,79.3,42.3,79.3Z"/></clipPath></defs><g id="레이어_2" data-name="레이어 2"><g id="레이어_1-2" data-name="레이어 1"><path class="cls-2" d="M78.7,46.49s-.23-12.66-6.21-21.84A33.39,33.39,0,0,0,60.73,13.42c5.18-2.08,4.91-6,2.3-10C60.15-.95,58.44,1.35,58,4.31A15,15,0,0,1,55.18,11,40.91,40.91,0,0,0,42.29,9.07,40.89,40.89,0,0,0,29.41,11a15,15,0,0,1-2.8-6.68c-.46-3-2.17-5.26-5.05-.85-2.61,4-2.88,7.88,2.3,10A33.31,33.31,0,0,0,12.1,24.65c-6,9.18-6.22,21.84-6.22,21.84s-7,7.46-4.21,19.69C4.88,80,24.47,83.07,42.29,83.07s37.42-3,40.63-16.89C85.75,54,78.7,46.49,78.7,46.49Z"/><path class="cls-3" d="M42.3,79.3c22.2,0,28.13-8.31,29.08-14.78a21.86,21.86,0,0,0-1.84-11.94C70,46.5,68.07,37,63.68,31.79,58.59,25.82,51,22.9,42.3,22.9S26,25.82,20.91,31.79C16.52,37,14.61,46.5,15.05,52.58a21.86,21.86,0,0,0-1.84,11.94C14.16,71,20.09,79.3,42.3,79.3Z"/><path class="cls-4" d="M36,49.55a2.31,2.31,0,1,1-2.31-2.3A2.3,2.3,0,0,1,36,49.55Z"/><path class="cls-4" d="M48.61,49.55a2.31,2.31,0,1,0,2.31-2.3A2.3,2.3,0,0,0,48.61,49.55Z"/><path class="cls-5" d="M37.67,58.55a5.41,5.41,0,0,0,4.62,2.15,5.44,5.44,0,0,0,4.63-2.15"/><line class="cls-6" x1="49.6" y1="38.26" x2="52.24" y2="37.76"/><line class="cls-6" x1="34.99" y1="38.26" x2="32.35" y2="37.76"/><g class="cls-7"><path class="cls-8" d="M35.24,64.27A13.17,13.17,0,1,1,22.07,51.1,13.17,13.17,0,0,1,35.24,64.27Z"/><circle class="cls-8" cx="62.52" cy="64.27" r="13.17"/></g><path class="cls-4" d="M42.3,22.9h0C19.52,22.9,16.12,42,16.12,42c5.37-5.37,17.24-8.15,26.17-8.15S63.1,36.67,68.47,42C68.47,42,65.07,22.9,42.3,22.9Z"/><path class="cls-9" d="M42.3,79.3c22.2,0,28.13-8.31,29.08-14.78a21.86,21.86,0,0,0-1.84-11.94C70,46.5,68.07,37,63.68,31.79,58.59,25.82,51,22.9,42.3,22.9S26,25.82,20.91,31.79C16.52,37,14.61,46.5,15.05,52.58a21.86,21.86,0,0,0-1.84,11.94C14.16,71,20.09,79.3,42.3,79.3Z"/><path class="cls-2" d="M54,17a34.62,34.62,0,0,1,3.48.82,22.21,22.21,0,0,1,12,8.18c2.54,3,4.78,11.8-2.19,12.31a25.11,25.11,0,0,1-13.06-2.21C47.54,33,42.29,29.73,42.29,29.73S37.05,33,30.38,36.11a25.15,25.15,0,0,1-13.07,2.21c-7-.51-4.72-9.32-2.18-12.31a22.16,22.16,0,0,1,12-8.18A34.62,34.62,0,0,1,30.61,17l4.24-.46a25.28,25.28,0,0,1,7.44.66,25.39,25.39,0,0,1,7.45-.66Z"/><path class="cls-10" d="M49.45,19.17S45.87,4.58,42.29,4.58s-7.15,14.59-7.15,14.59,2,1.36,7.15,1.36S49.45,19.17,49.45,19.17Z"/><path class="cls-11" d="M28.1,23.7c-.54.6-1.26.84-1.6.53s-.2-1.05.34-1.65,1.25-.85,1.6-.54S28.63,23.09,28.1,23.7Z"/><path class="cls-11" d="M56.49,23.7c.54.6,1.26.84,1.6.53s.2-1.05-.34-1.65-1.25-.85-1.6-.54S56,23.09,56.49,23.7Z"/><path class="cls-10" d="M41.7,11.87A9,9,0,0,0,46.89,11"/><path class="cls-10" d="M36.44,14.61s4.18,1.71,11.71,0"/></g></g></svg>