<svg xmlns="http://www.w3.org/2000/svg" xmlns:xlink="http://www.w3.org/1999/xlink" viewBox="0 0 85.6 86.61"><defs><style>.cls-1,.cls-10,.cls-6,.cls-9{fill:none;}.cls-2{fill:#eab473;stroke:#493016;}.cls-10,.cls-2,.cls-3,.cls-6{stroke-linecap:round;stroke-linejoin:round;}.cls-10,.cls-2,.cls-3,.cls-4,.cls-6,.cls-9{stroke-width:2px;}.cls-3{fill:#fff;stroke:#544541;}.cls-4{fill:#fdfaf6;}.cls-4,.cls-9{stroke:#7f4236;stroke-miterlimit:10;}.cls-5{fill:#050001;}.cls-6{stroke:#050001;}.cls-7{clip-path:url(#clip-path);}.cls-8{fill:#ffd6bb;}.cls-10{stroke:#9d4a36;}</style><clipPath id="clip-path"><path class="cls-1" d="M42.8,80.72C65,80.72,70.94,72.42,71.89,66a21.88,21.88,0,0,0-1.84-12c.44-6.08-1.47-15.62-5.87-20.78-5.08-6-12.66-8.89-21.38-8.89s-16.3,2.92-21.38,8.89C17,38.38,15.11,47.92,15.56,54a21.94,21.94,0,0,0-1.85,12C14.67,72.42,20.6,80.72,42.8,80.72Z"/></clipPath></defs><g id="레이어_2" data-name="레이어 2"><g id="레이어_1-2" data-name="레이어 1"><path class="cls-2" d="M57.9,3.84a8.66,8.66,0,1,0,12.24-.59A8.66,8.66,0,0,0,57.9,3.84Z"/><path class="cls-2" d="M55.82,11.39s4.6,6.24,9.58,3C70,11.29,67.91,6.5,65.44,6c-3-.62-4.85,1.49-4.39,3.23A1.63,1.63,0,0,0,64,9.88"/><path class="cls-3" d="M66.75,21.83l-.24,3.78s14.88,3.17,15.26-2.84S67,18.06,67,18.06Z"/><path class="cls-3" d="M18.86,21.83l.23,3.78S4.21,28.78,3.84,22.77s14.78-4.71,14.78-4.71Z"/><path class="cls-2" d="M27.71,3.84a8.67,8.67,0,1,1-12.24-.59A8.67,8.67,0,0,1,27.71,3.84Z"/><path class="cls-2" d="M29.78,11.39s-4.6,6.24-9.58,3c-4.64-3.06-2.51-7.85,0-8.35,3.05-.62,4.85,1.49,4.4,3.23a1.63,1.63,0,0,1-2.93.65"/><path class="cls-3" d="M83.5,67.25a5.21,5.21,0,0,0,.59-5.45c0-.47,0-.93,0-1.37a5.4,5.4,0,0,0,.39-2A5.29,5.29,0,0,0,83,54.83c-.12-.38-.26-.75-.39-1.11a5.19,5.19,0,0,0,.15-1.2,5.29,5.29,0,0,0-3.55-5v-.09a7.16,7.16,0,0,0-.73-7.93,7.1,7.1,0,0,0-2.3-7c-.1-.28-.21-.56-.32-.84a6.84,6.84,0,0,0,.06-.91,7.15,7.15,0,0,0-4.19-6.51l-.29-.37a7.15,7.15,0,0,0-5.91-6.15l-.06-.05a7.11,7.11,0,0,0-8.74-4.9l0,0a7.13,7.13,0,0,0-8.8-2l-.79-.06a7.14,7.14,0,0,0-8.57,0l-.79.06a7.13,7.13,0,0,0-8.8,2l-.05,0A7.08,7.08,0,0,0,27,12.5a7.16,7.16,0,0,0-6.87,5.15l-.07.06a7.16,7.16,0,0,0-5.91,6.15l-.29.37a7.16,7.16,0,0,0-4.19,6.51,6.84,6.84,0,0,0,.07.91q-.18.42-.33.84a7.11,7.11,0,0,0-2.29,7,7.16,7.16,0,0,0-.73,7.93s0,.06,0,.09a5.28,5.28,0,0,0-3.54,5A5.34,5.34,0,0,0,3,53.73c-.13.35-.26.72-.38,1.1a5.25,5.25,0,0,0-1.45,3.63,5.4,5.4,0,0,0,.38,2c0,.44,0,.9,0,1.37A5.26,5.26,0,0,0,1,64a5.2,5.2,0,0,0,1.11,3.21c0,.12,0,.23.07.35.12.51.27,1,.43,1.49a2.48,2.48,0,0,0,0,.27A5.3,5.3,0,0,0,5.33,74c.15.19.31.37.47.55A5.3,5.3,0,0,0,11,78.94h0a5.32,5.32,0,0,0,4.53,2.57,5.22,5.22,0,0,0,1.49-.24l.66.2a5.27,5.27,0,0,0,3.91,1.75,5.21,5.21,0,0,0,1.78-.33l1.48.28a5.3,5.3,0,0,0,3.19,1.09A5.06,5.06,0,0,0,30,83.87q.93.1,1.86.18a5.18,5.18,0,0,0,3.09,1,5.3,5.3,0,0,0,2.53-.67c.67,0,1.34,0,2,.06a5.21,5.21,0,0,0,6.53,0q1,0,2-.06a5.3,5.3,0,0,0,2.53.67,5.23,5.23,0,0,0,3.1-1c.62,0,1.24-.11,1.85-.18a5.1,5.1,0,0,0,1.95.39,5.3,5.3,0,0,0,3.19-1.09l1.48-.28a5.16,5.16,0,0,0,5.69-1.42l.66-.2a5.16,5.16,0,0,0,6-2.33h0a5.3,5.3,0,0,0,5.22-4.41c.17-.18.32-.37.48-.55A5.31,5.31,0,0,0,83,69.36a2.06,2.06,0,0,0,0-.26,14.45,14.45,0,0,0,.44-1.5C83.45,67.48,83.47,67.37,83.5,67.25Z"/><path class="cls-4" d="M42.8,80.72C65,80.72,70.94,72.42,71.89,66a21.88,21.88,0,0,0-1.84-12c.44-6.08-1.47-15.62-5.87-20.78-5.08-6-12.66-8.89-21.38-8.89s-16.3,2.92-21.38,8.89C17,38.38,15.11,47.92,15.56,54a21.94,21.94,0,0,0-1.85,12C14.67,72.42,20.6,80.72,42.8,80.72Z"/><path class="cls-5" d="M36.48,51a2.3,2.3,0,1,1-2.3-2.3A2.3,2.3,0,0,1,36.48,51Z"/><path class="cls-5" d="M49.12,51a2.31,2.31,0,1,0,2.3-2.3A2.3,2.3,0,0,0,49.12,51Z"/><line class="cls-6" x1="50.08" y1="39.42" x2="52.15" y2="39.51"/><line class="cls-6" x1="35.53" y1="39.42" x2="33.45" y2="39.51"/><g class="cls-7"><circle class="cls-8" cx="22.58" cy="65.7" r="13.17" transform="translate(-45.88 77.5) rotate(-80.82)"/><circle class="cls-8" cx="63.03" cy="65.7" r="13.17" transform="translate(-9.35 10.47) rotate(-8.85)"/></g><path class="cls-5" d="M42.8,34.85c6.67,0,7.62-3.5,7.62-3.5,6.63,6.34,15,3.62,15,3.62C57.63,23.5,42.8,24.34,42.8,24.34S28,23.5,20.14,35c0,0,8.41,2.72,15-3.62,0,0,1,3.5,7.62,3.5Z"/><path class="cls-9" d="M42.8,80.72C65,80.72,70.94,72.42,71.89,66a21.88,21.88,0,0,0-1.84-12c.44-6.08-1.47-15.62-5.87-20.78-5.08-6-12.66-8.89-21.38-8.89s-16.3,2.92-21.38,8.89C17,38.38,15.11,47.92,15.56,54a21.94,21.94,0,0,0-1.85,12C14.67,72.42,20.6,80.72,42.8,80.72Z"/><path class="cls-10" d="M46.5,61.51a5.6,5.6,0,0,1-3.7-1.46,5.6,5.6,0,0,1-3.7,1.46"/></g></g></svg>