<svg xmlns="http://www.w3.org/2000/svg" xmlns:xlink="http://www.w3.org/1999/xlink" viewBox="0 0 103.64 86.49"><defs><style>.cls-1,.cls-11,.cls-14,.cls-15{fill:none;}.cls-2,.cls-6{fill:#2f2f2f;}.cls-2,.cls-3,.cls-4{stroke:#2f2f2f;}.cls-10,.cls-11,.cls-15,.cls-2,.cls-3,.cls-4{stroke-linecap:round;stroke-linejoin:round;}.cls-10,.cls-11,.cls-14,.cls-15,.cls-2,.cls-3,.cls-4,.cls-8{stroke-width:2px;}.cls-3{fill:#7f7f7f;}.cls-4{fill:#fff;}.cls-5{clip-path:url(#clip-path);}.cls-7{fill:#ffc5bb;}.cls-8{fill:#fdfaf6;}.cls-14,.cls-8{stroke:#7f4236;stroke-miterlimit:10;}.cls-9{fill:#050001;}.cls-10{fill:#9d4a36;stroke:#9d4a36;}.cls-11{stroke:#050001;}.cls-12{clip-path:url(#clip-path-2);}.cls-13{fill:#ffd6bb;}.cls-15{stroke:#030000;}</style><clipPath id="clip-path" transform="translate(9.72)"><path class="cls-1" d="M78.7,48.91s-.23-12.66-6.21-21.83a34.12,34.12,0,0,0-9.65-10C65,15.22,71.28,8.7,64.27,2.46c-9-.88-9.82,7.57-9.79,10.71a41.72,41.72,0,0,0-12.19-1.68,41.7,41.7,0,0,0-12.18,1.68c0-3.14-.74-11.59-9.79-10.71-7,6.24-.73,12.75,1.43,14.66a34,34,0,0,0-9.65,10c-6,9.17-6.22,21.83-6.22,21.83s-7,7.46-4.21,19.69c3.21,13.86,22.8,16.89,40.62,16.89s37.42-3,40.63-16.89C85.75,56.37,78.7,48.91,78.7,48.91Z"/></clipPath><clipPath id="clip-path-2" transform="translate(9.72)"><path class="cls-1" d="M42.29,81.72c22.21,0,28.14-8.31,29.09-14.78A21.86,21.86,0,0,0,69.54,55c.44-6.08-1.47-15.62-5.86-20.79-5.09-6-12.67-8.89-21.39-8.89S26,28.24,20.91,34.21C16.52,39.38,14.6,48.92,15.05,55A21.91,21.91,0,0,0,13.2,66.94C14.16,73.41,20.09,81.72,42.29,81.72Z"/></clipPath></defs><g id="레이어_2" data-name="레이어 2"><g id="레이어_1-2" data-name="레이어 1"><path class="cls-2" d="M32.34,3.38C33.74,6.31,35.57,12,35.57,12H40L38.64,2.5A14.87,14.87,0,0,0,32.34,3.38Z" transform="translate(9.72)"/><path class="cls-3" d="M42.29,1C41,1,39.76,2.31,38.64,2.5L40,12h4.67L46,2.32C44.83,2.13,43.6,1,42.29,1Z" transform="translate(9.72)"/><path class="cls-2" d="M52.25,3.38A12.92,12.92,0,0,0,46,2.32L44.63,12H49S50.85,6.31,52.25,3.38Z" transform="translate(9.72)"/><path class="cls-4" d="M78.7,48.91s-.23-12.66-6.21-21.83a34.12,34.12,0,0,0-9.65-10C65,15.22,71.28,8.7,64.27,2.46c-9-.88-9.82,7.57-9.79,10.71a41.72,41.72,0,0,0-12.19-1.68,41.7,41.7,0,0,0-12.18,1.68c0-3.14-.74-11.59-9.79-10.71-7,6.24-.73,12.75,1.43,14.66a34,34,0,0,0-9.65,10c-6,9.17-6.22,21.83-6.22,21.83s-7,7.46-4.21,19.69c3.21,13.86,22.8,16.89,40.62,16.89s37.42-3,40.63-16.89C85.75,56.37,78.7,48.91,78.7,48.91Z" transform="translate(9.72)"/><g class="cls-5"><path class="cls-6" d="M43.61,18.74c0,1.37,0,2.47-1.32,2.47h0c-1.36,0-1.31-1.1-1.31-2.47L39.82,4.79a2.47,2.47,0,0,1,2.47-2.47h0a2.47,2.47,0,0,1,2.48,2.47Z" transform="translate(9.72)"/><path class="cls-6" d="M48.85,19.71c-.27,1.34-.44,2.43-1.78,2.16h0c-1.34-.27-1.07-1.35-.8-2.69l1.66-13.9a2.47,2.47,0,0,1,2.91-1.93h0a2.48,2.48,0,0,1,1.93,2.92Z" transform="translate(9.72)"/><path class="cls-6" d="M72.31,39c-1.32.67-2.37,1.26-3-.07h0c-.66-1.32.43-1.81,1.75-2.48l13-7.91a2.67,2.67,0,0,1,3.59,1.19h0a2.67,2.67,0,0,1-1.19,3.6Z" transform="translate(9.72)"/><path class="cls-6" d="M68,34.36c-1.14.94-2,1.75-3,.61h0c-1-1.14,0-1.86,1.15-2.81L77.05,21.55a2.69,2.69,0,0,1,3.77.35h0a2.68,2.68,0,0,1-.35,3.78Z" transform="translate(9.72)"/><path class="cls-6" d="M70.87,45.48c-1.43.39-2.58.75-3-.68h0c-.39-1.43.78-1.7,2.21-2.08L84.4,37.57a2.69,2.69,0,0,1,3.29,1.89h0a2.69,2.69,0,0,1-1.89,3.29Z" transform="translate(9.72)"/><path class="cls-6" d="M75.85,50.5c-1.47.12-2.67.27-2.79-1.21h0c-.12-1.47,1.08-1.52,2.55-1.64l15-2.51a2.68,2.68,0,0,1,2.89,2.44h0A2.67,2.67,0,0,1,91,50.48Z" transform="translate(9.72)"/><path class="cls-6" d="M73.23,56.79c-1.47-.19-2.67-.29-2.48-1.76h0c.19-1.47,1.37-1.26,2.84-1.07l15.16.68a2.68,2.68,0,0,1,2.32,3h0a2.68,2.68,0,0,1-3,2.32Z" transform="translate(9.72)"/><path class="cls-6" d="M76.4,64.5c-1.41-.46-2.56-.78-2.11-2.19h0c.46-1.41,1.58-1,3-.53l14.78,3.46a2.67,2.67,0,0,1,1.72,3.37h0a2.68,2.68,0,0,1-3.37,1.73Z" transform="translate(9.72)"/><path class="cls-6" d="M72.09,70.24c-1.29-.73-2.36-1.28-1.63-2.57h0c.73-1.29,1.74-.65,3,.08L87.28,74.1a2.68,2.68,0,0,1,1,3.65h0a2.68,2.68,0,0,1-3.65,1Z" transform="translate(9.72)"/><path class="cls-6" d="M12.5,70.24c1.29-.73,2.36-1.28,1.63-2.57h0c-.73-1.29-1.75-.65-3,.08L-2.69,74.1a2.68,2.68,0,0,0-1,3.65h0a2.68,2.68,0,0,0,3.65,1Z" transform="translate(9.72)"/><path class="cls-6" d="M11.89,39c1.32.67,2.37,1.26,3-.07h0c.66-1.32-.43-1.81-1.76-2.48L.22,28.52a2.68,2.68,0,0,0-3.6,1.19h0a2.69,2.69,0,0,0,1.19,3.6Z" transform="translate(9.72)"/><path class="cls-6" d="M16.18,34.36c1.14.94,2,1.75,3,.61h0c1-1.14,0-1.86-1.15-2.81L7.15,21.55a2.7,2.7,0,0,0-3.78.35h0a2.69,2.69,0,0,0,.36,3.78Z" transform="translate(9.72)"/><path class="cls-6" d="M13.33,45.48c1.43.39,2.58.75,3-.68h0c.39-1.43-.79-1.7-2.22-2.08L-.2,37.57a2.69,2.69,0,0,0-3.29,1.89h0A2.68,2.68,0,0,0-1.6,42.75Z" transform="translate(9.72)"/><path class="cls-6" d="M8.35,50.5c1.47.12,2.67.27,2.79-1.21h0c.12-1.47-1.08-1.52-2.56-1.64l-15-2.51a2.69,2.69,0,0,0-2.9,2.44h0a2.68,2.68,0,0,0,2.45,2.9Z" transform="translate(9.72)"/><path class="cls-6" d="M11,56.79c1.47-.19,2.66-.29,2.47-1.76h0c-.18-1.47-1.37-1.26-2.84-1.07l-15.16.68a2.67,2.67,0,0,0-2.31,3h0a2.67,2.67,0,0,0,3,2.32Z" transform="translate(9.72)"/><path class="cls-6" d="M7.79,64.5c1.41-.46,2.57-.78,2.11-2.19h0c-.45-1.41-1.58-1-3-.53L-7.86,65.24a2.67,2.67,0,0,0-1.73,3.37h0a2.69,2.69,0,0,0,3.37,1.73Z" transform="translate(9.72)"/><path class="cls-6" d="M35.73,19.71c.28,1.34.45,2.43,1.79,2.16h0c1.34-.27,1.07-1.35.8-2.69L36.66,5.28a2.48,2.48,0,0,0-2.92-1.93h0a2.49,2.49,0,0,0-1.93,2.92Z" transform="translate(9.72)"/></g><path class="cls-7" d="M58.36,16l1.7.74s5.39-7.11,1.77-8.69-5.18,7.2-5.18,7.2Z" transform="translate(9.72)"/><path class="cls-7" d="M26.23,16l-1.7.74s-5.39-7.11-1.77-8.69,5.18,7.2,5.18,7.2Z" transform="translate(9.72)"/><path class="cls-8" d="M42.29,81.72c22.21,0,28.14-8.31,29.09-14.78A21.86,21.86,0,0,0,69.54,55c.44-6.08-1.47-15.62-5.86-20.79-5.09-6-12.67-8.89-21.39-8.89S26,28.24,20.91,34.21C16.52,39.38,14.6,48.92,15.05,55A21.91,21.91,0,0,0,13.2,66.94C14.16,73.41,20.09,81.72,42.29,81.72Z" transform="translate(9.72)"/><path class="cls-9" d="M53.83,35.35A38,38,0,0,1,68.06,43S63.59,25.32,42.29,25.32,16.53,43,16.53,43a38,38,0,0,1,14.23-7.61l2.57-3.61-.08,3a40.61,40.61,0,0,1,18.09,0l-.08-3Z" transform="translate(9.72)"/><path class="cls-10" d="M42.29,69.31c6.28,0,5.25-9.09,5.25-9.09H37.05S36,69.31,42.29,69.31Z" transform="translate(9.72)"/><line class="cls-11" x1="59.3" y1="40.56" x2="61.97" y2="40.3"/><line class="cls-11" x1="44.73" y1="40.56" x2="42.05" y2="40.3"/><g class="cls-12"><circle class="cls-13" cx="31.79" cy="66.69" r="13.17"/><circle class="cls-13" cx="72.24" cy="66.69" r="13.17"/></g><path class="cls-14" d="M42.29,81.72c22.21,0,28.14-8.31,29.09-14.78A21.86,21.86,0,0,0,69.54,55c.44-6.08-1.47-15.62-5.86-20.79-5.09-6-12.67-8.89-21.39-8.89S26,28.24,20.91,34.21C16.52,39.38,14.6,48.92,15.05,55A21.91,21.91,0,0,0,13.2,66.94C14.16,73.41,20.09,81.72,42.29,81.72Z" transform="translate(9.72)"/><polyline class="cls-15" points="42.77 50.37 45.07 51.9 42.77 53.57"/><polyline class="cls-15" points="61.26 50.37 58.96 51.9 61.26 53.57"/></g></g></svg>