<svg xmlns="http://www.w3.org/2000/svg" xmlns:xlink="http://www.w3.org/1999/xlink" viewBox="0 0 84.59 76.01"><defs><style>.cls-1,.cls-6,.cls-9{fill:none;}.cls-2{fill:#ecb8ad;stroke:#73473b;}.cls-2,.cls-5,.cls-6{stroke-linecap:round;stroke-linejoin:round;}.cls-2,.cls-3,.cls-5,.cls-6,.cls-9{stroke-width:2px;}.cls-3{fill:#fdfaf6;}.cls-3,.cls-9{stroke:#7f4236;stroke-miterlimit:10;}.cls-4{fill:#050001;}.cls-5{fill:#9d4a36;stroke:#9d4a36;}.cls-6{stroke:#050001;}.cls-7{clip-path:url(#clip-path);}.cls-8{fill:#ffd6bb;}</style><clipPath id="clip-path"><path class="cls-1" d="M42.29,71.23c22.21,0,28.14-8.31,29.09-14.78a21.86,21.86,0,0,0-1.84-11.94c.44-6.08-1.47-15.62-5.86-20.78-5.09-6-12.67-8.89-21.39-8.89S26,17.76,20.91,23.73c-4.39,5.16-6.31,14.7-5.86,20.78A21.91,21.91,0,0,0,13.2,56.45C14.16,62.92,20.09,71.23,42.29,71.23Z"/></clipPath></defs><g id="레이어_2" data-name="레이어 2"><g id="레이어_1-2" data-name="레이어 1"><path class="cls-2" d="M42.29,75c17.83,0,37.42-3,40.63-16.9,2.83-12.23-4.22-19.69-4.22-19.69s-.23-12.65-6.21-21.83C66.11,6.8,56.62,1,42.29,1S18.47,6.8,12.1,16.59c-6,9.18-6.22,21.83-6.22,21.83s-7,7.46-4.21,19.69C4.88,72,24.47,75,42.29,75Z"/><path class="cls-2" d="M21.28,13.71A14.7,14.7,0,0,0,23,1.86s-3.39,0-8,3.45-5.55,6.76-5.55,6.76A13.75,13.75,0,0,0,21.28,13.71Z"/><path class="cls-2" d="M63.31,13.71A14.7,14.7,0,0,1,61.58,1.86s3.39,0,8,3.45,5.56,6.76,5.56,6.76A13.75,13.75,0,0,1,63.31,13.71Z"/><path class="cls-3" d="M42.29,71.23c22.21,0,28.14-8.31,29.09-14.78a21.86,21.86,0,0,0-1.84-11.94c.44-6.08-1.47-15.62-5.86-20.78-5.09-6-12.67-8.89-21.39-8.89S26,17.76,20.91,23.73c-4.39,5.16-6.31,14.7-5.86,20.78A21.91,21.91,0,0,0,13.2,56.45C14.16,62.92,20.09,71.23,42.29,71.23Z"/><path class="cls-4" d="M53.83,24.86a38,38,0,0,1,14.23,7.61S63.59,14.84,42.29,14.84,16.53,32.47,16.53,32.47a38,38,0,0,1,14.23-7.61l2.57-3.61-.08,3a40.61,40.61,0,0,1,18.09,0l-.08-3Z"/><path class="cls-4" d="M36,41.48a2.31,2.31,0,1,1-2.31-2.3A2.32,2.32,0,0,1,36,41.48Z"/><path class="cls-4" d="M48.61,41.48a2.31,2.31,0,1,0,2.31-2.3A2.31,2.31,0,0,0,48.61,41.48Z"/><path class="cls-5" d="M42.29,58.83c6.28,0,5.25-9.1,5.25-9.1H37.05S36,58.83,42.29,58.83Z"/><line class="cls-6" x1="49.58" y1="30.07" x2="52.25" y2="29.81"/><line class="cls-6" x1="35.01" y1="30.07" x2="32.34" y2="29.81"/><g class="cls-7"><circle class="cls-8" cx="22.07" cy="56.2" r="13.17"/><circle class="cls-8" cx="62.52" cy="56.2" r="13.17"/></g><path class="cls-9" d="M42.29,71.23c22.21,0,28.14-8.31,29.09-14.78a21.86,21.86,0,0,0-1.84-11.94c.44-6.08-1.47-15.62-5.86-20.78-5.09-6-12.67-8.89-21.39-8.89S26,17.76,20.91,23.73c-4.39,5.16-6.31,14.7-5.86,20.78A21.91,21.91,0,0,0,13.2,56.45C14.16,62.92,20.09,71.23,42.29,71.23Z"/></g></g></svg>