<svg xmlns="http://www.w3.org/2000/svg" viewBox="0 0 53.46 72.2"><defs><style>.cls-1,.cls-2{fill:#f6bfb2;}.cls-2{stroke:#79483c;}.cls-2,.cls-3,.cls-5,.cls-6{stroke-linecap:round;stroke-linejoin:round;}.cls-3{fill:#fff6f1;}.cls-3,.cls-6{stroke:#aa4f38;}.cls-4,.cls-5{fill:#030000;stroke:#030000;}.cls-4{stroke-miterlimit:10;}.cls-6{fill:#aa4f38;}</style></defs><g id="레이어_2" data-name="레이어 2"><g id="레이어_1-2" data-name="레이어 1"><path class="cls-1" d="M12.36,12.35s.63-9.2,8.56-9.59L35,2s5.82,1.56,6.45,8.75L42.73,22,14.9,31.81"/><path class="cls-2" d="M11.37,7.75a11.24,11.24,0,0,1,5.5-5.61,12.79,12.79,0,0,1,.6,5.43A9,9,0,0,1,11.37,7.75Z"/><path class="cls-2" d="M40.39,6.34A20.73,20.73,0,0,1,44.1,16s7,7.51-.8,14.05"/><path class="cls-2" d="M35.58,2.41A18.45,18.45,0,0,0,25.83.57,17.12,17.12,0,0,0,17.37,3.7"/><path class="cls-2" d="M13.22,8.17a22.84,22.84,0,0,0-3.05,10.74s-5.38,9.56,5,13.51"/><path class="cls-2" d="M41.87,5.82a11.27,11.27,0,0,0-6-5.05,12.75,12.75,0,0,0-.07,5.46A9,9,0,0,0,41.87,5.82Z"/><path class="cls-2" d="M12.62,31.15A25.13,25.13,0,0,0,.5,46.35H2l.17,1.44A22.13,22.13,0,0,0,12,44.45s-1.31,9.33,5.23,16.31A51,51,0,0,0,19.76,71.7l1.25-1,1.52,1C24.26,69.56,29,62.36,29,62.36l3.71-.07a23.52,23.52,0,0,0,3.92,8.91l1.16-1,1.34,1c2.49-3.84,4.71-11.44,4.71-11.44,7.37-9.65,4.14-26,4.14-26,6.34-7.58,4.77-18.95,4.77-18.95l-1.87.64-.5-1.54A30.89,30.89,0,0,0,45.56,18"/><path class="cls-2" d="M47.51,16.14s3.11,2.31,5.44,2"/><path class="cls-2" d="M2.21,42.8S3.52,46.07,6.38,47"/><path class="cls-2" d="M18.74,68.45s3.8,1.15,5.91.35"/><path class="cls-2" d="M34.83,68.17s3.54.83,6.07-.25"/><path class="cls-2" d="M30.59,56.84c-11.43.52-12-8.74-12-8.74a30.54,30.54,0,0,1,11.43-2.63,27.87,27.87,0,0,1,11.63,1.26S42,56.31,30.59,56.84Z"/><path class="cls-3" d="M15.18,21.1c-.94-5.58,2.69-13.6,10.94-14.24,15-1.18,14.25,12.45,14.25,12.45,0,.39,7,10.8-10.95,13C29.42,32.26,12,34.73,15.18,21.1Z"/><path class="cls-4" d="M32.28,10.8a20.7,20.7,0,0,1,6.89,2.47S36.78,5,26.12,6.86c-10.23,1.8-10.48,8.58-10.48,8.58a23.47,23.47,0,0,1,5.93-3.35,6.82,6.82,0,0,1,.79-1.87l.08,1.54A22.24,22.24,0,0,1,27,10.67a17.76,17.76,0,0,1,4.18,0l-.12-1.31A11.25,11.25,0,0,1,32.28,10.8Z"/><line class="cls-5" x1="24.4" y1="13.9" x2="22.64" y2="13.73"/><line class="cls-5" x1="30.6" y1="13.22" x2="32.31" y2="12.8"/><circle class="cls-5" cx="23.77" cy="19.22" r="0.63"/><circle class="cls-5" cx="32.12" cy="18.63" r="0.63"/><path class="cls-6" d="M25.92,21.9l5-.41s1.33,5.29-1.92,5.62S25.92,21.9,25.92,21.9Z"/></g></g></svg>