<svg xmlns="http://www.w3.org/2000/svg" xmlns:xlink="http://www.w3.org/1999/xlink" viewBox="0 0 305.58 259.25"><defs><style>.cls-1{fill:none;}.cls-2{fill:#fff;}.cls-3{fill:#1b4a9d;}.cls-4{clip-path:url(#clip-path);}.cls-5{fill:#a2d8f5;}.cls-6{fill:#4da4dc;}.cls-7{fill:#231815;}.cls-8{fill:#fbf2cd;}</style><clipPath id="clip-path"><path class="cls-1" d="M305.58,230.91a28.34,28.34,0,0,1-28.34,28.34H28.35A28.34,28.34,0,0,1,0,230.91V34.35C0,18.69,12.69,0,28.35,0H277.24c15.65,0,28.34,18.69,28.34,34.35Z"/></clipPath></defs><g id="레이어_2" data-name="레이어 2"><g id="레이어_1-2" data-name="레이어 1"><path class="cls-2" d="M28.35,255.75A24.87,24.87,0,0,1,3.5,230.91V34.35C3.5,20.46,15,3.5,28.35,3.5H277.24c13.38,0,24.84,17,24.84,30.85V230.91a24.86,24.86,0,0,1-24.84,24.84Z"/><path class="cls-3" d="M277.24,7c11.29,0,21.34,15.29,21.34,27.35V230.91a21.36,21.36,0,0,1-21.34,21.34H28.35A21.37,21.37,0,0,1,7,230.91V34.35C7,22.29,17.05,7,28.35,7H277.24m0-7H28.35C12.69,0,0,18.69,0,34.35V230.91a28.34,28.34,0,0,0,28.35,28.34H277.24a28.34,28.34,0,0,0,28.34-28.34V34.35C305.58,18.69,292.89,0,277.24,0Z"/><g class="cls-4"><path class="cls-5" d="M0,173.42v85.83H234s-.06-89.71-78.8-83C76.9,182.93,57.51,142.75,0,162.54Z"/><path class="cls-6" d="M12.65,259.25H305.58V170.38s-22.93-18.95-56.84-7.84c-34.83,11.4-54.62,28.21-133.8,25.21C21.69,184.22,12.65,259.25,12.65,259.25Z"/></g><path class="cls-3" d="M277.24,7c11.29,0,21.34,15.29,21.34,27.35V230.91a21.36,21.36,0,0,1-21.34,21.34H28.35A21.37,21.37,0,0,1,7,230.91V34.35C7,22.29,17.05,7,28.35,7H277.24m0-7H28.35C12.69,0,0,18.69,0,34.35V230.91a28.34,28.34,0,0,0,28.35,28.34H277.24a28.34,28.34,0,0,0,28.34-28.34V34.35C305.58,18.69,292.89,0,277.24,0Z"/><path class="cls-7" d="M253.56,107.39a8.89,8.89,0,0,1,0,11.48,8.82,8.82,0,0,1-12.51,0,9,9,0,0,1,0-11.48,8.8,8.8,0,0,1,12.51,0Zm-11.6.82a7.62,7.62,0,0,0,0,9.81,7.49,7.49,0,0,0,10.72,0,7.62,7.62,0,0,0,0-9.81,7.56,7.56,0,0,0-10.72,0Zm6-.22a3.19,3.19,0,0,1,2.39.93,2.88,2.88,0,0,1,.84,2.1,2.36,2.36,0,0,1-.51,1.48,2.43,2.43,0,0,1-1.17.75,1.69,1.69,0,0,1,1.1.51,1.82,1.82,0,0,1,.51,1.35,7.9,7.9,0,0,0,.11,1.23,7.32,7.32,0,0,0,.34,1.24.5.5,0,0,1-.05.49.76.76,0,0,1-.4.29.8.8,0,0,1-.53,0,.48.48,0,0,1-.35-.31,8.32,8.32,0,0,1-.53-2.79,1.34,1.34,0,0,0-.58-1.15,2.31,2.31,0,0,0-1.37-.37h-3.14v4.06c0,.39-.22.58-.68.58s-.67-.19-.67-.58v-8.13a1.73,1.73,0,0,1,.4-1.15,1.6,1.6,0,0,1,1.26-.53Zm1.22,4.07a1.44,1.44,0,0,0,.57-1.15,1.54,1.54,0,0,0-.57-1.26,2.37,2.37,0,0,0-1.62-.51h-2.16a.78.78,0,0,0-.6.24.76.76,0,0,0-.18.53v2.65h2.94A2.42,2.42,0,0,0,249.19,112.06Z"/><polygon class="cls-8" points="240.9 101.89 56.79 101.89 64.24 71.56 248.35 71.56 240.9 101.89"/><path class="cls-3" d="M93.05,72.59v7h16.59v4.89H70.69V79.54h16.6v-7H76V50.18h5.76V57H98.62V50.18h5.76V72.59Zm5.57-4.85V61.89H81.71v5.85Z"/><path class="cls-3" d="M151.25,67.15V71.9h-39V67.15ZM117.32,48.77h28.9v4.71H134.65v.22a3.45,3.45,0,0,0,.66,2.18,5.77,5.77,0,0,0,2.4,1.53q2.61,1.05,5.12,1.92t5.22,1.74l-1.79,4.57q-2.88-1-5.25-1.83c-1.59-.58-3.14-1.16-4.67-1.74-2.65-1-4.14-1.86-4.48-2.56h0c-.37.73-1.89,1.62-4.58,2.65Q125,63,122.58,63.9c-1.58.58-3.34,1.19-5.26,1.83l-1.83-4.66q2.7-.87,5.22-1.74t5.12-1.92a5.84,5.84,0,0,0,2.4-1.53,3.45,3.45,0,0,0,.66-2.18v-.22H117.32Zm14.45,42.29a27.87,27.87,0,0,1-5.28-.48,15.7,15.7,0,0,1-4.37-1.47,8.45,8.45,0,0,1-3-2.46,5.75,5.75,0,0,1-1.1-3.5V81.78a5.75,5.75,0,0,1,1.1-3.5,8.58,8.58,0,0,1,3-2.47,16,16,0,0,1,4.37-1.46,29.28,29.28,0,0,1,10.56,0,16,16,0,0,1,4.37,1.46,8.58,8.58,0,0,1,3,2.47,5.75,5.75,0,0,1,1.1,3.5v1.37a5.75,5.75,0,0,1-1.1,3.5,8.45,8.45,0,0,1-3,2.46,15.7,15.7,0,0,1-4.37,1.47A27.87,27.87,0,0,1,131.77,91.06Zm0-12.53a17.88,17.88,0,0,0-3,.25,11.72,11.72,0,0,0-2.56.73,6,6,0,0,0-1.81,1.15,2,2,0,0,0-.68,1.48v.64a2,2,0,0,0,.68,1.49,6,6,0,0,0,1.81,1.14,11.19,11.19,0,0,0,2.56.73,17.53,17.53,0,0,0,5.9,0,11.19,11.19,0,0,0,2.56-.73,6,6,0,0,0,1.81-1.14,2,2,0,0,0,.68-1.49v-.64a2,2,0,0,0-.68-1.48,6,6,0,0,0-1.81-1.15,11.72,11.72,0,0,0-2.56-.73A17.88,17.88,0,0,0,131.77,78.53Z"/><path class="cls-3" d="M172.6,51.28V78.49H155.18V51.28Zm-5.49,4.85h-6.45V73.64h6.45ZM191,89.78h-5.49V66.92h-3.75v20.8h-5.49V48.13h5.49v13.8h3.75V47.26H191Z"/><path class="cls-3" d="M207.75,68.56a13.22,13.22,0,0,1-4.73-.77,10.11,10.11,0,0,1-3.4-2.08,8.55,8.55,0,0,1-2.06-3,9.1,9.1,0,0,1-.69-3.5V58a9.06,9.06,0,0,1,.69-3.5,8.55,8.55,0,0,1,2.06-3,10.11,10.11,0,0,1,3.4-2.08,14.76,14.76,0,0,1,9.47,0,10.11,10.11,0,0,1,3.4,2.08,8.55,8.55,0,0,1,2.06,3,9.06,9.06,0,0,1,.69,3.5v1.28a9.1,9.1,0,0,1-.69,3.5,8.55,8.55,0,0,1-2.06,3,10.11,10.11,0,0,1-3.4,2.08A13.24,13.24,0,0,1,207.75,68.56Zm0-15a6.79,6.79,0,0,0-2.4.39A4.76,4.76,0,0,0,203.66,55a4.24,4.24,0,0,0-1,1.49,4.55,4.55,0,0,0-.32,1.64v1a4.6,4.6,0,0,0,.32,1.65,4.3,4.3,0,0,0,1,1.48,4.76,4.76,0,0,0,1.69,1.05,7.61,7.61,0,0,0,4.81,0,4.76,4.76,0,0,0,1.69-1.05,4.3,4.3,0,0,0,1-1.48,4.6,4.6,0,0,0,.32-1.65v-1a4.55,4.55,0,0,0-.32-1.64,4.24,4.24,0,0,0-1-1.49,4.76,4.76,0,0,0-1.69-1.05A6.8,6.8,0,0,0,207.75,53.52Zm23.09,17.56V89.82H203.78V71.08h5.71v4.8h15.64v-4.8Zm-5.71,14V80.63H209.49v4.44Zm0-37.81h5.76v21.9h-5.76Z"/><path class="cls-7" d="M109.64,142.33v4.89H70.69v-4.89Zm-35-6.73v-4.84h5.44V118.41H74.94v-4.84H105.3v4.84h-5v12.35h5.35v4.84Zm11.2-4.84h8.68V118.41H85.87Z"/><path class="cls-7" d="M134.65,136.61v5.76h16.6v4.85h-39v-4.85h16.6v-5.76H117.51V122.44h22.54v-4.53H117.37v-4.85h28.44v14.18H123.27v4.52h23.5v4.85Z"/><path class="cls-7" d="M192.85,142.33v4.89H153.9v-4.89ZM180,138.48c.27-1.46.51-2.87.71-4.22s.35-2.68.45-4,.19-2.55.23-3.82.07-2.55.07-3.86v-3.7H158.56v-5.08h28.62v7.27c0,2.17,0,4.06-.09,5.69s-.15,3.14-.27,4.51-.29,2.68-.48,3.93-.42,2.56-.67,3.93Z"/><path class="cls-7" d="M207.57,120.79V117h-11v-4.62H213v12.94H202v3.84c2.22,0,4.46,0,6.72-.14s4.34-.25,6.26-.5l.55,4.53q-2.88.41-7.45.57c-3.05.11-6.87.16-11.48.16V120.79ZM204.14,137h27.57v15.59H204.14Zm5.72,10.84H226v-6.08H209.86Zm12.85-27.94h3.52v-9.87h5.48v25h-5.48V124.91h-3.52V135h-5.45V110.6h5.45Z"/><path class="cls-2" d="M63.37,230V193.64H69.2v12.88h4.86v5.18H69.2V230ZM40.75,218.22l.45-.27c1.87-1.12,3.5-2.14,4.84-3a36.81,36.81,0,0,0,3.32-2.42,12.5,12.5,0,0,0,2-2,7.9,7.9,0,0,0,1.09-1.91,6.9,6.9,0,0,0,.46-2c.07-.74.1-1.59.1-2.5V202H41.6v-5.14H58.86v7.41a29,29,0,0,1-.19,3.54,11.85,11.85,0,0,1-.77,3,12,12,0,0,1-1.59,2.72,18.84,18.84,0,0,1-2.64,2.68,46,46,0,0,1-3.94,2.92c-1.54,1-3.38,2.2-5.47,3.49l-.41.25Z"/><path class="cls-6" d="M68.7,194.14V207h4.86v4.18H68.7v18.28H63.87V194.14H68.7m-10.34,3.19v6.91a27.84,27.84,0,0,1-.19,3.48,10.8,10.8,0,0,1-2.26,5.49,16.77,16.77,0,0,1-2.56,2.6,42.65,42.65,0,0,1-3.9,2.89q-2.3,1.55-5.45,3.48l-2.55-3.8q2.85-1.71,4.87-3a39.23,39.23,0,0,0,3.36-2.45,13.52,13.52,0,0,0,2.11-2.13,8.57,8.57,0,0,0,1.16-2,7.88,7.88,0,0,0,.49-2.17c.07-.76.1-1.61.1-2.54v-2.55H42.1v-4.14H58.36m11.34-4.19H62.87v37.34H69.7V212.2h4.86V206H69.7V193.14Zm-10.34,3.19H41.1v6.14H52.54V204c0,.9,0,1.73-.09,2.46a6.87,6.87,0,0,1-.43,1.88,7.53,7.53,0,0,1-1,1.8,12.74,12.74,0,0,1-2,2,37.62,37.62,0,0,1-3.27,2.39c-1.34.88-3,1.89-4.83,3l-.9.54.58.88,2.55,3.8.53.8.82-.51c2.1-1.28,3.94-2.46,5.49-3.5a44.92,44.92,0,0,0,4-2.95,18.32,18.32,0,0,0,2.71-2.76A12,12,0,0,0,58.36,211a12.46,12.46,0,0,0,.81-3.15,30,30,0,0,0,.19-3.6v-7.91Z"/><path class="cls-2" d="M81.61,230V213.43h5.75v4h12v-4h5.75V230Zm17.75-4.95v-2.68h-12v2.68Zm0-12.22v-19.2h5.79v19.2Zm-13.9-.5a11.54,11.54,0,0,1-4.11-.67,9.1,9.1,0,0,1-3-1.84,7.75,7.75,0,0,1-1.83-2.64,8.15,8.15,0,0,1-.6-3.1V203a8.15,8.15,0,0,1,.6-3.1,7.75,7.75,0,0,1,1.83-2.64,8.82,8.82,0,0,1,3-1.83,12.76,12.76,0,0,1,8.22,0,9,9,0,0,1,3,1.83,7.66,7.66,0,0,1,1.83,2.64A8.15,8.15,0,0,1,95,203v1.06a8.15,8.15,0,0,1-.6,3.1,7.66,7.66,0,0,1-1.83,2.64,9.1,9.1,0,0,1-3,1.84A11.54,11.54,0,0,1,85.42,212.34Zm0-12.5a5.26,5.26,0,0,0-1.82.29,3.57,3.57,0,0,0-1.23.76,3.2,3.2,0,0,0-.7,1.07,3.1,3.1,0,0,0-.23,1.18V204a3.18,3.18,0,0,0,.23,1.19,3.26,3.26,0,0,0,.7,1.06,3.57,3.57,0,0,0,1.23.76,5.86,5.86,0,0,0,3.64,0,3.57,3.57,0,0,0,1.23-.76,3.26,3.26,0,0,0,.7-1.06A3.18,3.18,0,0,0,89.4,204v-.84a3.18,3.18,0,0,0-.23-1.19,3.26,3.26,0,0,0-.7-1.06,3.57,3.57,0,0,0-1.23-.76A5.26,5.26,0,0,0,85.42,199.84Z"/><path class="cls-6" d="M104.61,194.14v18.2H99.82v-18.2h4.79m-19.19,1.14a11,11,0,0,1,3.93.64,8.4,8.4,0,0,1,2.83,1.73,7.14,7.14,0,0,1,1.71,2.47,7.58,7.58,0,0,1,.57,2.91v1.06a7.58,7.58,0,0,1-.57,2.91,7.14,7.14,0,0,1-1.71,2.47,8.4,8.4,0,0,1-2.83,1.73,12.39,12.39,0,0,1-7.86,0,8.4,8.4,0,0,1-2.83-1.73A7.14,7.14,0,0,1,77,207a7.58,7.58,0,0,1-.57-2.91V203a7.58,7.58,0,0,1,.57-2.91,7.14,7.14,0,0,1,1.71-2.47,8.4,8.4,0,0,1,2.83-1.73,10.94,10.94,0,0,1,3.93-.64m0,12.5a5.73,5.73,0,0,0,2-.32,4,4,0,0,0,1.41-.88,3.63,3.63,0,0,0,.82-1.23A4,4,0,0,0,89.9,204v-.84a4,4,0,0,0-.26-1.37,3.63,3.63,0,0,0-.82-1.23,4,4,0,0,0-1.41-.88,5.73,5.73,0,0,0-2-.32,5.79,5.79,0,0,0-2,.32,3.94,3.94,0,0,0-1.4.88,3.63,3.63,0,0,0-.82,1.23,3.75,3.75,0,0,0-.27,1.37V204a3.75,3.75,0,0,0,.27,1.37,3.63,3.63,0,0,0,.82,1.23,3.94,3.94,0,0,0,1.4.88,5.79,5.79,0,0,0,2,.32m19.19,6.15v15.58H82.11V213.93h4.75v4h13v-4h4.75M86.86,225.56h13v-3.68h-13v3.68m18.75-32.42H98.82v20.2h0v3.58h-11v-4H81.11v17.58h24.5V193.14ZM87.86,222.88h11v1.68h-11v-1.68Zm-2.44-28.6a12.06,12.06,0,0,0-4.29.71A9.27,9.27,0,0,0,78,196.93a8,8,0,0,0-2,2.81,8.57,8.57,0,0,0-.64,3.29v1.06a8.57,8.57,0,0,0,.64,3.29,8,8,0,0,0,2,2.81,9.36,9.36,0,0,0,3.16,1.94,13.32,13.32,0,0,0,8.58,0,9.36,9.36,0,0,0,3.16-1.94,8,8,0,0,0,1.95-2.81,8.57,8.57,0,0,0,.64-3.29V203a8.57,8.57,0,0,0-.64-3.29,8,8,0,0,0-1.95-2.81A9.27,9.27,0,0,0,89.71,195a12.09,12.09,0,0,0-4.29-.71Zm0,12.5a4.66,4.66,0,0,1-1.64-.26,2.73,2.73,0,0,1-1-.65,2.46,2.46,0,0,1-.6-.89,2.78,2.78,0,0,1-.2-1v-.84a2.78,2.78,0,0,1,.2-1,2.46,2.46,0,0,1,.6-.89,2.85,2.85,0,0,1,1-.65,5.3,5.3,0,0,1,3.28,0,2.8,2.8,0,0,1,1,.65,2.59,2.59,0,0,1,.6.89,2.77,2.77,0,0,1,.19,1V204a2.77,2.77,0,0,1-.19,1,2.59,2.59,0,0,1-.6.89,2.8,2.8,0,0,1-1,.65,4.66,4.66,0,0,1-1.64.26Z"/><path class="cls-2" d="M142,230V193.64h5.83v12.88h4.86v5.18h-4.86V230ZM119.4,218.22l.46-.27c1.87-1.12,3.5-2.14,4.84-3A36.81,36.81,0,0,0,128,212.5a12.5,12.5,0,0,0,2-2,7.9,7.9,0,0,0,1.09-1.91,7.23,7.23,0,0,0,.46-2c.07-.74.1-1.59.1-2.5V202H120.26v-5.14h17.26v7.41a29,29,0,0,1-.19,3.54,11.46,11.46,0,0,1-.78,3,11.58,11.58,0,0,1-1.58,2.72,18.84,18.84,0,0,1-2.64,2.68,46,46,0,0,1-3.94,2.92c-1.54,1-3.38,2.2-5.47,3.49l-.41.25Z"/><path class="cls-6" d="M147.36,194.14V207h4.86v4.18h-4.86v18.28h-4.83V194.14h4.83M137,197.33v6.91a27.84,27.84,0,0,1-.19,3.48,10.8,10.8,0,0,1-2.26,5.49,16.77,16.77,0,0,1-2.56,2.6,44.09,44.09,0,0,1-3.9,2.89q-2.3,1.55-5.45,3.48l-2.55-3.8q2.85-1.71,4.87-3a39.23,39.23,0,0,0,3.36-2.45,13.52,13.52,0,0,0,2.11-2.13,8.57,8.57,0,0,0,1.16-2,7.88,7.88,0,0,0,.49-2.17c.07-.76.1-1.61.1-2.54v-2.55H120.76v-4.14H137m11.34-4.19h-6.83v37.34h6.83V212.2h4.86V206h-4.86V193.14ZM138,196.33H119.76v6.14H131.2V204c0,.9,0,1.73-.09,2.46a6.87,6.87,0,0,1-.43,1.88,7.89,7.89,0,0,1-1,1.8,12.74,12.74,0,0,1-2,2,37.62,37.62,0,0,1-3.27,2.39c-1.34.88-3,1.89-4.83,3l-.9.54.58.88,2.55,3.8.53.8.82-.51c2.1-1.28,3.94-2.46,5.49-3.5a44.92,44.92,0,0,0,4-2.95,18.32,18.32,0,0,0,2.71-2.76A12,12,0,0,0,137,211a12.46,12.46,0,0,0,.81-3.15,30,30,0,0,0,.19-3.6v-7.91Z"/><path class="cls-2" d="M170.08,231a23.76,23.76,0,0,1-4.48-.41,14,14,0,0,1-3.76-1.24,7.47,7.47,0,0,1-2.65-2.18,5.29,5.29,0,0,1-1-3.21v-1.14a5.26,5.26,0,0,1,1-3.2,7.37,7.37,0,0,1,2.65-2.18,13.84,13.84,0,0,1,3.76-1.24,24.74,24.74,0,0,1,9,0,14.07,14.07,0,0,1,3.76,1.24,7.42,7.42,0,0,1,2.64,2.18,5.26,5.26,0,0,1,1,3.2V224a5.29,5.29,0,0,1-1,3.21,7.42,7.42,0,0,1-2.64,2.18,14.19,14.19,0,0,1-3.76,1.24A24,24,0,0,1,170.08,231Zm0-10.34a13.19,13.19,0,0,0-2.36.21,10.46,10.46,0,0,0-2,.55,4.21,4.21,0,0,0-1.34.83,1.2,1.2,0,0,0-.42.88v.53a1.18,1.18,0,0,0,.42.87,4,4,0,0,0,1.34.83,9.78,9.78,0,0,0,2,.56,14.08,14.08,0,0,0,4.73,0,9.51,9.51,0,0,0,2-.56,4.2,4.2,0,0,0,1.35-.83,1.17,1.17,0,0,0,.41-.87v-.53a1.17,1.17,0,0,0-.42-.88,4.21,4.21,0,0,0-1.34-.83,10.16,10.16,0,0,0-2-.55A13.31,13.31,0,0,0,170.08,220.7Zm-16.69-5.81V210h33.38v4.91Zm4.56-6.84V194.74h5.79v8.4h18.39v4.91Z"/><path class="cls-6" d="M163.24,195.24v8.4h18.39v3.91H158.45V195.24h4.79m23,15.24v3.91H153.89v-3.91h32.38m-16.19,5.85a22.82,22.82,0,0,1,4.39.4,13.46,13.46,0,0,1,3.63,1.19,7,7,0,0,1,2.47,2,4.73,4.73,0,0,1,.91,2.9V224a4.74,4.74,0,0,1-.91,2.91,6.94,6.94,0,0,1-2.47,2,13.12,13.12,0,0,1-3.63,1.2,24.29,24.29,0,0,1-8.78,0,13.12,13.12,0,0,1-3.63-1.2,7,7,0,0,1-2.47-2,4.8,4.8,0,0,1-.91-2.91v-1.14a4.79,4.79,0,0,1,.91-2.9,7.05,7.05,0,0,1,2.47-2,13.46,13.46,0,0,1,3.63-1.19,22.9,22.9,0,0,1,4.39-.4m0,10.33a15.09,15.09,0,0,0,2.45-.2,10.57,10.57,0,0,0,2.13-.59,4.76,4.76,0,0,0,1.5-.94,1.65,1.65,0,0,0,.57-1.23v-.53a1.69,1.69,0,0,0-.57-1.24,4.93,4.93,0,0,0-1.5-.93,10.57,10.57,0,0,0-2.13-.59,14,14,0,0,0-2.45-.21,14.22,14.22,0,0,0-2.45.21,10.57,10.57,0,0,0-2.13.59,4.93,4.93,0,0,0-1.5.93,1.69,1.69,0,0,0-.57,1.24v.53a1.65,1.65,0,0,0,.57,1.23,4.76,4.76,0,0,0,1.5.94,10.57,10.57,0,0,0,2.13.59,15.28,15.28,0,0,0,2.45.2m-5.84-32.42h-6.79v14.31h25.18v-5.91H164.24v-8.4Zm23,15.24H152.89v5.91h15.38a24.08,24.08,0,0,0-2.77.35,14.81,14.81,0,0,0-3.89,1.29,8,8,0,0,0-2.82,2.33,5.82,5.82,0,0,0-1.11,3.5V224a5.83,5.83,0,0,0,1.11,3.51,8,8,0,0,0,2.82,2.32,14.34,14.34,0,0,0,3.89,1.29,25.18,25.18,0,0,0,9.16,0,14.41,14.41,0,0,0,3.9-1.29,7.88,7.88,0,0,0,2.81-2.32,5.76,5.76,0,0,0,1.11-3.51v-1.14a5.75,5.75,0,0,0-1.11-3.5,7.92,7.92,0,0,0-2.81-2.33,15,15,0,0,0-3.9-1.29,23.9,23.9,0,0,0-2.76-.35h15.37v-5.91Zm-17.19,16.18a13.24,13.24,0,0,1-2.28-.19,9.34,9.34,0,0,1-1.92-.53,3.66,3.66,0,0,1-1.18-.72.69.69,0,0,1-.27-.52v-.53a.69.69,0,0,1,.27-.52,3.66,3.66,0,0,1,1.18-.72,8.75,8.75,0,0,1,1.92-.53,13.1,13.1,0,0,1,4.56,0,8.75,8.75,0,0,1,1.92.53,3.83,3.83,0,0,1,1.19.72.7.7,0,0,1,.26.52v.53a.7.7,0,0,1-.26.52,3.83,3.83,0,0,1-1.19.72,10,10,0,0,1-1.92.53,13.24,13.24,0,0,1-2.28.19Z"/><path class="cls-2" d="M215.3,231a19,19,0,0,1-4.55-.51,11.76,11.76,0,0,1-3.56-1.47,7.36,7.36,0,0,1-2.37-2.34,5.86,5.86,0,0,1-.85-3.06v-1.59a5.83,5.83,0,0,1,.85-3.06,7.36,7.36,0,0,1,2.37-2.34,11.66,11.66,0,0,1,3.56-1.47,20.55,20.55,0,0,1,9.1,0c.3.07.6.15.88.24v-21.8h5.79v8.05h4.63v5.18h-4.63v8.67H221a10.86,10.86,0,0,1,2.4,1.13,7.33,7.33,0,0,1,2.36,2.34,5.83,5.83,0,0,1,.85,3.06v1.59a5.86,5.86,0,0,1-.85,3.06,7.33,7.33,0,0,1-2.36,2.34,11.72,11.72,0,0,1-3.57,1.47A18.85,18.85,0,0,1,215.3,231Zm0-11.44a9.57,9.57,0,0,0-2.45.29,6.67,6.67,0,0,0-1.79.72,3.57,3.57,0,0,0-1.05.91,1.45,1.45,0,0,0-.33.85v1a1.4,1.4,0,0,0,.33.84,3.59,3.59,0,0,0,1.05.92,6.67,6.67,0,0,0,1.79.72,10.54,10.54,0,0,0,4.91,0,7,7,0,0,0,1.79-.72,3.72,3.72,0,0,0,1-.92,1.45,1.45,0,0,0,.32-.84v-1a1.5,1.5,0,0,0-.32-.85,3.62,3.62,0,0,0-1.06-.91,6.73,6.73,0,0,0-1.78-.72A9.65,9.65,0,0,0,215.3,219.6ZM196.72,211l.43-.31c1.11-.81,2.13-1.59,3-2.3s1.81-1.51,2.71-2.34a7.83,7.83,0,0,0,1.77-2.32,6.82,6.82,0,0,0,.65-3.05v-5.59h5.87v5.44a13.33,13.33,0,0,0,.09,1.63,4.36,4.36,0,0,0,.34,1.25,4.58,4.58,0,0,0,.7,1.11,8.17,8.17,0,0,0,1.19,1.13c.74.61,1.59,1.27,2.54,2s1.94,1.39,2.9,2l.44.31-3.28,4.13-.39-.27c-.89-.61-1.74-1.21-2.56-1.81s-1.58-1.18-2.29-1.74-1.26-1-1.78-1.44a7,7,0,0,1-.61-.58,4.26,4.26,0,0,1-.34.43,19.42,19.42,0,0,1-1.72,1.65c-.9.77-1.82,1.54-2.77,2.31s-2,1.57-3,2.39l-.38.29Z"/><path class="cls-6" d="M226,194.14v8.05h4.63v4.18H226V215h-4.79v-20.9H226m-15.35,1.44v4.94a14.13,14.13,0,0,0,.09,1.69,4.84,4.84,0,0,0,.38,1.39,5.09,5.09,0,0,0,.78,1.23,8.5,8.5,0,0,0,1.25,1.2c.74.61,1.59,1.27,2.57,2s1.94,1.39,2.91,2.05L216,213.4q-1.34-.92-2.55-1.8c-.81-.6-1.57-1.17-2.28-1.73s-1.25-1-1.77-1.43a2.88,2.88,0,0,1-.93-1.12h0a3.7,3.7,0,0,1-.68,1,18.5,18.5,0,0,1-1.67,1.59c-.89.76-1.81,1.53-2.76,2.3s-1.95,1.57-3,2.38l-2.85-3.54c1.12-.81,2.13-1.58,3-2.31s1.83-1.52,2.74-2.36a8.39,8.39,0,0,0,1.88-2.47,7.22,7.22,0,0,0,.7-3.27v-5.09h4.87m4.63,19.61a18.43,18.43,0,0,1,4.43.49,11.35,11.35,0,0,1,3.42,1.41,6.84,6.84,0,0,1,2.2,2.18,5.25,5.25,0,0,1,.78,2.8v1.59a5.28,5.28,0,0,1-.78,2.8,6.94,6.94,0,0,1-2.2,2.18,11.35,11.35,0,0,1-3.42,1.41,20.23,20.23,0,0,1-8.85,0,11.41,11.41,0,0,1-3.43-1.41,6.94,6.94,0,0,1-2.2-2.18,5.28,5.28,0,0,1-.78-2.8v-1.59a5.25,5.25,0,0,1,.78-2.8,6.84,6.84,0,0,1,2.2-2.18,11.41,11.41,0,0,1,3.43-1.41,18.29,18.29,0,0,1,4.42-.49m0,11.44a10.22,10.22,0,0,0,2.59-.31,7.11,7.11,0,0,0,1.92-.78,4.1,4.1,0,0,0,1.19-1,1.92,1.92,0,0,0,.42-1.14v-1a1.92,1.92,0,0,0-.42-1.14,4.28,4.28,0,0,0-1.19-1,7.46,7.46,0,0,0-1.92-.77,10.93,10.93,0,0,0-5.17,0,7.46,7.46,0,0,0-1.92.77,4.19,4.19,0,0,0-1.2,1,1.92,1.92,0,0,0-.42,1.14v1a1.92,1.92,0,0,0,.42,1.14,4,4,0,0,0,1.2,1,7.11,7.11,0,0,0,1.92.78,10.14,10.14,0,0,0,2.58.31M227,193.14h-6.79v21.64l-.26-.07a18.23,18.23,0,0,0-3.36-.49l.16-.2,2.66-3.34.67-.84-.89-.61c-1-.65-1.93-1.34-2.88-2s-1.79-1.34-2.52-1.94a7.77,7.77,0,0,1-1.12-1.07,4,4,0,0,1-.94-2.11,14.33,14.33,0,0,1-.08-1.56v-5.94H204.8v6.09a6.2,6.2,0,0,1-.6,2.82,7.31,7.31,0,0,1-1.65,2.18c-.9.82-1.8,1.6-2.7,2.32s-1.89,1.48-3,2.29l-.85.61.66.82,2.85,3.54.61.75.78-.59c1-.8,2.08-1.61,3-2.39s1.88-1.55,2.78-2.32a18.29,18.29,0,0,0,1.78-1.7h0l.24.21c.53.45,1.14.94,1.81,1.46s1.49,1.15,2.3,1.74,1.64,1.19,2.51,1.79h-.06a19.47,19.47,0,0,0-4.67.52,12.29,12.29,0,0,0-3.71,1.54,7.82,7.82,0,0,0-2.52,2.5,6.23,6.23,0,0,0-.93,3.32v1.59a6.23,6.23,0,0,0,.93,3.32,7.82,7.82,0,0,0,2.52,2.5,12.4,12.4,0,0,0,3.71,1.54,21.23,21.23,0,0,0,9.34,0,12.46,12.46,0,0,0,3.72-1.54,7.92,7.92,0,0,0,2.52-2.5,6.31,6.31,0,0,0,.92-3.32v-1.59a6.31,6.31,0,0,0-.92-3.32,7.92,7.92,0,0,0-2.52-2.5,3.13,3.13,0,0,0-.34-.21H227v-8.67h4.63v-6.18H227v-8.05ZM215.3,225.63a9.15,9.15,0,0,1-2.33-.27,6.57,6.57,0,0,1-1.65-.67,3.16,3.16,0,0,1-.91-.78,1,1,0,0,1-.23-.55v-1a1,1,0,0,1,.23-.55,3.16,3.16,0,0,1,.91-.78,6.16,6.16,0,0,1,1.66-.67,10.15,10.15,0,0,1,4.65,0,6.44,6.44,0,0,1,1.66.67,3.3,3.3,0,0,1,.91.78,1,1,0,0,1,.22.55v1a1.06,1.06,0,0,1-.22.55,3.21,3.21,0,0,1-.92.78,6.57,6.57,0,0,1-1.65.67,9.15,9.15,0,0,1-2.33.27Z"/><path class="cls-2" d="M236.58,230v-13.2h9.27v-1.85h-13.8v-4.88h33.38v4.88H251.64v1.85h9.27V230Zm18.58-4.84v-3.52H242.33v3.52Zm-19.42-16.41V204H240v-4.43H236v-4.76h25.55v4.76h-4.07V204h4.29v4.76Zm16-4.76v-4.43h-6V204Z"/><path class="cls-6" d="M261,195.28V199H257v5.43h4.29v3.76h-25v-3.76h4.29V199h-4.06v-3.76H261m-15.77,9.19h7V199h-7v5.43m19.68,6.08v3.88H251.14v2.85h9.27v12.2H237.08v-12.2h9.27v-2.85h-13.8v-3.88h32.38m-23.1,15.09h13.83v-4.52H241.83v4.52M262,194.28H235.47V200h4.06v3.43h-4.29v5.76h27v-5.76H258V200H262v-5.76ZM246.25,200h5v3.43h-5V200Zm19.68,9.51H231.55v5.88h13.8v.85h-9.27v14.2h25.33v-14.2h-9.27v-.85h13.79v-5.88Zm-23.1,12.57h11.83v2.52H242.83v-2.52Z"/></g></g></svg>