<svg xmlns="http://www.w3.org/2000/svg" viewBox="0 0 419.23 147.45"><defs><style>.cls-1{fill:#4eba6f;stroke:#125e12;}.cls-1,.cls-2,.cls-3,.cls-4{stroke-miterlimit:10;stroke-width:10px;}.cls-2{fill:#ffd70d;stroke:#7c4b0a;}.cls-3{fill:#f15a5a;stroke:#892c22;}.cls-4{fill:#2d95bf;stroke:#15494f;}</style></defs><g id="레이어_2" data-name="레이어 2"><g id="레이어_5" data-name="레이어 5"><path class="cls-1" d="M396.9,29.16A12.29,12.29,0,0,0,401,26.23a11.66,11.66,0,0,0,2.39-4.18A13.74,13.74,0,0,0,404,17a14.08,14.08,0,0,0-1.22-5,11.48,11.48,0,0,0-2.88-3.88,12.42,12.42,0,0,0-4.38-2.42A14.82,14.82,0,0,0,391.15,5c-.44,0-.9,0-1.36,0a15.51,15.51,0,0,0-5.57,1.32,12.06,12.06,0,0,0-4,2.93,11.43,11.43,0,0,0-2.36,4.2,13.87,13.87,0,0,0-.6,5.11,13.71,13.71,0,0,0,1.21,5,11.54,11.54,0,0,0,2.86,3.85,12,12,0,0,0,4.11,2.32,2.6,2.6,0,0,0,.25.1l.08,0a16.69,16.69,0,0,0,11.16-.71Z"/><path class="cls-1" d="M332,128a45.62,45.62,0,0,1-17.11-1.61,35.16,35.16,0,0,1-22-18.87A42.51,42.51,0,0,1,289,92.4a43,43,0,0,1,1.47-15.58A35.05,35.05,0,0,1,309.2,54.65,49.9,49.9,0,0,1,343,52a35.88,35.88,0,0,1,13.2,7.21A36.59,36.59,0,0,1,365,70.9a42.27,42.27,0,0,1,4,15.15,41.68,41.68,0,0,1-1.54,15.51,36.6,36.6,0,0,1-6.91,12.91,35.74,35.74,0,0,1-11.89,9.2A45.27,45.27,0,0,1,332,128Zm-2.11-26.53a12.66,12.66,0,0,0,8.86-4.07,11.77,11.77,0,0,0,2.78-9.14,12,12,0,0,0-4.19-8.66,12.53,12.53,0,0,0-9.4-2.69A12.34,12.34,0,0,0,319.23,81a12,12,0,0,0-2.77,9.21,11.76,11.76,0,0,0,4.18,8.59A12.44,12.44,0,0,0,329.9,101.44Zm48.85-53c-.34-4.38,1.36-6.72,5.13-7l17.6-1.4q5.64-.45,6.17,6.12l6.53,82.21q.52,6.57-5.12,7l-17.6,1.4q-5.65.45-6.17-6.12Z"/><path class="cls-2" d="M104.67,20.16q1.85-3.93,3.45-4.87c1.07-.62,2.89-.8,5.46-.51l23.07,2.55a10.79,10.79,0,0,1,6,2.22c1.35,1.18,2,3.5,2,6.94l.25,109.56a9.57,9.57,0,0,1-.64,4.23c-.45.87-1.57,1.32-3.34,1.35l-26.81.82c-2,0-3.33-.25-4-.78a4.07,4.07,0,0,1-1.08-3l-.26-41.07a1.93,1.93,0,0,0-3.72-.66L91.24,133.38a8.79,8.79,0,0,1-2.82,3.9,6.74,6.74,0,0,1-4.6.78L64.6,135.93a6.68,6.68,0,0,1-4.32-1.76,8.73,8.73,0,0,1-1.9-4.43L52.72,91.08A1.93,1.93,0,0,0,49,90.92l-9.1,40a4.06,4.06,0,0,1-1.72,2.73c-.75.38-2.1.34-4.06-.1l-26-6.67c-1.72-.42-2.71-1.1-3-2a9.65,9.65,0,0,1,.3-4.27L29.65,13.75c.72-3.36,1.87-5.48,3.44-6.34a10.86,10.86,0,0,1,6.38-.84L62.54,9.13c2.56.28,4.3.85,5.21,1.69s1.67,2.69,2.31,5.51l10,51a1.93,1.93,0,0,0,3.64.4Z"/><path class="cls-3" d="M251.1,52.64A6.67,6.67,0,0,0,245,45.56L224.73,44q-3.58-.27-5.18-1.77t-1.33-5.08l1.69-21.85c.18-2.39.88-4,2.09-4.82s3-1.14,5.39-1l92.16,7.11a8.48,8.48,0,0,1,5.19,1.77c1.06,1,1.51,2.69,1.32,5.08l-1.68,21.85c-.19,2.39-.89,4-2.09,4.82s-3,1.14-5.4,1L295.8,49.49a6.65,6.65,0,0,0-7.16,6.21l-5,76.63q-.35,4.44-1.83,5.95t-5.25,1.23L252,137.61q-3.59-.27-4.91-2c-.89-1.15-1.21-3.21-1-6.17Z"/><path class="cls-4" d="M140.71,25.28q-.57-3.9.55-5.48c.76-1.05,2.35-2,4.79-2.81a139.24,139.24,0,0,1,13.83-3.57q6.33-1.24,12.76-2.25a144.11,144.11,0,0,1,18.48-1A52.24,52.24,0,0,1,208.28,13a33.1,33.1,0,0,1,13.37,8.79q5.52,6,7.28,16.46a35.21,35.21,0,0,1-.46,13.21,26.22,26.22,0,0,1-3,7.61,4.6,4.6,0,0,0,1.28,6.18,29.13,29.13,0,0,1,2.89,2.26,36.56,36.56,0,0,1,6,6.87,43.84,43.84,0,0,1,4.48,8.49,40.56,40.56,0,0,1,2.53,9.55q1.29,9.33-1.36,16.22a31.83,31.83,0,0,1-8,11.92,46.2,46.2,0,0,1-13.17,8.31,113.12,113.12,0,0,1-16.73,5.58,190.81,190.81,0,0,1-19.18,3.43q-9.93,1.28-19.66,2.1c-1.25.12-2.41.18-3.5.18a4.79,4.79,0,0,1-2.75-.75,6.26,6.26,0,0,1-2.21-2.27,11.4,11.4,0,0,1-1.24-4.6Zm34.78,32.14a5.76,5.76,0,0,0,6.77,4.85,32.83,32.83,0,0,0,11.55-4.2q6-3.89,5.27-11.45a15.42,15.42,0,0,0-1.39-5,8.2,8.2,0,0,0-4.1-3.83,23.11,23.11,0,0,0-8-1.37,50.45,50.45,0,0,0-7.16.42,5.77,5.77,0,0,0-5,6.57Zm6.6,47.42a5.57,5.57,0,0,0,6.28,4.69,78.65,78.65,0,0,0,9.73-1.94,34.75,34.75,0,0,0,9-3.65,9.28,9.28,0,0,0,4-4.49,11.55,11.55,0,0,0,.62-5.19q-1-7.44-9.89-8.72a63,63,0,0,0-16.86.27,5.56,5.56,0,0,0-4.82,6.31Z"/></g></g></svg>