<svg xmlns="http://www.w3.org/2000/svg" viewBox="0 0 3957.68 2956.5"><defs><style>.cls-1{fill:#c9ddf7;}.cls-2{fill:#f9cece;}.cls-3{fill:#ddfacb;}.cls-4{fill:#faf5df;}</style></defs><g id="레이어_2" data-name="레이어 2"><g id="레이어_1-2" data-name="레이어 1"><path class="cls-1" d="M298.51,1229.2c483.94,273.37,1359.3-148.89,1357-465-1-133.7-158.8-229.9-305-319-270.68-165-777.5-318.31-1089-52C123.26,511.39-6,737.44,54.51,947.2,104.19,1119.43,260.8,1207.89,298.51,1229.2Z"/><path class="cls-2" d="M3200.21,718.44c-233.84,401.08-928.32,490.13-1100.9,262.77C1962.45,800.9,2124,382.28,2403.23,176.4c222.89-164.32,618-264.73,799.52-67.89C3346.59,264.45,3300.55,546.34,3200.21,718.44Z"/><path class="cls-3" d="M1103,1628.7c295.2,97.73,634.17,389.84,592,709-39.65,300.15-393.68,452.18-512,503-39.14,16.81-738.83,306.24-1056-99-186.29-238-156.86-608.68,18-854C377.8,1561.1,813.92,1533,1103,1628.7Z"/><path class="cls-4" d="M2626,1402.7c-243.38,113.32-514.49,383.63-522,751-.55,27-2.22,411.45,296,634,414.35,309.2,974.58-17.2,1024-47,265.39-160,603.58-521.59,521-874C3841.47,1424.8,3117.72,1173.75,2626,1402.7Z"/></g></g></svg>