<svg xmlns="http://www.w3.org/2000/svg" xmlns:xlink="http://www.w3.org/1999/xlink" viewBox="0 0 210.28 238.63"><defs><style>.cls-1,.cls-12,.cls-7,.cls-9{fill:none;}.cls-2{fill:#edbc4f;}.cls-3{fill:#b7805a;stroke:#473222;}.cls-13,.cls-3,.cls-7,.cls-8,.cls-9{stroke-linecap:round;stroke-linejoin:round;}.cls-12,.cls-13,.cls-14,.cls-3,.cls-5,.cls-7,.cls-8,.cls-9{stroke-width:2px;}.cls-4{fill:#ffc5bb;}.cls-5{fill:#fdfaf6;}.cls-12,.cls-5{stroke:#7f4236;}.cls-12,.cls-14,.cls-15,.cls-5{stroke-miterlimit:10;}.cls-6{fill:#050001;}.cls-7{stroke:#030000;}.cls-8{fill:#9d4a36;stroke:#9d4a36;}.cls-9{stroke:#050001;}.cls-10{clip-path:url(#clip-path);}.cls-11{fill:#ffd6bb;}.cls-13{fill:#ffd05a;stroke:#422705;}.cls-14{font-size:47px;stroke:#bc861b;font-family:CookieRun-Black, CookieRun;font-weight:800;}.cls-14,.cls-15{fill:#fff;}.cls-15{stroke:#edbc4f;stroke-width:3px;}.cls-16{font-size:27px;fill:#422705;font-family:CookieRun-Bold, CookieRun;font-weight:700;}</style><clipPath id="clip-path"><path class="cls-1" d="M103.16,169.25c25.31,0,32.06-9.47,33.15-16.85a25,25,0,0,0-2.1-13.61c.5-6.93-1.67-17.8-6.68-23.69-5.8-6.81-14.44-10.13-24.37-10.13s-18.59,3.32-24.38,10.13c-5,5.89-7.19,16.76-6.68,23.69A25,25,0,0,0,70,152.4C71.09,159.78,77.84,169.25,103.16,169.25Z"/></clipPath></defs><g id="레이어_2" data-name="레이어 2"><g id="레이어_1-2" data-name="레이어 1"><rect class="cls-2" x="0.01" y="106.4" width="210.26" height="86.12"/><circle class="cls-2" cx="105.14" cy="105.14" r="105.14"/><path class="cls-3" d="M162.68,152.2c-6-.87-1.18,4-3.46,5.51-3.09,2-4.66-.76-4.66-.76-3.65-6.22,1.54-11.58,8.69-10.93s11.44,13.8,1.14,19.95-31.06-.64-31.06-.64l2.89-5.65s17.6,5.85,24.85.83S162.68,152.2,162.68,152.2Z"/><circle class="cls-3" cx="60.53" cy="117.92" r="20.8"/><circle class="cls-4" cx="60.53" cy="117.92" r="9.62" transform="translate(-68.4 87.16) rotate(-49.41)"/><circle class="cls-3" cx="145.78" cy="117.92" r="20.8"/><circle class="cls-4" cx="145.78" cy="117.92" r="9.62" transform="translate(-23.26 36.79) rotate(-13.33)"/><path class="cls-3" d="M103.16,173.5c20.32,0,42.65-3.46,46.3-19.26,3.22-13.94-4.8-22.45-4.8-22.45s-.27-14.42-7.08-24.88c-7.27-11.16-18.09-17.77-34.42-17.77S76,95.75,68.74,106.91c-6.81,10.46-7.09,24.88-7.09,24.88s-8,8.51-4.8,22.45C60.5,170,82.84,173.5,103.16,173.5Z"/><path class="cls-5" d="M103.16,169.25c25.31,0,32.06-9.47,33.15-16.85a25,25,0,0,0-2.1-13.61c.5-6.93-1.67-17.8-6.68-23.69-5.8-6.81-14.55-11.48-24.37-6.8-9.83-4.68-18.59,0-24.38,6.8-5,5.89-7.19,16.76-6.68,23.69A25,25,0,0,0,70,152.4C71.09,159.78,77.84,169.25,103.16,169.25Z"/><path class="cls-6" d="M96,135.34a2.63,2.63,0,1,1-2.62-2.63A2.62,2.62,0,0,1,96,135.34Z"/><polyline class="cls-7" points="113.69 133.51 111.07 135.26 113.69 137.16"/><path class="cls-8" d="M103.16,155.11c7.15,0,6-10.37,6-10.37h-12S96,155.11,103.16,155.11Z"/><line class="cls-9" x1="111.46" y1="122.34" x2="114.51" y2="122.04"/><line class="cls-9" x1="94.85" y1="122.34" x2="91.8" y2="122.04"/><g class="cls-10"><path class="cls-11" d="M95.11,152.12a15,15,0,1,1-15-15A15,15,0,0,1,95.11,152.12Z"/><path class="cls-11" d="M111.2,152.12a15,15,0,1,0,15-15A15,15,0,0,0,111.2,152.12Z"/></g><path class="cls-6" d="M116.3,116.39a43.28,43.28,0,0,1,16.22,8.67,28.25,28.25,0,0,0-14.14-16.76c-3.95-2-13.84-.65-15.22-.65s-10.73-1.48-14.57.33a28.26,28.26,0,0,0-14.8,17.08A43.39,43.39,0,0,1,90,116.39l2.93-4.11-.1,3.37a46.44,46.44,0,0,1,20.63,0l-.1-3.37Z"/><path class="cls-12" d="M103.16,169.25c25.31,0,32.06-9.47,33.15-16.85a25,25,0,0,0-2.1-13.61c.5-6.93-1.67-17.8-6.68-23.69-5.8-6.81-14.55-11.48-24.37-6.8-9.83-4.68-18.59,0-24.38,6.8-5,5.89-7.19,16.76-6.68,23.69A25,25,0,0,0,70,152.4C71.09,159.78,77.84,169.25,103.16,169.25Z"/><path class="cls-13" d="M97.81,88.7C110.9,92,113.3,80.79,113.3,80.79A39,39,0,0,1,88,74.34S84.71,85.36,97.81,88.7Z"/><path class="cls-13" d="M102.6,94.51c13.28-2.51,10.7-13.72,10.7-13.72a39,39,0,0,1-25.67,4.86S89.32,97,102.6,94.51Z"/><path class="cls-13" d="M121.25,79.19l-10.13-4.8a2.2,2.2,0,1,0-1.88,4l3,1.41-3,6A41.25,41.25,0,0,1,104,90.25,37.08,37.08,0,0,1,92.09,96s6.33,9.6,17.31,1.71c6.85-4.93,6.67-10.32,5.56-13.66l1.21-2.44,3.19,1.51a2.2,2.2,0,1,0,1.89-4Z"/><text class="cls-14" transform="translate(48.82 61.99)">ENFP</text><rect class="cls-15" x="1.54" y="182.06" width="207.2" height="55.07" rx="11.5"/><circle class="cls-2" cx="13.1" cy="192.59" r="5.02"/><circle class="cls-2" cx="198.84" cy="192.59" r="5.02"/><text class="cls-16" transform="translate(17.8 221.14)">재치있는 원숭이</text></g></g></svg>