<svg xmlns="http://www.w3.org/2000/svg" viewBox="0 0 973 269.96"><defs><style>.cls-1{fill:#4eba6f;stroke:#125e12;}.cls-1,.cls-2,.cls-3,.cls-4{stroke-miterlimit:10;stroke-width:8px;}.cls-2{fill:#ffd70d;stroke:#7c4b0a;}.cls-3{fill:#f15a5a;stroke:#892c22;}.cls-4{fill:#2d95bf;stroke:#15494f;}</style></defs><g id="레이어_2" data-name="레이어 2"><g id="레이어_5" data-name="레이어 5"><path class="cls-1" d="M952,51.1a23.08,23.08,0,0,0,8.42-4.16,21.61,21.61,0,0,0,5.72-7,25.73,25.73,0,0,0,2.7-9.24,26.1,26.1,0,0,0-.69-9.64A21.3,21.3,0,0,0,964,13a23.14,23.14,0,0,0-7.36-5.85,27.44,27.44,0,0,0-7.79-2.57c-.82-.15-1.66-.28-2.54-.37a28.86,28.86,0,0,0-10.71.7,22.66,22.66,0,0,0-8.39,4.18,21.75,21.75,0,0,0-5.68,7,26.06,26.06,0,0,0-2.7,9.28,25.61,25.61,0,0,0,.69,9.6,21.82,21.82,0,0,0,4.08,8,22.35,22.35,0,0,0,6.9,5.57,3.74,3.74,0,0,0,.42.27l.15.07A31.34,31.34,0,0,0,952,51.1Z"/><path class="cls-1" d="M801,213.85q-17.75-1.56-31.18-8.33A66,66,0,0,1,735,163.72a79.83,79.83,0,0,1-2.53-29.16A80.82,80.82,0,0,1,740,106.17,65.82,65.82,0,0,1,781.61,71q14.4-4.32,32.16-2.76T845,76.51A67.27,67.27,0,0,1,867.14,94a68.54,68.54,0,0,1,12.75,24.47,79.19,79.19,0,0,1,2.64,29.29A78,78,0,0,1,874.84,176,68.79,68.79,0,0,1,858,197.75a67.3,67.3,0,0,1-24.89,13.34Q818.71,215.41,801,213.85Zm4.38-49.79q10.59.93,17.68-4.78t8-16.06q.91-10.35-5.06-17.33T809.39,118Q799,117.07,792,122.9t-8,16.18Q783,149.45,789,156.29T805.35,164.06Zm107-82.94Q913.44,68.8,924,69.73l33,2.9q10.59.93,9.51,13.26L953,240.18q-1.08,12.33-11.68,11.39l-33-2.9q-10.59-.93-9.51-13.25Z"/><path class="cls-1" d="M748,150.93l-5.24-32.73q-1.69-10.5-6.38-9.55l-25.34,5.11-8.63-46.53Q700.19,55.08,689.73,57l-32.6,6q-10.47,1.94-8.21,14.1l28.23,152.3q2.25,12.17,12.71,10.22l32.6-6q10.45-1.94,8.21-14.1L721,167.24l24-4.85C748.15,161.76,749.15,157.93,748,150.93Z"/><path class="cls-1" d="M631.62,126.81a68.31,68.31,0,0,0-18.83-20.16,67.23,67.23,0,0,0-26-10.9q-14.76-2.94-32.28.32t-30.24,11.26a65.79,65.79,0,0,0-30.66,45.07,81,81,0,0,0,.29,29.38,80.08,80.08,0,0,0,10.24,27.42,66.06,66.06,0,0,0,44.74,31q14.76,2.93,32.28-.32t30.24-11.26a67.21,67.21,0,0,0,20.42-19.51,68.84,68.84,0,0,0,10.38-25.46,78.19,78.19,0,0,0-.14-29.28A79.32,79.32,0,0,0,631.62,126.81Zm-43.86,54.56q-5.29,7.4-15.76,9.33-10.21,1.91-17.81-3.11t-9.49-15.23q-1.91-10.22,3.38-17.74t15.49-9.41q10.45-1.94,18.08,3.19t9.51,15.35Q593.06,174,587.76,181.37Z"/><path class="cls-2" d="M145.49,29.42q1.8-8,4.38-10.32T159.66,16L203,11.33q7.55-.81,12,1.63t6.42,11.92l44.67,200.85c.83,3.58,1,6.26.53,8s-2.33,3.05-5.57,3.83l-48.84,12.32q-5.52,1.23-7.62.17t-3.21-5.16L184.3,169.7a3.62,3.62,0,0,0-7.08.29l-10.66,72.5c-.72,3.74-1.91,6.51-3.6,8.31s-4.4,2.89-8.12,3.29l-36.12,3.85q-5.59.6-8.63-1.5t-5.27-7.36l-26-68.61a3.62,3.62,0,0,0-7,1.23l-.54,77.1c-.15,2.81-.83,4.72-2,5.71S65.54,266,61.78,266l-50.34-1.74c-3.33-.08-5.42-.94-6.25-2.57S4,257.37,4,253.69L5.3,47.94q0-9.7,3.76-13t11.35-4.12l43.35-4.63q7.23-.76,10.24,1t6.46,9.17l39,89.55a3.64,3.64,0,0,0,6.86-.73Z"/><path class="cls-3" d="M441.55,101.75a12.52,12.52,0,0,0-13.31-11.5l-38,2.54q-6.74.45-10.12-1.9t-3.82-9.09l-2.74-41.06c-.3-4.49.56-7.65,2.58-9.51s5.28-2.93,9.77-3.23L559.1,16.43q6.74-.43,10.12,1.91t3.83,9.08l2.74,41.06q.45,6.74-2.59,9.52t-9.77,3.23l-39.64,2.64a12.52,12.52,0,0,0-11.64,13.48l11.37,143.77q.56,8.34-1.8,11.56t-9.42,3.69l-46.19,3.08q-6.74.45-9.67-2.41T453,245.83Z"/><path class="cls-4" d="M249.6,23.53q.6-7.38,3.33-9.79t9.95-3.13a262,262,0,0,1,26.81-.71q12.1.39,24.3,1.25a270.82,270.82,0,0,1,34.26,5.9,97.67,97.67,0,0,1,30.19,12.51,62,62,0,0,1,20.77,21.71q7.59,13.26,6.39,33.19a66.48,66.48,0,0,1-6.39,24,49.56,49.56,0,0,1-8.63,12.68,8.63,8.63,0,0,0-.26,11.84,55.09,55.09,0,0,1,4.35,5.36,69.11,69.11,0,0,1,8.16,15.11,83.24,83.24,0,0,1,4.63,17.43,76.22,76.22,0,0,1,.6,18.54q-1.55,17.63-9.3,29.13A59.69,59.69,0,0,1,379.12,237a86.6,86.6,0,0,1-27.61,9.68,215.12,215.12,0,0,1-32.95,3.18q-17.83,0-36.55-1.81t-36.86-4.44a63.27,63.27,0,0,1-6.5-1.13,9.14,9.14,0,0,1-4.71-2.53,11.89,11.89,0,0,1-3.09-5.08c-.7-2.15-.82-5.13-.34-9ZM299.74,97a10.84,10.84,0,0,0,10.35,11.74q13.74.48,22.91-2.83,12.67-4.58,14.46-18.74a29.13,29.13,0,0,0-.44-9.71q-1-4.85-5.89-8.75-4.9-3.48-14.06-5.86A90.34,90.34,0,0,0,313.8,60.6a10.85,10.85,0,0,0-11.89,9.92Zm-7.87,89.59a10.43,10.43,0,0,0,9.51,11.21,142.92,142.92,0,0,0,18.62.54q11.5-.53,18.09-2.86t9.29-6.53a21.92,21.92,0,0,0,3.32-9.23q1.35-14-14.43-20.13-12.4-4.79-31-6.59a10.44,10.44,0,0,0-11.48,9.51Z"/></g></g></svg>