<svg xmlns="http://www.w3.org/2000/svg" viewBox="0 0 80.97 48.44"><defs><style>.cls-1,.cls-2{fill:#f6bfb2;}.cls-2,.cls-7{stroke:#7b4b3e;}.cls-2,.cls-3,.cls-5,.cls-6,.cls-7{stroke-linecap:round;stroke-linejoin:round;}.cls-3{fill:#fef6f0;}.cls-3,.cls-6{stroke:#a94e37;}.cls-4{fill:#030000;}.cls-5,.cls-7{fill:none;}.cls-5{stroke:#030000;}.cls-6{fill:#a94e37;}.cls-8{fill:#fff931;}.cls-9{fill:#e2ff66;}.cls-10{fill:#6effe3;}.cls-11{fill:#ffb380;}</style></defs><g id="레이어_2" data-name="레이어 2"><g id="레이어_1-2" data-name="레이어 1"><polygon class="cls-1" points="59.28 48.45 59.76 48.45 59.86 40.86 59.03 41.4 58.22 45.61 59.28 48.45"/><polygon class="cls-1" points="21.96 29.12 22.89 30.81 24.39 30.48 24.38 29.12 23.87 27.9 21.28 28.21 21.96 29.12"/><path class="cls-1" d="M22.5,48.44H59.28l.88-25S55,4.42,51.06,3.25,29,3,29,3L25.73,9.51,21.81,38.66Z"/><path class="cls-2" d="M58.88,18.66a26.22,26.22,0,0,1,4.66-3.81l.87,1.4L66.27,16S67,28.43,60.42,37.18a104.41,104.41,0,0,1-.71,10.66"/><path class="cls-2" d="M54.36,31.24c10-4.88,3.75-13.91,3.75-13.91a22.84,22.84,0,0,0-4-10.42"/><path class="cls-3" d="M53.32,20c.43-5.64-3.93-13.29-12.2-13.17-15,.2-13,13.71-13,13.71,0,.38-6,11.38,12.09,11.89C40.17,32.39,57.74,33.25,53.32,20Z"/><path class="cls-4" d="M35.86,11.09A22.92,22.92,0,0,0,29.39,14S31,7.14,41.13,7c8.13-.08,10.23,6.43,10.23,6.43a33.08,33.08,0,0,0-5.68-2.33,5.07,5.07,0,0,0-1-1.38L44.86,11a17.38,17.38,0,0,0-4.23-.44,24,24,0,0,0-4,.37l.06-1.2A9.54,9.54,0,0,0,35.86,11.09Z"/><path class="cls-2" d="M49.55,2.85A17,17,0,0,0,40.83.5,18.45,18.45,0,0,0,31.3,3.22"/><path class="cls-2" d="M55.9,6.33a11.26,11.26,0,0,0-6-5.09,12.79,12.79,0,0,0-.1,5.46A9,9,0,0,0,55.9,6.33Z"/><path class="cls-2" d="M25.34,7.2a11.29,11.29,0,0,1,5.54-5.58,12.73,12.73,0,0,1,.57,5.43A9,9,0,0,1,25.34,7.2Z"/><line class="cls-5" x1="43.48" y1="13.65" x2="45.22" y2="13.31"/><line class="cls-5" x1="37.25" y1="13.53" x2="35.5" y2="13.27"/><path class="cls-6" d="M43.81,21.82,37.29,22s-.87,5.64,3.41,5.62S43.81,21.82,43.81,21.82Z"/><polyline class="cls-5" points="45.22 18.17 44.16 18.87 45.22 19.63"/><polyline class="cls-5" points="36.2 18.17 37.25 18.87 36.2 19.63"/><path class="cls-2" d="M23.3,18.66a26.22,26.22,0,0,0-4.66-3.81l-.87,1.4L15.92,16s-.73,12.47,5.84,21.22a104.41,104.41,0,0,0,.71,10.66"/><path class="cls-7" d="M21.24,16.88A7.28,7.28,0,0,1,16,19.19"/><path class="cls-7" d="M60.94,16.88a7.28,7.28,0,0,0,5.29,2.31"/><polygon class="cls-8" points="5.39 8.4 7.71 9.33 8.7 12.65 9.68 9.33 12 8.4 9.68 7.47 8.7 4.16 7.71 7.47 5.39 8.4"/><polygon class="cls-9" points="74.36 17.78 76.68 18.71 77.67 22.02 78.65 18.71 80.97 17.78 78.65 16.85 77.67 13.53 76.68 16.85 74.36 17.78"/><polygon class="cls-10" points="69.86 9.56 71.56 10.24 72.27 12.66 72.99 10.24 74.68 9.56 72.99 8.88 72.27 6.46 71.56 8.88 69.86 9.56"/><polygon class="cls-11" points="0 17.35 1.69 18.03 2.41 20.45 3.13 18.03 4.82 17.35 3.13 16.67 2.41 14.25 1.69 16.67 0 17.35"/><path class="cls-2" d="M26.87,7.58a20.78,20.78,0,0,0-2.82,9.92s-6.33,8.12,2.08,13.91"/></g></g></svg>